%TF.GenerationSoftware,KiCad,Pcbnew,9.0.2*%
%TF.CreationDate,2025-07-13T09:31:29-04:00*%
%TF.ProjectId,Brizachord,4272697a-6163-4686-9f72-642e6b696361,0*%
%TF.SameCoordinates,Original*%
%TF.FileFunction,Profile,NP*%
%FSLAX46Y46*%
G04 Gerber Fmt 4.6, Leading zero omitted, Abs format (unit mm)*
G04 Created by KiCad (PCBNEW 9.0.2) date 2025-07-13 09:31:29*
%MOMM*%
%LPD*%
G01*
G04 APERTURE LIST*
%TA.AperFunction,Profile*%
%ADD10C,0.050000*%
%TD*%
%TA.AperFunction,Profile*%
%ADD11C,0.200000*%
%TD*%
G04 APERTURE END LIST*
D10*
X198165647Y-65000662D02*
G75*
G02*
X190981443Y-65000662I-3592102J0D01*
G01*
X190981443Y-65000662D02*
G75*
G02*
X198165647Y-65000662I3592102J0D01*
G01*
X208280000Y-93980000D02*
X215900000Y-93980000D01*
X215900000Y-101600000D01*
X208280000Y-101600000D01*
X208280000Y-93980000D01*
X170680000Y-137380000D02*
G75*
G02*
X130080000Y-137380000I-20300000J0D01*
G01*
X130080000Y-137380000D02*
G75*
G02*
X170680000Y-137380000I20300000J0D01*
G01*
D11*
X224870000Y-21510000D02*
G75*
G02*
X222170000Y-21510000I-1350000J0D01*
G01*
X222170000Y-21510000D02*
G75*
G02*
X224870000Y-21510000I1350000J0D01*
G01*
D10*
X128430000Y-137380000D02*
G75*
G02*
X125030000Y-137380000I-1700000J0D01*
G01*
X125030000Y-137380000D02*
G75*
G02*
X128430000Y-137380000I1700000J0D01*
G01*
X178230000Y-113760000D02*
G75*
G02*
X174830000Y-113760000I-1700000J0D01*
G01*
X174830000Y-113760000D02*
G75*
G02*
X178230000Y-113760000I1700000J0D01*
G01*
D11*
X26190000Y-21130000D02*
G75*
G02*
X23490000Y-21130000I-1350000J0D01*
G01*
X23490000Y-21130000D02*
G75*
G02*
X26190000Y-21130000I1350000J0D01*
G01*
X26190000Y-159430000D02*
G75*
G02*
X23490000Y-159430000I-1350000J0D01*
G01*
X23490000Y-159430000D02*
G75*
G02*
X26190000Y-159430000I1350000J0D01*
G01*
D10*
X173150000Y-113760000D02*
G75*
G02*
X169750000Y-113760000I-1700000J0D01*
G01*
X169750000Y-113760000D02*
G75*
G02*
X173150000Y-113760000I1700000J0D01*
G01*
X21490000Y-17780000D02*
X226490000Y-17780000D01*
X226490000Y-162780000D01*
X21490000Y-162780000D01*
X21490000Y-17780000D01*
D11*
X224870000Y-159430000D02*
G75*
G02*
X222170000Y-159430000I-1350000J0D01*
G01*
X222170000Y-159430000D02*
G75*
G02*
X224870000Y-159430000I1350000J0D01*
G01*
D10*
X175730000Y-137380000D02*
G75*
G02*
X172330000Y-137380000I-1700000J0D01*
G01*
X172330000Y-137380000D02*
G75*
G02*
X175730000Y-137380000I1700000J0D01*
G01*
M02*
