%TF.GenerationSoftware,KiCad,Pcbnew,9.0.2*%
%TF.CreationDate,2025-07-13T09:31:29-04:00*%
%TF.ProjectId,Brizachord,4272697a-6163-4686-9f72-642e6b696361,0*%
%TF.SameCoordinates,Original*%
%TF.FileFunction,Legend,Top*%
%TF.FilePolarity,Positive*%
%FSLAX46Y46*%
G04 Gerber Fmt 4.6, Leading zero omitted, Abs format (unit mm)*
G04 Created by KiCad (PCBNEW 9.0.2) date 2025-07-13 09:31:29*
%MOMM*%
%LPD*%
G01*
G04 APERTURE LIST*
%ADD10C,0.300000*%
%ADD11C,0.124600*%
%ADD12C,0.100000*%
%ADD13C,0.150000*%
%ADD14C,0.190500*%
%ADD15C,0.120000*%
%ADD16C,0.050000*%
%ADD17C,0.000000*%
G04 APERTURE END LIST*
D10*
X177782487Y-60689400D02*
X177996773Y-60760828D01*
X177996773Y-60760828D02*
X178353915Y-60760828D01*
X178353915Y-60760828D02*
X178496773Y-60689400D01*
X178496773Y-60689400D02*
X178568201Y-60617971D01*
X178568201Y-60617971D02*
X178639630Y-60475114D01*
X178639630Y-60475114D02*
X178639630Y-60332257D01*
X178639630Y-60332257D02*
X178568201Y-60189400D01*
X178568201Y-60189400D02*
X178496773Y-60117971D01*
X178496773Y-60117971D02*
X178353915Y-60046542D01*
X178353915Y-60046542D02*
X178068201Y-59975114D01*
X178068201Y-59975114D02*
X177925344Y-59903685D01*
X177925344Y-59903685D02*
X177853915Y-59832257D01*
X177853915Y-59832257D02*
X177782487Y-59689400D01*
X177782487Y-59689400D02*
X177782487Y-59546542D01*
X177782487Y-59546542D02*
X177853915Y-59403685D01*
X177853915Y-59403685D02*
X177925344Y-59332257D01*
X177925344Y-59332257D02*
X178068201Y-59260828D01*
X178068201Y-59260828D02*
X178425344Y-59260828D01*
X178425344Y-59260828D02*
X178639630Y-59332257D01*
X179068201Y-59760828D02*
X179639629Y-59760828D01*
X179282486Y-59260828D02*
X179282486Y-60546542D01*
X179282486Y-60546542D02*
X179353915Y-60689400D01*
X179353915Y-60689400D02*
X179496772Y-60760828D01*
X179496772Y-60760828D02*
X179639629Y-60760828D01*
X180139629Y-60760828D02*
X180139629Y-59760828D01*
X180139629Y-60046542D02*
X180211058Y-59903685D01*
X180211058Y-59903685D02*
X180282487Y-59832257D01*
X180282487Y-59832257D02*
X180425344Y-59760828D01*
X180425344Y-59760828D02*
X180568201Y-59760828D01*
X181711058Y-59760828D02*
X181711058Y-60760828D01*
X181068200Y-59760828D02*
X181068200Y-60546542D01*
X181068200Y-60546542D02*
X181139629Y-60689400D01*
X181139629Y-60689400D02*
X181282486Y-60760828D01*
X181282486Y-60760828D02*
X181496772Y-60760828D01*
X181496772Y-60760828D02*
X181639629Y-60689400D01*
X181639629Y-60689400D02*
X181711058Y-60617971D01*
X182425343Y-60760828D02*
X182425343Y-59760828D01*
X182425343Y-59903685D02*
X182496772Y-59832257D01*
X182496772Y-59832257D02*
X182639629Y-59760828D01*
X182639629Y-59760828D02*
X182853915Y-59760828D01*
X182853915Y-59760828D02*
X182996772Y-59832257D01*
X182996772Y-59832257D02*
X183068201Y-59975114D01*
X183068201Y-59975114D02*
X183068201Y-60760828D01*
X183068201Y-59975114D02*
X183139629Y-59832257D01*
X183139629Y-59832257D02*
X183282486Y-59760828D01*
X183282486Y-59760828D02*
X183496772Y-59760828D01*
X183496772Y-59760828D02*
X183639629Y-59832257D01*
X183639629Y-59832257D02*
X183711058Y-59975114D01*
X183711058Y-59975114D02*
X183711058Y-60760828D01*
X185353915Y-59260828D02*
X185853915Y-60760828D01*
X185853915Y-60760828D02*
X186353915Y-59260828D01*
X187068200Y-60760828D02*
X186925343Y-60689400D01*
X186925343Y-60689400D02*
X186853914Y-60617971D01*
X186853914Y-60617971D02*
X186782486Y-60475114D01*
X186782486Y-60475114D02*
X186782486Y-60046542D01*
X186782486Y-60046542D02*
X186853914Y-59903685D01*
X186853914Y-59903685D02*
X186925343Y-59832257D01*
X186925343Y-59832257D02*
X187068200Y-59760828D01*
X187068200Y-59760828D02*
X187282486Y-59760828D01*
X187282486Y-59760828D02*
X187425343Y-59832257D01*
X187425343Y-59832257D02*
X187496772Y-59903685D01*
X187496772Y-59903685D02*
X187568200Y-60046542D01*
X187568200Y-60046542D02*
X187568200Y-60475114D01*
X187568200Y-60475114D02*
X187496772Y-60617971D01*
X187496772Y-60617971D02*
X187425343Y-60689400D01*
X187425343Y-60689400D02*
X187282486Y-60760828D01*
X187282486Y-60760828D02*
X187068200Y-60760828D01*
X188425343Y-60760828D02*
X188282486Y-60689400D01*
X188282486Y-60689400D02*
X188211057Y-60546542D01*
X188211057Y-60546542D02*
X188211057Y-59260828D01*
D11*
X184266494Y-76320068D02*
X185266494Y-76320068D01*
X185266494Y-76320068D02*
X185266494Y-76701020D01*
X185266494Y-76701020D02*
X185218875Y-76796258D01*
X185218875Y-76796258D02*
X185171256Y-76843877D01*
X185171256Y-76843877D02*
X185076018Y-76891496D01*
X185076018Y-76891496D02*
X184933161Y-76891496D01*
X184933161Y-76891496D02*
X184837923Y-76843877D01*
X184837923Y-76843877D02*
X184790304Y-76796258D01*
X184790304Y-76796258D02*
X184742685Y-76701020D01*
X184742685Y-76701020D02*
X184742685Y-76320068D01*
X184933161Y-77748639D02*
X184266494Y-77748639D01*
X184933161Y-77320068D02*
X184409352Y-77320068D01*
X184409352Y-77320068D02*
X184314114Y-77367687D01*
X184314114Y-77367687D02*
X184266494Y-77462925D01*
X184266494Y-77462925D02*
X184266494Y-77605782D01*
X184266494Y-77605782D02*
X184314114Y-77701020D01*
X184314114Y-77701020D02*
X184361733Y-77748639D01*
X184266494Y-78367687D02*
X184314114Y-78272449D01*
X184314114Y-78272449D02*
X184409352Y-78224830D01*
X184409352Y-78224830D02*
X185266494Y-78224830D01*
X184266494Y-78891497D02*
X184314114Y-78796259D01*
X184314114Y-78796259D02*
X184409352Y-78748640D01*
X184409352Y-78748640D02*
X185266494Y-78748640D01*
X184933161Y-79701021D02*
X184266494Y-79701021D01*
X184933161Y-79272450D02*
X184409352Y-79272450D01*
X184409352Y-79272450D02*
X184314114Y-79320069D01*
X184314114Y-79320069D02*
X184266494Y-79415307D01*
X184266494Y-79415307D02*
X184266494Y-79558164D01*
X184266494Y-79558164D02*
X184314114Y-79653402D01*
X184314114Y-79653402D02*
X184361733Y-79701021D01*
X184933161Y-80177212D02*
X183933161Y-80177212D01*
X184885542Y-80177212D02*
X184933161Y-80272450D01*
X184933161Y-80272450D02*
X184933161Y-80462926D01*
X184933161Y-80462926D02*
X184885542Y-80558164D01*
X184885542Y-80558164D02*
X184837923Y-80605783D01*
X184837923Y-80605783D02*
X184742685Y-80653402D01*
X184742685Y-80653402D02*
X184456971Y-80653402D01*
X184456971Y-80653402D02*
X184361733Y-80605783D01*
X184361733Y-80605783D02*
X184314114Y-80558164D01*
X184314114Y-80558164D02*
X184266494Y-80462926D01*
X184266494Y-80462926D02*
X184266494Y-80272450D01*
X184266494Y-80272450D02*
X184314114Y-80177212D01*
X184314114Y-81034355D02*
X184266494Y-81129593D01*
X184266494Y-81129593D02*
X184266494Y-81320069D01*
X184266494Y-81320069D02*
X184314114Y-81415307D01*
X184314114Y-81415307D02*
X184409352Y-81462926D01*
X184409352Y-81462926D02*
X184456971Y-81462926D01*
X184456971Y-81462926D02*
X184552209Y-81415307D01*
X184552209Y-81415307D02*
X184599828Y-81320069D01*
X184599828Y-81320069D02*
X184599828Y-81177212D01*
X184599828Y-81177212D02*
X184647447Y-81081974D01*
X184647447Y-81081974D02*
X184742685Y-81034355D01*
X184742685Y-81034355D02*
X184790304Y-81034355D01*
X184790304Y-81034355D02*
X184885542Y-81081974D01*
X184885542Y-81081974D02*
X184933161Y-81177212D01*
X184933161Y-81177212D02*
X184933161Y-81320069D01*
X184933161Y-81320069D02*
X184885542Y-81415307D01*
X182320068Y-86349294D02*
X182320068Y-85349294D01*
X182320068Y-85349294D02*
X182558163Y-85349294D01*
X182558163Y-85349294D02*
X182701020Y-85396913D01*
X182701020Y-85396913D02*
X182796258Y-85492151D01*
X182796258Y-85492151D02*
X182843877Y-85587389D01*
X182843877Y-85587389D02*
X182891496Y-85777865D01*
X182891496Y-85777865D02*
X182891496Y-85920722D01*
X182891496Y-85920722D02*
X182843877Y-86111198D01*
X182843877Y-86111198D02*
X182796258Y-86206436D01*
X182796258Y-86206436D02*
X182701020Y-86301675D01*
X182701020Y-86301675D02*
X182558163Y-86349294D01*
X182558163Y-86349294D02*
X182320068Y-86349294D01*
X183320068Y-85825484D02*
X183653401Y-85825484D01*
X183796258Y-86349294D02*
X183320068Y-86349294D01*
X183320068Y-86349294D02*
X183320068Y-85349294D01*
X183320068Y-85349294D02*
X183796258Y-85349294D01*
X184796258Y-86254055D02*
X184748639Y-86301675D01*
X184748639Y-86301675D02*
X184605782Y-86349294D01*
X184605782Y-86349294D02*
X184510544Y-86349294D01*
X184510544Y-86349294D02*
X184367687Y-86301675D01*
X184367687Y-86301675D02*
X184272449Y-86206436D01*
X184272449Y-86206436D02*
X184224830Y-86111198D01*
X184224830Y-86111198D02*
X184177211Y-85920722D01*
X184177211Y-85920722D02*
X184177211Y-85777865D01*
X184177211Y-85777865D02*
X184224830Y-85587389D01*
X184224830Y-85587389D02*
X184272449Y-85492151D01*
X184272449Y-85492151D02*
X184367687Y-85396913D01*
X184367687Y-85396913D02*
X184510544Y-85349294D01*
X184510544Y-85349294D02*
X184605782Y-85349294D01*
X184605782Y-85349294D02*
X184748639Y-85396913D01*
X184748639Y-85396913D02*
X184796258Y-85444532D01*
X185415306Y-85349294D02*
X185605782Y-85349294D01*
X185605782Y-85349294D02*
X185701020Y-85396913D01*
X185701020Y-85396913D02*
X185796258Y-85492151D01*
X185796258Y-85492151D02*
X185843877Y-85682627D01*
X185843877Y-85682627D02*
X185843877Y-86015960D01*
X185843877Y-86015960D02*
X185796258Y-86206436D01*
X185796258Y-86206436D02*
X185701020Y-86301675D01*
X185701020Y-86301675D02*
X185605782Y-86349294D01*
X185605782Y-86349294D02*
X185415306Y-86349294D01*
X185415306Y-86349294D02*
X185320068Y-86301675D01*
X185320068Y-86301675D02*
X185224830Y-86206436D01*
X185224830Y-86206436D02*
X185177211Y-86015960D01*
X185177211Y-86015960D02*
X185177211Y-85682627D01*
X185177211Y-85682627D02*
X185224830Y-85492151D01*
X185224830Y-85492151D02*
X185320068Y-85396913D01*
X185320068Y-85396913D02*
X185415306Y-85349294D01*
X186272449Y-85349294D02*
X186272449Y-86158817D01*
X186272449Y-86158817D02*
X186320068Y-86254055D01*
X186320068Y-86254055D02*
X186367687Y-86301675D01*
X186367687Y-86301675D02*
X186462925Y-86349294D01*
X186462925Y-86349294D02*
X186653401Y-86349294D01*
X186653401Y-86349294D02*
X186748639Y-86301675D01*
X186748639Y-86301675D02*
X186796258Y-86254055D01*
X186796258Y-86254055D02*
X186843877Y-86158817D01*
X186843877Y-86158817D02*
X186843877Y-85349294D01*
X187320068Y-86349294D02*
X187320068Y-85349294D01*
X187320068Y-85349294D02*
X187701020Y-85349294D01*
X187701020Y-85349294D02*
X187796258Y-85396913D01*
X187796258Y-85396913D02*
X187843877Y-85444532D01*
X187843877Y-85444532D02*
X187891496Y-85539770D01*
X187891496Y-85539770D02*
X187891496Y-85682627D01*
X187891496Y-85682627D02*
X187843877Y-85777865D01*
X187843877Y-85777865D02*
X187796258Y-85825484D01*
X187796258Y-85825484D02*
X187701020Y-85873103D01*
X187701020Y-85873103D02*
X187320068Y-85873103D01*
X188081973Y-86444532D02*
X188843877Y-86444532D01*
X188939116Y-85349294D02*
X189510544Y-85349294D01*
X189224830Y-86349294D02*
X189224830Y-85349294D01*
X190415306Y-86349294D02*
X190081973Y-85873103D01*
X189843878Y-86349294D02*
X189843878Y-85349294D01*
X189843878Y-85349294D02*
X190224830Y-85349294D01*
X190224830Y-85349294D02*
X190320068Y-85396913D01*
X190320068Y-85396913D02*
X190367687Y-85444532D01*
X190367687Y-85444532D02*
X190415306Y-85539770D01*
X190415306Y-85539770D02*
X190415306Y-85682627D01*
X190415306Y-85682627D02*
X190367687Y-85777865D01*
X190367687Y-85777865D02*
X190320068Y-85825484D01*
X190320068Y-85825484D02*
X190224830Y-85873103D01*
X190224830Y-85873103D02*
X189843878Y-85873103D01*
X190843878Y-86349294D02*
X190843878Y-85349294D01*
X191796258Y-86349294D02*
X191320068Y-86349294D01*
X191320068Y-86349294D02*
X191320068Y-85349294D01*
X192605782Y-86349294D02*
X192129592Y-86349294D01*
X192129592Y-86349294D02*
X192129592Y-85349294D01*
D10*
X203754510Y-156010828D02*
X203754510Y-154510828D01*
X203754510Y-154510828D02*
X204325939Y-154510828D01*
X204325939Y-154510828D02*
X204468796Y-154582257D01*
X204468796Y-154582257D02*
X204540225Y-154653685D01*
X204540225Y-154653685D02*
X204611653Y-154796542D01*
X204611653Y-154796542D02*
X204611653Y-155010828D01*
X204611653Y-155010828D02*
X204540225Y-155153685D01*
X204540225Y-155153685D02*
X204468796Y-155225114D01*
X204468796Y-155225114D02*
X204325939Y-155296542D01*
X204325939Y-155296542D02*
X203754510Y-155296542D01*
X205897368Y-156010828D02*
X205897368Y-155225114D01*
X205897368Y-155225114D02*
X205825939Y-155082257D01*
X205825939Y-155082257D02*
X205683082Y-155010828D01*
X205683082Y-155010828D02*
X205397368Y-155010828D01*
X205397368Y-155010828D02*
X205254510Y-155082257D01*
X205897368Y-155939400D02*
X205754510Y-156010828D01*
X205754510Y-156010828D02*
X205397368Y-156010828D01*
X205397368Y-156010828D02*
X205254510Y-155939400D01*
X205254510Y-155939400D02*
X205183082Y-155796542D01*
X205183082Y-155796542D02*
X205183082Y-155653685D01*
X205183082Y-155653685D02*
X205254510Y-155510828D01*
X205254510Y-155510828D02*
X205397368Y-155439400D01*
X205397368Y-155439400D02*
X205754510Y-155439400D01*
X205754510Y-155439400D02*
X205897368Y-155367971D01*
X206397368Y-155010828D02*
X206968796Y-155010828D01*
X206611653Y-154510828D02*
X206611653Y-155796542D01*
X206611653Y-155796542D02*
X206683082Y-155939400D01*
X206683082Y-155939400D02*
X206825939Y-156010828D01*
X206825939Y-156010828D02*
X206968796Y-156010828D01*
X207254511Y-155010828D02*
X207825939Y-155010828D01*
X207468796Y-154510828D02*
X207468796Y-155796542D01*
X207468796Y-155796542D02*
X207540225Y-155939400D01*
X207540225Y-155939400D02*
X207683082Y-156010828D01*
X207683082Y-156010828D02*
X207825939Y-156010828D01*
X208897368Y-155939400D02*
X208754511Y-156010828D01*
X208754511Y-156010828D02*
X208468797Y-156010828D01*
X208468797Y-156010828D02*
X208325939Y-155939400D01*
X208325939Y-155939400D02*
X208254511Y-155796542D01*
X208254511Y-155796542D02*
X208254511Y-155225114D01*
X208254511Y-155225114D02*
X208325939Y-155082257D01*
X208325939Y-155082257D02*
X208468797Y-155010828D01*
X208468797Y-155010828D02*
X208754511Y-155010828D01*
X208754511Y-155010828D02*
X208897368Y-155082257D01*
X208897368Y-155082257D02*
X208968797Y-155225114D01*
X208968797Y-155225114D02*
X208968797Y-155367971D01*
X208968797Y-155367971D02*
X208254511Y-155510828D01*
X209611653Y-156010828D02*
X209611653Y-155010828D01*
X209611653Y-155296542D02*
X209683082Y-155153685D01*
X209683082Y-155153685D02*
X209754511Y-155082257D01*
X209754511Y-155082257D02*
X209897368Y-155010828D01*
X209897368Y-155010828D02*
X210040225Y-155010828D01*
X210540224Y-155010828D02*
X210540224Y-156010828D01*
X210540224Y-155153685D02*
X210611653Y-155082257D01*
X210611653Y-155082257D02*
X210754510Y-155010828D01*
X210754510Y-155010828D02*
X210968796Y-155010828D01*
X210968796Y-155010828D02*
X211111653Y-155082257D01*
X211111653Y-155082257D02*
X211183082Y-155225114D01*
X211183082Y-155225114D02*
X211183082Y-156010828D01*
X213897367Y-156010828D02*
X213397367Y-155296542D01*
X213040224Y-156010828D02*
X213040224Y-154510828D01*
X213040224Y-154510828D02*
X213611653Y-154510828D01*
X213611653Y-154510828D02*
X213754510Y-154582257D01*
X213754510Y-154582257D02*
X213825939Y-154653685D01*
X213825939Y-154653685D02*
X213897367Y-154796542D01*
X213897367Y-154796542D02*
X213897367Y-155010828D01*
X213897367Y-155010828D02*
X213825939Y-155153685D01*
X213825939Y-155153685D02*
X213754510Y-155225114D01*
X213754510Y-155225114D02*
X213611653Y-155296542D01*
X213611653Y-155296542D02*
X213040224Y-155296542D01*
X184704510Y-156010828D02*
X184704510Y-154510828D01*
X184704510Y-154510828D02*
X185275939Y-154510828D01*
X185275939Y-154510828D02*
X185418796Y-154582257D01*
X185418796Y-154582257D02*
X185490225Y-154653685D01*
X185490225Y-154653685D02*
X185561653Y-154796542D01*
X185561653Y-154796542D02*
X185561653Y-155010828D01*
X185561653Y-155010828D02*
X185490225Y-155153685D01*
X185490225Y-155153685D02*
X185418796Y-155225114D01*
X185418796Y-155225114D02*
X185275939Y-155296542D01*
X185275939Y-155296542D02*
X184704510Y-155296542D01*
X186847368Y-156010828D02*
X186847368Y-155225114D01*
X186847368Y-155225114D02*
X186775939Y-155082257D01*
X186775939Y-155082257D02*
X186633082Y-155010828D01*
X186633082Y-155010828D02*
X186347368Y-155010828D01*
X186347368Y-155010828D02*
X186204510Y-155082257D01*
X186847368Y-155939400D02*
X186704510Y-156010828D01*
X186704510Y-156010828D02*
X186347368Y-156010828D01*
X186347368Y-156010828D02*
X186204510Y-155939400D01*
X186204510Y-155939400D02*
X186133082Y-155796542D01*
X186133082Y-155796542D02*
X186133082Y-155653685D01*
X186133082Y-155653685D02*
X186204510Y-155510828D01*
X186204510Y-155510828D02*
X186347368Y-155439400D01*
X186347368Y-155439400D02*
X186704510Y-155439400D01*
X186704510Y-155439400D02*
X186847368Y-155367971D01*
X187347368Y-155010828D02*
X187918796Y-155010828D01*
X187561653Y-154510828D02*
X187561653Y-155796542D01*
X187561653Y-155796542D02*
X187633082Y-155939400D01*
X187633082Y-155939400D02*
X187775939Y-156010828D01*
X187775939Y-156010828D02*
X187918796Y-156010828D01*
X188204511Y-155010828D02*
X188775939Y-155010828D01*
X188418796Y-154510828D02*
X188418796Y-155796542D01*
X188418796Y-155796542D02*
X188490225Y-155939400D01*
X188490225Y-155939400D02*
X188633082Y-156010828D01*
X188633082Y-156010828D02*
X188775939Y-156010828D01*
X189847368Y-155939400D02*
X189704511Y-156010828D01*
X189704511Y-156010828D02*
X189418797Y-156010828D01*
X189418797Y-156010828D02*
X189275939Y-155939400D01*
X189275939Y-155939400D02*
X189204511Y-155796542D01*
X189204511Y-155796542D02*
X189204511Y-155225114D01*
X189204511Y-155225114D02*
X189275939Y-155082257D01*
X189275939Y-155082257D02*
X189418797Y-155010828D01*
X189418797Y-155010828D02*
X189704511Y-155010828D01*
X189704511Y-155010828D02*
X189847368Y-155082257D01*
X189847368Y-155082257D02*
X189918797Y-155225114D01*
X189918797Y-155225114D02*
X189918797Y-155367971D01*
X189918797Y-155367971D02*
X189204511Y-155510828D01*
X190561653Y-156010828D02*
X190561653Y-155010828D01*
X190561653Y-155296542D02*
X190633082Y-155153685D01*
X190633082Y-155153685D02*
X190704511Y-155082257D01*
X190704511Y-155082257D02*
X190847368Y-155010828D01*
X190847368Y-155010828D02*
X190990225Y-155010828D01*
X191490224Y-155010828D02*
X191490224Y-156010828D01*
X191490224Y-155153685D02*
X191561653Y-155082257D01*
X191561653Y-155082257D02*
X191704510Y-155010828D01*
X191704510Y-155010828D02*
X191918796Y-155010828D01*
X191918796Y-155010828D02*
X192061653Y-155082257D01*
X192061653Y-155082257D02*
X192133082Y-155225114D01*
X192133082Y-155225114D02*
X192133082Y-156010828D01*
X194704510Y-156010828D02*
X193990224Y-156010828D01*
X193990224Y-156010828D02*
X193990224Y-154510828D01*
X186760225Y-132992257D02*
X186617368Y-132920828D01*
X186617368Y-132920828D02*
X186403082Y-132920828D01*
X186403082Y-132920828D02*
X186188796Y-132992257D01*
X186188796Y-132992257D02*
X186045939Y-133135114D01*
X186045939Y-133135114D02*
X185974510Y-133277971D01*
X185974510Y-133277971D02*
X185903082Y-133563685D01*
X185903082Y-133563685D02*
X185903082Y-133777971D01*
X185903082Y-133777971D02*
X185974510Y-134063685D01*
X185974510Y-134063685D02*
X186045939Y-134206542D01*
X186045939Y-134206542D02*
X186188796Y-134349400D01*
X186188796Y-134349400D02*
X186403082Y-134420828D01*
X186403082Y-134420828D02*
X186545939Y-134420828D01*
X186545939Y-134420828D02*
X186760225Y-134349400D01*
X186760225Y-134349400D02*
X186831653Y-134277971D01*
X186831653Y-134277971D02*
X186831653Y-133777971D01*
X186831653Y-133777971D02*
X186545939Y-133777971D01*
X187474510Y-134420828D02*
X187474510Y-133420828D01*
X187474510Y-133706542D02*
X187545939Y-133563685D01*
X187545939Y-133563685D02*
X187617368Y-133492257D01*
X187617368Y-133492257D02*
X187760225Y-133420828D01*
X187760225Y-133420828D02*
X187903082Y-133420828D01*
X188617367Y-134420828D02*
X188474510Y-134349400D01*
X188474510Y-134349400D02*
X188403081Y-134277971D01*
X188403081Y-134277971D02*
X188331653Y-134135114D01*
X188331653Y-134135114D02*
X188331653Y-133706542D01*
X188331653Y-133706542D02*
X188403081Y-133563685D01*
X188403081Y-133563685D02*
X188474510Y-133492257D01*
X188474510Y-133492257D02*
X188617367Y-133420828D01*
X188617367Y-133420828D02*
X188831653Y-133420828D01*
X188831653Y-133420828D02*
X188974510Y-133492257D01*
X188974510Y-133492257D02*
X189045939Y-133563685D01*
X189045939Y-133563685D02*
X189117367Y-133706542D01*
X189117367Y-133706542D02*
X189117367Y-134135114D01*
X189117367Y-134135114D02*
X189045939Y-134277971D01*
X189045939Y-134277971D02*
X188974510Y-134349400D01*
X188974510Y-134349400D02*
X188831653Y-134420828D01*
X188831653Y-134420828D02*
X188617367Y-134420828D01*
X189974510Y-134420828D02*
X189831653Y-134349400D01*
X189831653Y-134349400D02*
X189760224Y-134277971D01*
X189760224Y-134277971D02*
X189688796Y-134135114D01*
X189688796Y-134135114D02*
X189688796Y-133706542D01*
X189688796Y-133706542D02*
X189760224Y-133563685D01*
X189760224Y-133563685D02*
X189831653Y-133492257D01*
X189831653Y-133492257D02*
X189974510Y-133420828D01*
X189974510Y-133420828D02*
X190188796Y-133420828D01*
X190188796Y-133420828D02*
X190331653Y-133492257D01*
X190331653Y-133492257D02*
X190403082Y-133563685D01*
X190403082Y-133563685D02*
X190474510Y-133706542D01*
X190474510Y-133706542D02*
X190474510Y-134135114D01*
X190474510Y-134135114D02*
X190403082Y-134277971D01*
X190403082Y-134277971D02*
X190331653Y-134349400D01*
X190331653Y-134349400D02*
X190188796Y-134420828D01*
X190188796Y-134420828D02*
X189974510Y-134420828D01*
X190974510Y-133420828D02*
X191331653Y-134420828D01*
X191331653Y-134420828D02*
X191688796Y-133420828D01*
X192831653Y-134349400D02*
X192688796Y-134420828D01*
X192688796Y-134420828D02*
X192403082Y-134420828D01*
X192403082Y-134420828D02*
X192260224Y-134349400D01*
X192260224Y-134349400D02*
X192188796Y-134206542D01*
X192188796Y-134206542D02*
X192188796Y-133635114D01*
X192188796Y-133635114D02*
X192260224Y-133492257D01*
X192260224Y-133492257D02*
X192403082Y-133420828D01*
X192403082Y-133420828D02*
X192688796Y-133420828D01*
X192688796Y-133420828D02*
X192831653Y-133492257D01*
X192831653Y-133492257D02*
X192903082Y-133635114D01*
X192903082Y-133635114D02*
X192903082Y-133777971D01*
X192903082Y-133777971D02*
X192188796Y-133920828D01*
X113100225Y-156010828D02*
X112243082Y-156010828D01*
X112671653Y-156010828D02*
X112671653Y-154510828D01*
X112671653Y-154510828D02*
X112528796Y-154725114D01*
X112528796Y-154725114D02*
X112385939Y-154867971D01*
X112385939Y-154867971D02*
X112243082Y-154939400D01*
X114528796Y-156010828D02*
X113671653Y-156010828D01*
X114100224Y-156010828D02*
X114100224Y-154510828D01*
X114100224Y-154510828D02*
X113957367Y-154725114D01*
X113957367Y-154725114D02*
X113814510Y-154867971D01*
X113814510Y-154867971D02*
X113671653Y-154939400D01*
X114957367Y-155010828D02*
X115528795Y-155010828D01*
X115171652Y-154510828D02*
X115171652Y-155796542D01*
X115171652Y-155796542D02*
X115243081Y-155939400D01*
X115243081Y-155939400D02*
X115385938Y-156010828D01*
X115385938Y-156010828D02*
X115528795Y-156010828D01*
X116028795Y-156010828D02*
X116028795Y-154510828D01*
X116671653Y-156010828D02*
X116671653Y-155225114D01*
X116671653Y-155225114D02*
X116600224Y-155082257D01*
X116600224Y-155082257D02*
X116457367Y-155010828D01*
X116457367Y-155010828D02*
X116243081Y-155010828D01*
X116243081Y-155010828D02*
X116100224Y-155082257D01*
X116100224Y-155082257D02*
X116028795Y-155153685D01*
X92065939Y-156010828D02*
X92351653Y-156010828D01*
X92351653Y-156010828D02*
X92494510Y-155939400D01*
X92494510Y-155939400D02*
X92565939Y-155867971D01*
X92565939Y-155867971D02*
X92708796Y-155653685D01*
X92708796Y-155653685D02*
X92780225Y-155367971D01*
X92780225Y-155367971D02*
X92780225Y-154796542D01*
X92780225Y-154796542D02*
X92708796Y-154653685D01*
X92708796Y-154653685D02*
X92637368Y-154582257D01*
X92637368Y-154582257D02*
X92494510Y-154510828D01*
X92494510Y-154510828D02*
X92208796Y-154510828D01*
X92208796Y-154510828D02*
X92065939Y-154582257D01*
X92065939Y-154582257D02*
X91994510Y-154653685D01*
X91994510Y-154653685D02*
X91923082Y-154796542D01*
X91923082Y-154796542D02*
X91923082Y-155153685D01*
X91923082Y-155153685D02*
X91994510Y-155296542D01*
X91994510Y-155296542D02*
X92065939Y-155367971D01*
X92065939Y-155367971D02*
X92208796Y-155439400D01*
X92208796Y-155439400D02*
X92494510Y-155439400D01*
X92494510Y-155439400D02*
X92637368Y-155367971D01*
X92637368Y-155367971D02*
X92708796Y-155296542D01*
X92708796Y-155296542D02*
X92780225Y-155153685D01*
X93208796Y-155010828D02*
X93780224Y-155010828D01*
X93423081Y-154510828D02*
X93423081Y-155796542D01*
X93423081Y-155796542D02*
X93494510Y-155939400D01*
X93494510Y-155939400D02*
X93637367Y-156010828D01*
X93637367Y-156010828D02*
X93780224Y-156010828D01*
X94280224Y-156010828D02*
X94280224Y-154510828D01*
X94923082Y-156010828D02*
X94923082Y-155225114D01*
X94923082Y-155225114D02*
X94851653Y-155082257D01*
X94851653Y-155082257D02*
X94708796Y-155010828D01*
X94708796Y-155010828D02*
X94494510Y-155010828D01*
X94494510Y-155010828D02*
X94351653Y-155082257D01*
X94351653Y-155082257D02*
X94280224Y-155153685D01*
X72801653Y-154510828D02*
X73801653Y-154510828D01*
X73801653Y-154510828D02*
X73158796Y-156010828D01*
X74158796Y-155010828D02*
X74730224Y-155010828D01*
X74373081Y-154510828D02*
X74373081Y-155796542D01*
X74373081Y-155796542D02*
X74444510Y-155939400D01*
X74444510Y-155939400D02*
X74587367Y-156010828D01*
X74587367Y-156010828D02*
X74730224Y-156010828D01*
X75230224Y-156010828D02*
X75230224Y-154510828D01*
X75873082Y-156010828D02*
X75873082Y-155225114D01*
X75873082Y-155225114D02*
X75801653Y-155082257D01*
X75801653Y-155082257D02*
X75658796Y-155010828D01*
X75658796Y-155010828D02*
X75444510Y-155010828D01*
X75444510Y-155010828D02*
X75301653Y-155082257D01*
X75301653Y-155082257D02*
X75230224Y-155153685D01*
X53267368Y-154510828D02*
X52981653Y-154510828D01*
X52981653Y-154510828D02*
X52838796Y-154582257D01*
X52838796Y-154582257D02*
X52767368Y-154653685D01*
X52767368Y-154653685D02*
X52624510Y-154867971D01*
X52624510Y-154867971D02*
X52553082Y-155153685D01*
X52553082Y-155153685D02*
X52553082Y-155725114D01*
X52553082Y-155725114D02*
X52624510Y-155867971D01*
X52624510Y-155867971D02*
X52695939Y-155939400D01*
X52695939Y-155939400D02*
X52838796Y-156010828D01*
X52838796Y-156010828D02*
X53124510Y-156010828D01*
X53124510Y-156010828D02*
X53267368Y-155939400D01*
X53267368Y-155939400D02*
X53338796Y-155867971D01*
X53338796Y-155867971D02*
X53410225Y-155725114D01*
X53410225Y-155725114D02*
X53410225Y-155367971D01*
X53410225Y-155367971D02*
X53338796Y-155225114D01*
X53338796Y-155225114D02*
X53267368Y-155153685D01*
X53267368Y-155153685D02*
X53124510Y-155082257D01*
X53124510Y-155082257D02*
X52838796Y-155082257D01*
X52838796Y-155082257D02*
X52695939Y-155153685D01*
X52695939Y-155153685D02*
X52624510Y-155225114D01*
X52624510Y-155225114D02*
X52553082Y-155367971D01*
X53838796Y-155010828D02*
X54410224Y-155010828D01*
X54053081Y-154510828D02*
X54053081Y-155796542D01*
X54053081Y-155796542D02*
X54124510Y-155939400D01*
X54124510Y-155939400D02*
X54267367Y-156010828D01*
X54267367Y-156010828D02*
X54410224Y-156010828D01*
X54910224Y-156010828D02*
X54910224Y-154510828D01*
X55553082Y-156010828D02*
X55553082Y-155225114D01*
X55553082Y-155225114D02*
X55481653Y-155082257D01*
X55481653Y-155082257D02*
X55338796Y-155010828D01*
X55338796Y-155010828D02*
X55124510Y-155010828D01*
X55124510Y-155010828D02*
X54981653Y-155082257D01*
X54981653Y-155082257D02*
X54910224Y-155153685D01*
X30820225Y-154510828D02*
X31677368Y-154510828D01*
X31248796Y-156010828D02*
X31248796Y-154510828D01*
X33034510Y-156010828D02*
X32534510Y-155296542D01*
X32177367Y-156010828D02*
X32177367Y-154510828D01*
X32177367Y-154510828D02*
X32748796Y-154510828D01*
X32748796Y-154510828D02*
X32891653Y-154582257D01*
X32891653Y-154582257D02*
X32963082Y-154653685D01*
X32963082Y-154653685D02*
X33034510Y-154796542D01*
X33034510Y-154796542D02*
X33034510Y-155010828D01*
X33034510Y-155010828D02*
X32963082Y-155153685D01*
X32963082Y-155153685D02*
X32891653Y-155225114D01*
X32891653Y-155225114D02*
X32748796Y-155296542D01*
X32748796Y-155296542D02*
X32177367Y-155296542D01*
X33677367Y-156010828D02*
X33677367Y-154510828D01*
X91994510Y-130610828D02*
X91994510Y-129110828D01*
X91994510Y-129110828D02*
X92351653Y-129110828D01*
X92351653Y-129110828D02*
X92565939Y-129182257D01*
X92565939Y-129182257D02*
X92708796Y-129325114D01*
X92708796Y-129325114D02*
X92780225Y-129467971D01*
X92780225Y-129467971D02*
X92851653Y-129753685D01*
X92851653Y-129753685D02*
X92851653Y-129967971D01*
X92851653Y-129967971D02*
X92780225Y-130253685D01*
X92780225Y-130253685D02*
X92708796Y-130396542D01*
X92708796Y-130396542D02*
X92565939Y-130539400D01*
X92565939Y-130539400D02*
X92351653Y-130610828D01*
X92351653Y-130610828D02*
X91994510Y-130610828D01*
X93494510Y-130610828D02*
X93494510Y-129110828D01*
X94208796Y-130610828D02*
X94208796Y-129110828D01*
X94208796Y-129110828D02*
X94708796Y-130182257D01*
X94708796Y-130182257D02*
X95208796Y-129110828D01*
X95208796Y-129110828D02*
X95208796Y-130610828D01*
X71603082Y-130182257D02*
X72317368Y-130182257D01*
X71460225Y-130610828D02*
X71960225Y-129110828D01*
X71960225Y-129110828D02*
X72460225Y-130610828D01*
X72960224Y-129110828D02*
X72960224Y-130325114D01*
X72960224Y-130325114D02*
X73031653Y-130467971D01*
X73031653Y-130467971D02*
X73103082Y-130539400D01*
X73103082Y-130539400D02*
X73245939Y-130610828D01*
X73245939Y-130610828D02*
X73531653Y-130610828D01*
X73531653Y-130610828D02*
X73674510Y-130539400D01*
X73674510Y-130539400D02*
X73745939Y-130467971D01*
X73745939Y-130467971D02*
X73817367Y-130325114D01*
X73817367Y-130325114D02*
X73817367Y-129110828D01*
X75317368Y-129182257D02*
X75174511Y-129110828D01*
X75174511Y-129110828D02*
X74960225Y-129110828D01*
X74960225Y-129110828D02*
X74745939Y-129182257D01*
X74745939Y-129182257D02*
X74603082Y-129325114D01*
X74603082Y-129325114D02*
X74531653Y-129467971D01*
X74531653Y-129467971D02*
X74460225Y-129753685D01*
X74460225Y-129753685D02*
X74460225Y-129967971D01*
X74460225Y-129967971D02*
X74531653Y-130253685D01*
X74531653Y-130253685D02*
X74603082Y-130396542D01*
X74603082Y-130396542D02*
X74745939Y-130539400D01*
X74745939Y-130539400D02*
X74960225Y-130610828D01*
X74960225Y-130610828D02*
X75103082Y-130610828D01*
X75103082Y-130610828D02*
X75317368Y-130539400D01*
X75317368Y-130539400D02*
X75388796Y-130467971D01*
X75388796Y-130467971D02*
X75388796Y-129967971D01*
X75388796Y-129967971D02*
X75103082Y-129967971D01*
X51354510Y-130610828D02*
X51354510Y-129110828D01*
X51354510Y-129110828D02*
X51854510Y-130182257D01*
X51854510Y-130182257D02*
X52354510Y-129110828D01*
X52354510Y-129110828D02*
X52354510Y-130610828D01*
X53068796Y-130610828D02*
X53068796Y-129110828D01*
X53783082Y-130610828D02*
X53783082Y-129110828D01*
X53783082Y-129110828D02*
X54640225Y-130610828D01*
X54640225Y-130610828D02*
X54640225Y-129110828D01*
X31034510Y-130610828D02*
X31034510Y-129110828D01*
X31034510Y-129110828D02*
X31534510Y-130182257D01*
X31534510Y-130182257D02*
X32034510Y-129110828D01*
X32034510Y-129110828D02*
X32034510Y-130610828D01*
X32677368Y-130182257D02*
X33391654Y-130182257D01*
X32534511Y-130610828D02*
X33034511Y-129110828D01*
X33034511Y-129110828D02*
X33534511Y-130610828D01*
X34463082Y-129110828D02*
X34463082Y-130182257D01*
X34463082Y-130182257D02*
X34391653Y-130396542D01*
X34391653Y-130396542D02*
X34248796Y-130539400D01*
X34248796Y-130539400D02*
X34034510Y-130610828D01*
X34034510Y-130610828D02*
X33891653Y-130610828D01*
X155994510Y-106965114D02*
X156208796Y-107036542D01*
X156208796Y-107036542D02*
X156280225Y-107107971D01*
X156280225Y-107107971D02*
X156351653Y-107250828D01*
X156351653Y-107250828D02*
X156351653Y-107465114D01*
X156351653Y-107465114D02*
X156280225Y-107607971D01*
X156280225Y-107607971D02*
X156208796Y-107679400D01*
X156208796Y-107679400D02*
X156065939Y-107750828D01*
X156065939Y-107750828D02*
X155494510Y-107750828D01*
X155494510Y-107750828D02*
X155494510Y-106250828D01*
X155494510Y-106250828D02*
X155994510Y-106250828D01*
X155994510Y-106250828D02*
X156137368Y-106322257D01*
X156137368Y-106322257D02*
X156208796Y-106393685D01*
X156208796Y-106393685D02*
X156280225Y-106536542D01*
X156280225Y-106536542D02*
X156280225Y-106679400D01*
X156280225Y-106679400D02*
X156208796Y-106822257D01*
X156208796Y-106822257D02*
X156137368Y-106893685D01*
X156137368Y-106893685D02*
X155994510Y-106965114D01*
X155994510Y-106965114D02*
X155494510Y-106965114D01*
X135103082Y-107322257D02*
X135817368Y-107322257D01*
X134960225Y-107750828D02*
X135460225Y-106250828D01*
X135460225Y-106250828D02*
X135960225Y-107750828D01*
X115640225Y-106322257D02*
X115497368Y-106250828D01*
X115497368Y-106250828D02*
X115283082Y-106250828D01*
X115283082Y-106250828D02*
X115068796Y-106322257D01*
X115068796Y-106322257D02*
X114925939Y-106465114D01*
X114925939Y-106465114D02*
X114854510Y-106607971D01*
X114854510Y-106607971D02*
X114783082Y-106893685D01*
X114783082Y-106893685D02*
X114783082Y-107107971D01*
X114783082Y-107107971D02*
X114854510Y-107393685D01*
X114854510Y-107393685D02*
X114925939Y-107536542D01*
X114925939Y-107536542D02*
X115068796Y-107679400D01*
X115068796Y-107679400D02*
X115283082Y-107750828D01*
X115283082Y-107750828D02*
X115425939Y-107750828D01*
X115425939Y-107750828D02*
X115640225Y-107679400D01*
X115640225Y-107679400D02*
X115711653Y-107607971D01*
X115711653Y-107607971D02*
X115711653Y-107107971D01*
X115711653Y-107107971D02*
X115425939Y-107107971D01*
X95034510Y-106965114D02*
X94534510Y-106965114D01*
X94534510Y-107750828D02*
X94534510Y-106250828D01*
X94534510Y-106250828D02*
X95248796Y-106250828D01*
X74214510Y-106965114D02*
X74714510Y-106965114D01*
X74928796Y-107750828D02*
X74214510Y-107750828D01*
X74214510Y-107750828D02*
X74214510Y-106250828D01*
X74214510Y-106250828D02*
X74928796Y-106250828D01*
X53894510Y-107750828D02*
X53894510Y-106250828D01*
X53894510Y-106250828D02*
X54251653Y-106250828D01*
X54251653Y-106250828D02*
X54465939Y-106322257D01*
X54465939Y-106322257D02*
X54608796Y-106465114D01*
X54608796Y-106465114D02*
X54680225Y-106607971D01*
X54680225Y-106607971D02*
X54751653Y-106893685D01*
X54751653Y-106893685D02*
X54751653Y-107107971D01*
X54751653Y-107107971D02*
X54680225Y-107393685D01*
X54680225Y-107393685D02*
X54608796Y-107536542D01*
X54608796Y-107536542D02*
X54465939Y-107679400D01*
X54465939Y-107679400D02*
X54251653Y-107750828D01*
X54251653Y-107750828D02*
X53894510Y-107750828D01*
X33161653Y-107607971D02*
X33090225Y-107679400D01*
X33090225Y-107679400D02*
X32875939Y-107750828D01*
X32875939Y-107750828D02*
X32733082Y-107750828D01*
X32733082Y-107750828D02*
X32518796Y-107679400D01*
X32518796Y-107679400D02*
X32375939Y-107536542D01*
X32375939Y-107536542D02*
X32304510Y-107393685D01*
X32304510Y-107393685D02*
X32233082Y-107107971D01*
X32233082Y-107107971D02*
X32233082Y-106893685D01*
X32233082Y-106893685D02*
X32304510Y-106607971D01*
X32304510Y-106607971D02*
X32375939Y-106465114D01*
X32375939Y-106465114D02*
X32518796Y-106322257D01*
X32518796Y-106322257D02*
X32733082Y-106250828D01*
X32733082Y-106250828D02*
X32875939Y-106250828D01*
X32875939Y-106250828D02*
X33090225Y-106322257D01*
X33090225Y-106322257D02*
X33161653Y-106393685D01*
X144564510Y-89185114D02*
X144778796Y-89256542D01*
X144778796Y-89256542D02*
X144850225Y-89327971D01*
X144850225Y-89327971D02*
X144921653Y-89470828D01*
X144921653Y-89470828D02*
X144921653Y-89685114D01*
X144921653Y-89685114D02*
X144850225Y-89827971D01*
X144850225Y-89827971D02*
X144778796Y-89899400D01*
X144778796Y-89899400D02*
X144635939Y-89970828D01*
X144635939Y-89970828D02*
X144064510Y-89970828D01*
X144064510Y-89970828D02*
X144064510Y-88470828D01*
X144064510Y-88470828D02*
X144564510Y-88470828D01*
X144564510Y-88470828D02*
X144707368Y-88542257D01*
X144707368Y-88542257D02*
X144778796Y-88613685D01*
X144778796Y-88613685D02*
X144850225Y-88756542D01*
X144850225Y-88756542D02*
X144850225Y-88899400D01*
X144850225Y-88899400D02*
X144778796Y-89042257D01*
X144778796Y-89042257D02*
X144707368Y-89113685D01*
X144707368Y-89113685D02*
X144564510Y-89185114D01*
X144564510Y-89185114D02*
X144064510Y-89185114D01*
X145564510Y-89970828D02*
X145564510Y-88470828D01*
X145564510Y-89042257D02*
X145707368Y-88970828D01*
X145707368Y-88970828D02*
X145993082Y-88970828D01*
X145993082Y-88970828D02*
X146135939Y-89042257D01*
X146135939Y-89042257D02*
X146207368Y-89113685D01*
X146207368Y-89113685D02*
X146278796Y-89256542D01*
X146278796Y-89256542D02*
X146278796Y-89685114D01*
X146278796Y-89685114D02*
X146207368Y-89827971D01*
X146207368Y-89827971D02*
X146135939Y-89899400D01*
X146135939Y-89899400D02*
X145993082Y-89970828D01*
X145993082Y-89970828D02*
X145707368Y-89970828D01*
X145707368Y-89970828D02*
X145564510Y-89899400D01*
X123673082Y-89542257D02*
X124387368Y-89542257D01*
X123530225Y-89970828D02*
X124030225Y-88470828D01*
X124030225Y-88470828D02*
X124530225Y-89970828D01*
X125030224Y-89970828D02*
X125030224Y-88470828D01*
X125030224Y-89042257D02*
X125173082Y-88970828D01*
X125173082Y-88970828D02*
X125458796Y-88970828D01*
X125458796Y-88970828D02*
X125601653Y-89042257D01*
X125601653Y-89042257D02*
X125673082Y-89113685D01*
X125673082Y-89113685D02*
X125744510Y-89256542D01*
X125744510Y-89256542D02*
X125744510Y-89685114D01*
X125744510Y-89685114D02*
X125673082Y-89827971D01*
X125673082Y-89827971D02*
X125601653Y-89899400D01*
X125601653Y-89899400D02*
X125458796Y-89970828D01*
X125458796Y-89970828D02*
X125173082Y-89970828D01*
X125173082Y-89970828D02*
X125030224Y-89899400D01*
X104210225Y-88542257D02*
X104067368Y-88470828D01*
X104067368Y-88470828D02*
X103853082Y-88470828D01*
X103853082Y-88470828D02*
X103638796Y-88542257D01*
X103638796Y-88542257D02*
X103495939Y-88685114D01*
X103495939Y-88685114D02*
X103424510Y-88827971D01*
X103424510Y-88827971D02*
X103353082Y-89113685D01*
X103353082Y-89113685D02*
X103353082Y-89327971D01*
X103353082Y-89327971D02*
X103424510Y-89613685D01*
X103424510Y-89613685D02*
X103495939Y-89756542D01*
X103495939Y-89756542D02*
X103638796Y-89899400D01*
X103638796Y-89899400D02*
X103853082Y-89970828D01*
X103853082Y-89970828D02*
X103995939Y-89970828D01*
X103995939Y-89970828D02*
X104210225Y-89899400D01*
X104210225Y-89899400D02*
X104281653Y-89827971D01*
X104281653Y-89827971D02*
X104281653Y-89327971D01*
X104281653Y-89327971D02*
X103995939Y-89327971D01*
X104924510Y-89970828D02*
X104924510Y-88470828D01*
X104924510Y-89042257D02*
X105067368Y-88970828D01*
X105067368Y-88970828D02*
X105353082Y-88970828D01*
X105353082Y-88970828D02*
X105495939Y-89042257D01*
X105495939Y-89042257D02*
X105567368Y-89113685D01*
X105567368Y-89113685D02*
X105638796Y-89256542D01*
X105638796Y-89256542D02*
X105638796Y-89685114D01*
X105638796Y-89685114D02*
X105567368Y-89827971D01*
X105567368Y-89827971D02*
X105495939Y-89899400D01*
X105495939Y-89899400D02*
X105353082Y-89970828D01*
X105353082Y-89970828D02*
X105067368Y-89970828D01*
X105067368Y-89970828D02*
X104924510Y-89899400D01*
X62784510Y-89185114D02*
X63284510Y-89185114D01*
X63498796Y-89970828D02*
X62784510Y-89970828D01*
X62784510Y-89970828D02*
X62784510Y-88470828D01*
X62784510Y-88470828D02*
X63498796Y-88470828D01*
X64141653Y-89970828D02*
X64141653Y-88470828D01*
X64141653Y-89042257D02*
X64284511Y-88970828D01*
X64284511Y-88970828D02*
X64570225Y-88970828D01*
X64570225Y-88970828D02*
X64713082Y-89042257D01*
X64713082Y-89042257D02*
X64784511Y-89113685D01*
X64784511Y-89113685D02*
X64855939Y-89256542D01*
X64855939Y-89256542D02*
X64855939Y-89685114D01*
X64855939Y-89685114D02*
X64784511Y-89827971D01*
X64784511Y-89827971D02*
X64713082Y-89899400D01*
X64713082Y-89899400D02*
X64570225Y-89970828D01*
X64570225Y-89970828D02*
X64284511Y-89970828D01*
X64284511Y-89970828D02*
X64141653Y-89899400D01*
X42093854Y-89970828D02*
X42093854Y-88470828D01*
X42093854Y-88470828D02*
X42450997Y-88470828D01*
X42450997Y-88470828D02*
X42665283Y-88542257D01*
X42665283Y-88542257D02*
X42808140Y-88685114D01*
X42808140Y-88685114D02*
X42879569Y-88827971D01*
X42879569Y-88827971D02*
X42950997Y-89113685D01*
X42950997Y-89113685D02*
X42950997Y-89327971D01*
X42950997Y-89327971D02*
X42879569Y-89613685D01*
X42879569Y-89613685D02*
X42808140Y-89756542D01*
X42808140Y-89756542D02*
X42665283Y-89899400D01*
X42665283Y-89899400D02*
X42450997Y-89970828D01*
X42450997Y-89970828D02*
X42093854Y-89970828D01*
X43593854Y-89970828D02*
X43593854Y-88470828D01*
X43593854Y-89042257D02*
X43736712Y-88970828D01*
X43736712Y-88970828D02*
X44022426Y-88970828D01*
X44022426Y-88970828D02*
X44165283Y-89042257D01*
X44165283Y-89042257D02*
X44236712Y-89113685D01*
X44236712Y-89113685D02*
X44308140Y-89256542D01*
X44308140Y-89256542D02*
X44308140Y-89685114D01*
X44308140Y-89685114D02*
X44236712Y-89827971D01*
X44236712Y-89827971D02*
X44165283Y-89899400D01*
X44165283Y-89899400D02*
X44022426Y-89970828D01*
X44022426Y-89970828D02*
X43736712Y-89970828D01*
X43736712Y-89970828D02*
X43593854Y-89899400D01*
X153281368Y-60617971D02*
X153209940Y-60689400D01*
X153209940Y-60689400D02*
X152995654Y-60760828D01*
X152995654Y-60760828D02*
X152852797Y-60760828D01*
X152852797Y-60760828D02*
X152638511Y-60689400D01*
X152638511Y-60689400D02*
X152495654Y-60546542D01*
X152495654Y-60546542D02*
X152424225Y-60403685D01*
X152424225Y-60403685D02*
X152352797Y-60117971D01*
X152352797Y-60117971D02*
X152352797Y-59903685D01*
X152352797Y-59903685D02*
X152424225Y-59617971D01*
X152424225Y-59617971D02*
X152495654Y-59475114D01*
X152495654Y-59475114D02*
X152638511Y-59332257D01*
X152638511Y-59332257D02*
X152852797Y-59260828D01*
X152852797Y-59260828D02*
X152995654Y-59260828D01*
X152995654Y-59260828D02*
X153209940Y-59332257D01*
X153209940Y-59332257D02*
X153281368Y-59403685D01*
X153924225Y-60760828D02*
X153924225Y-59260828D01*
X154567083Y-60760828D02*
X154567083Y-59975114D01*
X154567083Y-59975114D02*
X154495654Y-59832257D01*
X154495654Y-59832257D02*
X154352797Y-59760828D01*
X154352797Y-59760828D02*
X154138511Y-59760828D01*
X154138511Y-59760828D02*
X153995654Y-59832257D01*
X153995654Y-59832257D02*
X153924225Y-59903685D01*
X155495654Y-60760828D02*
X155352797Y-60689400D01*
X155352797Y-60689400D02*
X155281368Y-60617971D01*
X155281368Y-60617971D02*
X155209940Y-60475114D01*
X155209940Y-60475114D02*
X155209940Y-60046542D01*
X155209940Y-60046542D02*
X155281368Y-59903685D01*
X155281368Y-59903685D02*
X155352797Y-59832257D01*
X155352797Y-59832257D02*
X155495654Y-59760828D01*
X155495654Y-59760828D02*
X155709940Y-59760828D01*
X155709940Y-59760828D02*
X155852797Y-59832257D01*
X155852797Y-59832257D02*
X155924226Y-59903685D01*
X155924226Y-59903685D02*
X155995654Y-60046542D01*
X155995654Y-60046542D02*
X155995654Y-60475114D01*
X155995654Y-60475114D02*
X155924226Y-60617971D01*
X155924226Y-60617971D02*
X155852797Y-60689400D01*
X155852797Y-60689400D02*
X155709940Y-60760828D01*
X155709940Y-60760828D02*
X155495654Y-60760828D01*
X156638511Y-60760828D02*
X156638511Y-59760828D01*
X156638511Y-60046542D02*
X156709940Y-59903685D01*
X156709940Y-59903685D02*
X156781369Y-59832257D01*
X156781369Y-59832257D02*
X156924226Y-59760828D01*
X156924226Y-59760828D02*
X157067083Y-59760828D01*
X158209940Y-60760828D02*
X158209940Y-59260828D01*
X158209940Y-60689400D02*
X158067082Y-60760828D01*
X158067082Y-60760828D02*
X157781368Y-60760828D01*
X157781368Y-60760828D02*
X157638511Y-60689400D01*
X157638511Y-60689400D02*
X157567082Y-60617971D01*
X157567082Y-60617971D02*
X157495654Y-60475114D01*
X157495654Y-60475114D02*
X157495654Y-60046542D01*
X157495654Y-60046542D02*
X157567082Y-59903685D01*
X157567082Y-59903685D02*
X157638511Y-59832257D01*
X157638511Y-59832257D02*
X157781368Y-59760828D01*
X157781368Y-59760828D02*
X158067082Y-59760828D01*
X158067082Y-59760828D02*
X158209940Y-59832257D01*
X159852797Y-59260828D02*
X160352797Y-60760828D01*
X160352797Y-60760828D02*
X160852797Y-59260828D01*
X161567082Y-60760828D02*
X161424225Y-60689400D01*
X161424225Y-60689400D02*
X161352796Y-60617971D01*
X161352796Y-60617971D02*
X161281368Y-60475114D01*
X161281368Y-60475114D02*
X161281368Y-60046542D01*
X161281368Y-60046542D02*
X161352796Y-59903685D01*
X161352796Y-59903685D02*
X161424225Y-59832257D01*
X161424225Y-59832257D02*
X161567082Y-59760828D01*
X161567082Y-59760828D02*
X161781368Y-59760828D01*
X161781368Y-59760828D02*
X161924225Y-59832257D01*
X161924225Y-59832257D02*
X161995654Y-59903685D01*
X161995654Y-59903685D02*
X162067082Y-60046542D01*
X162067082Y-60046542D02*
X162067082Y-60475114D01*
X162067082Y-60475114D02*
X161995654Y-60617971D01*
X161995654Y-60617971D02*
X161924225Y-60689400D01*
X161924225Y-60689400D02*
X161781368Y-60760828D01*
X161781368Y-60760828D02*
X161567082Y-60760828D01*
X162924225Y-60760828D02*
X162781368Y-60689400D01*
X162781368Y-60689400D02*
X162709939Y-60546542D01*
X162709939Y-60546542D02*
X162709939Y-59260828D01*
X127030611Y-60760828D02*
X127030611Y-59260828D01*
X127030611Y-59260828D02*
X127387754Y-59260828D01*
X127387754Y-59260828D02*
X127602040Y-59332257D01*
X127602040Y-59332257D02*
X127744897Y-59475114D01*
X127744897Y-59475114D02*
X127816326Y-59617971D01*
X127816326Y-59617971D02*
X127887754Y-59903685D01*
X127887754Y-59903685D02*
X127887754Y-60117971D01*
X127887754Y-60117971D02*
X127816326Y-60403685D01*
X127816326Y-60403685D02*
X127744897Y-60546542D01*
X127744897Y-60546542D02*
X127602040Y-60689400D01*
X127602040Y-60689400D02*
X127387754Y-60760828D01*
X127387754Y-60760828D02*
X127030611Y-60760828D01*
X128530611Y-60760828D02*
X128530611Y-59760828D01*
X128530611Y-60046542D02*
X128602040Y-59903685D01*
X128602040Y-59903685D02*
X128673469Y-59832257D01*
X128673469Y-59832257D02*
X128816326Y-59760828D01*
X128816326Y-59760828D02*
X128959183Y-59760828D01*
X130102040Y-59760828D02*
X130102040Y-60760828D01*
X129459182Y-59760828D02*
X129459182Y-60546542D01*
X129459182Y-60546542D02*
X129530611Y-60689400D01*
X129530611Y-60689400D02*
X129673468Y-60760828D01*
X129673468Y-60760828D02*
X129887754Y-60760828D01*
X129887754Y-60760828D02*
X130030611Y-60689400D01*
X130030611Y-60689400D02*
X130102040Y-60617971D01*
X130816325Y-60760828D02*
X130816325Y-59760828D01*
X130816325Y-59903685D02*
X130887754Y-59832257D01*
X130887754Y-59832257D02*
X131030611Y-59760828D01*
X131030611Y-59760828D02*
X131244897Y-59760828D01*
X131244897Y-59760828D02*
X131387754Y-59832257D01*
X131387754Y-59832257D02*
X131459183Y-59975114D01*
X131459183Y-59975114D02*
X131459183Y-60760828D01*
X131459183Y-59975114D02*
X131530611Y-59832257D01*
X131530611Y-59832257D02*
X131673468Y-59760828D01*
X131673468Y-59760828D02*
X131887754Y-59760828D01*
X131887754Y-59760828D02*
X132030611Y-59832257D01*
X132030611Y-59832257D02*
X132102040Y-59975114D01*
X132102040Y-59975114D02*
X132102040Y-60760828D01*
X132744897Y-60689400D02*
X132887754Y-60760828D01*
X132887754Y-60760828D02*
X133173468Y-60760828D01*
X133173468Y-60760828D02*
X133316325Y-60689400D01*
X133316325Y-60689400D02*
X133387754Y-60546542D01*
X133387754Y-60546542D02*
X133387754Y-60475114D01*
X133387754Y-60475114D02*
X133316325Y-60332257D01*
X133316325Y-60332257D02*
X133173468Y-60260828D01*
X133173468Y-60260828D02*
X132959183Y-60260828D01*
X132959183Y-60260828D02*
X132816325Y-60189400D01*
X132816325Y-60189400D02*
X132744897Y-60046542D01*
X132744897Y-60046542D02*
X132744897Y-59975114D01*
X132744897Y-59975114D02*
X132816325Y-59832257D01*
X132816325Y-59832257D02*
X132959183Y-59760828D01*
X132959183Y-59760828D02*
X133173468Y-59760828D01*
X133173468Y-59760828D02*
X133316325Y-59832257D01*
X134959183Y-59260828D02*
X135459183Y-60760828D01*
X135459183Y-60760828D02*
X135959183Y-59260828D01*
X136673468Y-60760828D02*
X136530611Y-60689400D01*
X136530611Y-60689400D02*
X136459182Y-60617971D01*
X136459182Y-60617971D02*
X136387754Y-60475114D01*
X136387754Y-60475114D02*
X136387754Y-60046542D01*
X136387754Y-60046542D02*
X136459182Y-59903685D01*
X136459182Y-59903685D02*
X136530611Y-59832257D01*
X136530611Y-59832257D02*
X136673468Y-59760828D01*
X136673468Y-59760828D02*
X136887754Y-59760828D01*
X136887754Y-59760828D02*
X137030611Y-59832257D01*
X137030611Y-59832257D02*
X137102040Y-59903685D01*
X137102040Y-59903685D02*
X137173468Y-60046542D01*
X137173468Y-60046542D02*
X137173468Y-60475114D01*
X137173468Y-60475114D02*
X137102040Y-60617971D01*
X137102040Y-60617971D02*
X137030611Y-60689400D01*
X137030611Y-60689400D02*
X136887754Y-60760828D01*
X136887754Y-60760828D02*
X136673468Y-60760828D01*
X138030611Y-60760828D02*
X137887754Y-60689400D01*
X137887754Y-60689400D02*
X137816325Y-60546542D01*
X137816325Y-60546542D02*
X137816325Y-59260828D01*
X105078941Y-60269946D02*
X105293227Y-60341374D01*
X105293227Y-60341374D02*
X105364656Y-60412803D01*
X105364656Y-60412803D02*
X105436084Y-60555660D01*
X105436084Y-60555660D02*
X105436084Y-60769946D01*
X105436084Y-60769946D02*
X105364656Y-60912803D01*
X105364656Y-60912803D02*
X105293227Y-60984232D01*
X105293227Y-60984232D02*
X105150370Y-61055660D01*
X105150370Y-61055660D02*
X104578941Y-61055660D01*
X104578941Y-61055660D02*
X104578941Y-59555660D01*
X104578941Y-59555660D02*
X105078941Y-59555660D01*
X105078941Y-59555660D02*
X105221799Y-59627089D01*
X105221799Y-59627089D02*
X105293227Y-59698517D01*
X105293227Y-59698517D02*
X105364656Y-59841374D01*
X105364656Y-59841374D02*
X105364656Y-59984232D01*
X105364656Y-59984232D02*
X105293227Y-60127089D01*
X105293227Y-60127089D02*
X105221799Y-60198517D01*
X105221799Y-60198517D02*
X105078941Y-60269946D01*
X105078941Y-60269946D02*
X104578941Y-60269946D01*
X106078941Y-61055660D02*
X106078941Y-59555660D01*
X106078941Y-59555660D02*
X106650370Y-59555660D01*
X106650370Y-59555660D02*
X106793227Y-59627089D01*
X106793227Y-59627089D02*
X106864656Y-59698517D01*
X106864656Y-59698517D02*
X106936084Y-59841374D01*
X106936084Y-59841374D02*
X106936084Y-60055660D01*
X106936084Y-60055660D02*
X106864656Y-60198517D01*
X106864656Y-60198517D02*
X106793227Y-60269946D01*
X106793227Y-60269946D02*
X106650370Y-60341374D01*
X106650370Y-60341374D02*
X106078941Y-60341374D01*
X107578941Y-61055660D02*
X107578941Y-59555660D01*
X107578941Y-59555660D02*
X108078941Y-60627089D01*
X108078941Y-60627089D02*
X108578941Y-59555660D01*
X108578941Y-59555660D02*
X108578941Y-61055660D01*
D12*
X200460000Y-27400000D02*
X222060000Y-27400000D01*
X222060000Y-129000000D01*
X200460000Y-129000000D01*
X200460000Y-27400000D01*
D13*
X30859104Y-38274285D02*
X30859104Y-37798095D01*
X31144819Y-38369523D02*
X30144819Y-38036190D01*
X30144819Y-38036190D02*
X31144819Y-37702857D01*
X31144819Y-36845714D02*
X31144819Y-37417142D01*
X31144819Y-37131428D02*
X30144819Y-37131428D01*
X30144819Y-37131428D02*
X30287676Y-37226666D01*
X30287676Y-37226666D02*
X30382914Y-37321904D01*
X30382914Y-37321904D02*
X30430533Y-37417142D01*
D14*
X180080507Y-94613941D02*
X181160007Y-94613941D01*
X181160007Y-94613941D02*
X181160007Y-95025179D01*
X181160007Y-95025179D02*
X181108602Y-95127989D01*
X181108602Y-95127989D02*
X181057197Y-95179394D01*
X181057197Y-95179394D02*
X180954388Y-95230798D01*
X180954388Y-95230798D02*
X180800173Y-95230798D01*
X180800173Y-95230798D02*
X180697364Y-95179394D01*
X180697364Y-95179394D02*
X180645959Y-95127989D01*
X180645959Y-95127989D02*
X180594554Y-95025179D01*
X180594554Y-95025179D02*
X180594554Y-94613941D01*
X180388935Y-95642037D02*
X180388935Y-96156084D01*
X180080507Y-95539227D02*
X181160007Y-95899060D01*
X181160007Y-95899060D02*
X180080507Y-96258894D01*
X180080507Y-96618727D02*
X181160007Y-96618727D01*
X181160007Y-96618727D02*
X180388935Y-96978561D01*
X180388935Y-96978561D02*
X181160007Y-97338394D01*
X181160007Y-97338394D02*
X180080507Y-97338394D01*
X180697364Y-98006656D02*
X180748769Y-97903846D01*
X180748769Y-97903846D02*
X180800173Y-97852441D01*
X180800173Y-97852441D02*
X180902983Y-97801037D01*
X180902983Y-97801037D02*
X180954388Y-97801037D01*
X180954388Y-97801037D02*
X181057197Y-97852441D01*
X181057197Y-97852441D02*
X181108602Y-97903846D01*
X181108602Y-97903846D02*
X181160007Y-98006656D01*
X181160007Y-98006656D02*
X181160007Y-98212275D01*
X181160007Y-98212275D02*
X181108602Y-98315084D01*
X181108602Y-98315084D02*
X181057197Y-98366489D01*
X181057197Y-98366489D02*
X180954388Y-98417894D01*
X180954388Y-98417894D02*
X180902983Y-98417894D01*
X180902983Y-98417894D02*
X180800173Y-98366489D01*
X180800173Y-98366489D02*
X180748769Y-98315084D01*
X180748769Y-98315084D02*
X180697364Y-98212275D01*
X180697364Y-98212275D02*
X180697364Y-98006656D01*
X180697364Y-98006656D02*
X180645959Y-97903846D01*
X180645959Y-97903846D02*
X180594554Y-97852441D01*
X180594554Y-97852441D02*
X180491745Y-97801037D01*
X180491745Y-97801037D02*
X180286126Y-97801037D01*
X180286126Y-97801037D02*
X180183316Y-97852441D01*
X180183316Y-97852441D02*
X180131912Y-97903846D01*
X180131912Y-97903846D02*
X180080507Y-98006656D01*
X180080507Y-98006656D02*
X180080507Y-98212275D01*
X180080507Y-98212275D02*
X180131912Y-98315084D01*
X180131912Y-98315084D02*
X180183316Y-98366489D01*
X180183316Y-98366489D02*
X180286126Y-98417894D01*
X180286126Y-98417894D02*
X180491745Y-98417894D01*
X180491745Y-98417894D02*
X180594554Y-98366489D01*
X180594554Y-98366489D02*
X180645959Y-98315084D01*
X180645959Y-98315084D02*
X180697364Y-98212275D01*
X181160007Y-98777727D02*
X181160007Y-99445989D01*
X181160007Y-99445989D02*
X180748769Y-99086155D01*
X180748769Y-99086155D02*
X180748769Y-99240370D01*
X180748769Y-99240370D02*
X180697364Y-99343179D01*
X180697364Y-99343179D02*
X180645959Y-99394584D01*
X180645959Y-99394584D02*
X180543150Y-99445989D01*
X180543150Y-99445989D02*
X180286126Y-99445989D01*
X180286126Y-99445989D02*
X180183316Y-99394584D01*
X180183316Y-99394584D02*
X180131912Y-99343179D01*
X180131912Y-99343179D02*
X180080507Y-99240370D01*
X180080507Y-99240370D02*
X180080507Y-98931941D01*
X180080507Y-98931941D02*
X180131912Y-98829132D01*
X180131912Y-98829132D02*
X180183316Y-98777727D01*
X181160007Y-100114250D02*
X181160007Y-100217060D01*
X181160007Y-100217060D02*
X181108602Y-100319869D01*
X181108602Y-100319869D02*
X181057197Y-100371274D01*
X181057197Y-100371274D02*
X180954388Y-100422679D01*
X180954388Y-100422679D02*
X180748769Y-100474084D01*
X180748769Y-100474084D02*
X180491745Y-100474084D01*
X180491745Y-100474084D02*
X180286126Y-100422679D01*
X180286126Y-100422679D02*
X180183316Y-100371274D01*
X180183316Y-100371274D02*
X180131912Y-100319869D01*
X180131912Y-100319869D02*
X180080507Y-100217060D01*
X180080507Y-100217060D02*
X180080507Y-100114250D01*
X180080507Y-100114250D02*
X180131912Y-100011441D01*
X180131912Y-100011441D02*
X180183316Y-99960036D01*
X180183316Y-99960036D02*
X180286126Y-99908631D01*
X180286126Y-99908631D02*
X180491745Y-99857227D01*
X180491745Y-99857227D02*
X180748769Y-99857227D01*
X180748769Y-99857227D02*
X180954388Y-99908631D01*
X180954388Y-99908631D02*
X181057197Y-99960036D01*
X181057197Y-99960036D02*
X181108602Y-100011441D01*
X181108602Y-100011441D02*
X181160007Y-100114250D01*
X181057197Y-100885322D02*
X181108602Y-100936726D01*
X181108602Y-100936726D02*
X181160007Y-101039536D01*
X181160007Y-101039536D02*
X181160007Y-101296560D01*
X181160007Y-101296560D02*
X181108602Y-101399369D01*
X181108602Y-101399369D02*
X181057197Y-101450774D01*
X181057197Y-101450774D02*
X180954388Y-101502179D01*
X180954388Y-101502179D02*
X180851578Y-101502179D01*
X180851578Y-101502179D02*
X180697364Y-101450774D01*
X180697364Y-101450774D02*
X180080507Y-100833917D01*
X180080507Y-100833917D02*
X180080507Y-101502179D01*
X180388935Y-101913417D02*
X180388935Y-102427464D01*
X180080507Y-101810607D02*
X181160007Y-102170440D01*
X181160007Y-102170440D02*
X180080507Y-102530274D01*
D12*
X172697579Y-102656028D02*
X171697579Y-102989361D01*
X171697579Y-102989361D02*
X172697579Y-103322694D01*
X172697579Y-103846504D02*
X172697579Y-104036980D01*
X172697579Y-104036980D02*
X172649960Y-104132218D01*
X172649960Y-104132218D02*
X172554722Y-104227456D01*
X172554722Y-104227456D02*
X172364246Y-104275075D01*
X172364246Y-104275075D02*
X172030913Y-104275075D01*
X172030913Y-104275075D02*
X171840437Y-104227456D01*
X171840437Y-104227456D02*
X171745199Y-104132218D01*
X171745199Y-104132218D02*
X171697579Y-104036980D01*
X171697579Y-104036980D02*
X171697579Y-103846504D01*
X171697579Y-103846504D02*
X171745199Y-103751266D01*
X171745199Y-103751266D02*
X171840437Y-103656028D01*
X171840437Y-103656028D02*
X172030913Y-103608409D01*
X172030913Y-103608409D02*
X172364246Y-103608409D01*
X172364246Y-103608409D02*
X172554722Y-103656028D01*
X172554722Y-103656028D02*
X172649960Y-103751266D01*
X172649960Y-103751266D02*
X172697579Y-103846504D01*
X172078532Y-104703647D02*
X172078532Y-105465552D01*
X179483294Y-91251266D02*
X179483294Y-91727456D01*
X179197579Y-91156028D02*
X180197579Y-91489361D01*
X180197579Y-91489361D02*
X179197579Y-91822694D01*
X179578532Y-92156028D02*
X179578532Y-92917933D01*
X179197579Y-92536980D02*
X179959484Y-92536980D01*
X169649960Y-91822694D02*
X169697579Y-91727456D01*
X169697579Y-91727456D02*
X169697579Y-91584599D01*
X169697579Y-91584599D02*
X169649960Y-91441742D01*
X169649960Y-91441742D02*
X169554722Y-91346504D01*
X169554722Y-91346504D02*
X169459484Y-91298885D01*
X169459484Y-91298885D02*
X169269008Y-91251266D01*
X169269008Y-91251266D02*
X169126151Y-91251266D01*
X169126151Y-91251266D02*
X168935675Y-91298885D01*
X168935675Y-91298885D02*
X168840437Y-91346504D01*
X168840437Y-91346504D02*
X168745199Y-91441742D01*
X168745199Y-91441742D02*
X168697579Y-91584599D01*
X168697579Y-91584599D02*
X168697579Y-91679837D01*
X168697579Y-91679837D02*
X168745199Y-91822694D01*
X168745199Y-91822694D02*
X168792818Y-91870313D01*
X168792818Y-91870313D02*
X169126151Y-91870313D01*
X169126151Y-91870313D02*
X169126151Y-91679837D01*
X168697579Y-92298885D02*
X169697579Y-92298885D01*
X169697579Y-92298885D02*
X168697579Y-92870313D01*
X168697579Y-92870313D02*
X169697579Y-92870313D01*
X168697579Y-93346504D02*
X169697579Y-93346504D01*
X169697579Y-93346504D02*
X169697579Y-93584599D01*
X169697579Y-93584599D02*
X169649960Y-93727456D01*
X169649960Y-93727456D02*
X169554722Y-93822694D01*
X169554722Y-93822694D02*
X169459484Y-93870313D01*
X169459484Y-93870313D02*
X169269008Y-93917932D01*
X169269008Y-93917932D02*
X169126151Y-93917932D01*
X169126151Y-93917932D02*
X168935675Y-93870313D01*
X168935675Y-93870313D02*
X168840437Y-93822694D01*
X168840437Y-93822694D02*
X168745199Y-93727456D01*
X168745199Y-93727456D02*
X168697579Y-93584599D01*
X168697579Y-93584599D02*
X168697579Y-93346504D01*
X172197579Y-91156028D02*
X171197579Y-91489361D01*
X171197579Y-91489361D02*
X172197579Y-91822694D01*
X171245199Y-92584599D02*
X171197579Y-92489361D01*
X171197579Y-92489361D02*
X171197579Y-92298885D01*
X171197579Y-92298885D02*
X171245199Y-92203647D01*
X171245199Y-92203647D02*
X171292818Y-92156028D01*
X171292818Y-92156028D02*
X171388056Y-92108409D01*
X171388056Y-92108409D02*
X171673770Y-92108409D01*
X171673770Y-92108409D02*
X171769008Y-92156028D01*
X171769008Y-92156028D02*
X171816627Y-92203647D01*
X171816627Y-92203647D02*
X171864246Y-92298885D01*
X171864246Y-92298885D02*
X171864246Y-92489361D01*
X171864246Y-92489361D02*
X171816627Y-92584599D01*
X171245199Y-93441742D02*
X171197579Y-93346504D01*
X171197579Y-93346504D02*
X171197579Y-93156028D01*
X171197579Y-93156028D02*
X171245199Y-93060790D01*
X171245199Y-93060790D02*
X171292818Y-93013171D01*
X171292818Y-93013171D02*
X171388056Y-92965552D01*
X171388056Y-92965552D02*
X171673770Y-92965552D01*
X171673770Y-92965552D02*
X171769008Y-93013171D01*
X171769008Y-93013171D02*
X171816627Y-93060790D01*
X171816627Y-93060790D02*
X171864246Y-93156028D01*
X171864246Y-93156028D02*
X171864246Y-93346504D01*
X171864246Y-93346504D02*
X171816627Y-93441742D01*
X176197579Y-102656028D02*
X175197579Y-102989361D01*
X175197579Y-102989361D02*
X176197579Y-103322694D01*
X176197579Y-103846504D02*
X176197579Y-104036980D01*
X176197579Y-104036980D02*
X176149960Y-104132218D01*
X176149960Y-104132218D02*
X176054722Y-104227456D01*
X176054722Y-104227456D02*
X175864246Y-104275075D01*
X175864246Y-104275075D02*
X175530913Y-104275075D01*
X175530913Y-104275075D02*
X175340437Y-104227456D01*
X175340437Y-104227456D02*
X175245199Y-104132218D01*
X175245199Y-104132218D02*
X175197579Y-104036980D01*
X175197579Y-104036980D02*
X175197579Y-103846504D01*
X175197579Y-103846504D02*
X175245199Y-103751266D01*
X175245199Y-103751266D02*
X175340437Y-103656028D01*
X175340437Y-103656028D02*
X175530913Y-103608409D01*
X175530913Y-103608409D02*
X175864246Y-103608409D01*
X175864246Y-103608409D02*
X176054722Y-103656028D01*
X176054722Y-103656028D02*
X176149960Y-103751266D01*
X176149960Y-103751266D02*
X176197579Y-103846504D01*
X175578532Y-104703647D02*
X175578532Y-105465552D01*
X175197579Y-105084599D02*
X175959484Y-105084599D01*
X176483294Y-91251266D02*
X176483294Y-91727456D01*
X176197579Y-91156028D02*
X177197579Y-91489361D01*
X177197579Y-91489361D02*
X176197579Y-91822694D01*
X176578532Y-92156028D02*
X176578532Y-92917933D01*
X173745199Y-91251266D02*
X173697579Y-91394123D01*
X173697579Y-91394123D02*
X173697579Y-91632218D01*
X173697579Y-91632218D02*
X173745199Y-91727456D01*
X173745199Y-91727456D02*
X173792818Y-91775075D01*
X173792818Y-91775075D02*
X173888056Y-91822694D01*
X173888056Y-91822694D02*
X173983294Y-91822694D01*
X173983294Y-91822694D02*
X174078532Y-91775075D01*
X174078532Y-91775075D02*
X174126151Y-91727456D01*
X174126151Y-91727456D02*
X174173770Y-91632218D01*
X174173770Y-91632218D02*
X174221389Y-91441742D01*
X174221389Y-91441742D02*
X174269008Y-91346504D01*
X174269008Y-91346504D02*
X174316627Y-91298885D01*
X174316627Y-91298885D02*
X174411865Y-91251266D01*
X174411865Y-91251266D02*
X174507103Y-91251266D01*
X174507103Y-91251266D02*
X174602341Y-91298885D01*
X174602341Y-91298885D02*
X174649960Y-91346504D01*
X174649960Y-91346504D02*
X174697579Y-91441742D01*
X174697579Y-91441742D02*
X174697579Y-91679837D01*
X174697579Y-91679837D02*
X174649960Y-91822694D01*
X173697579Y-92251266D02*
X174697579Y-92251266D01*
X174697579Y-92251266D02*
X174697579Y-92489361D01*
X174697579Y-92489361D02*
X174649960Y-92632218D01*
X174649960Y-92632218D02*
X174554722Y-92727456D01*
X174554722Y-92727456D02*
X174459484Y-92775075D01*
X174459484Y-92775075D02*
X174269008Y-92822694D01*
X174269008Y-92822694D02*
X174126151Y-92822694D01*
X174126151Y-92822694D02*
X173935675Y-92775075D01*
X173935675Y-92775075D02*
X173840437Y-92727456D01*
X173840437Y-92727456D02*
X173745199Y-92632218D01*
X173745199Y-92632218D02*
X173697579Y-92489361D01*
X173697579Y-92489361D02*
X173697579Y-92251266D01*
D13*
X89259580Y-37496190D02*
X89307200Y-37543809D01*
X89307200Y-37543809D02*
X89354819Y-37686666D01*
X89354819Y-37686666D02*
X89354819Y-37781904D01*
X89354819Y-37781904D02*
X89307200Y-37924761D01*
X89307200Y-37924761D02*
X89211961Y-38019999D01*
X89211961Y-38019999D02*
X89116723Y-38067618D01*
X89116723Y-38067618D02*
X88926247Y-38115237D01*
X88926247Y-38115237D02*
X88783390Y-38115237D01*
X88783390Y-38115237D02*
X88592914Y-38067618D01*
X88592914Y-38067618D02*
X88497676Y-38019999D01*
X88497676Y-38019999D02*
X88402438Y-37924761D01*
X88402438Y-37924761D02*
X88354819Y-37781904D01*
X88354819Y-37781904D02*
X88354819Y-37686666D01*
X88354819Y-37686666D02*
X88402438Y-37543809D01*
X88402438Y-37543809D02*
X88450057Y-37496190D01*
X89450057Y-37305714D02*
X89450057Y-36543809D01*
X88831009Y-35972380D02*
X88878628Y-35829523D01*
X88878628Y-35829523D02*
X88926247Y-35781904D01*
X88926247Y-35781904D02*
X89021485Y-35734285D01*
X89021485Y-35734285D02*
X89164342Y-35734285D01*
X89164342Y-35734285D02*
X89259580Y-35781904D01*
X89259580Y-35781904D02*
X89307200Y-35829523D01*
X89307200Y-35829523D02*
X89354819Y-35924761D01*
X89354819Y-35924761D02*
X89354819Y-36305713D01*
X89354819Y-36305713D02*
X88354819Y-36305713D01*
X88354819Y-36305713D02*
X88354819Y-35972380D01*
X88354819Y-35972380D02*
X88402438Y-35877142D01*
X88402438Y-35877142D02*
X88450057Y-35829523D01*
X88450057Y-35829523D02*
X88545295Y-35781904D01*
X88545295Y-35781904D02*
X88640533Y-35781904D01*
X88640533Y-35781904D02*
X88735771Y-35829523D01*
X88735771Y-35829523D02*
X88783390Y-35877142D01*
X88783390Y-35877142D02*
X88831009Y-35972380D01*
X88831009Y-35972380D02*
X88831009Y-36305713D01*
X88354819Y-35305713D02*
X89164342Y-35305713D01*
X89164342Y-35305713D02*
X89259580Y-35258094D01*
X89259580Y-35258094D02*
X89307200Y-35210475D01*
X89307200Y-35210475D02*
X89354819Y-35115237D01*
X89354819Y-35115237D02*
X89354819Y-34924761D01*
X89354819Y-34924761D02*
X89307200Y-34829523D01*
X89307200Y-34829523D02*
X89259580Y-34781904D01*
X89259580Y-34781904D02*
X89164342Y-34734285D01*
X89164342Y-34734285D02*
X88354819Y-34734285D01*
X89354819Y-33781904D02*
X89354819Y-34258094D01*
X89354819Y-34258094D02*
X88354819Y-34258094D01*
X89354819Y-33448570D02*
X88354819Y-33448570D01*
X89354819Y-32877142D02*
X88783390Y-33305713D01*
X88354819Y-32877142D02*
X88926247Y-33448570D01*
X89354819Y-31924761D02*
X89354819Y-32496189D01*
X89354819Y-32210475D02*
X88354819Y-32210475D01*
X88354819Y-32210475D02*
X88497676Y-32305713D01*
X88497676Y-32305713D02*
X88592914Y-32400951D01*
X88592914Y-32400951D02*
X88640533Y-32496189D01*
X174444819Y-84589047D02*
X173444819Y-84589047D01*
X173444819Y-84589047D02*
X173444819Y-84350952D01*
X173444819Y-84350952D02*
X173492438Y-84208095D01*
X173492438Y-84208095D02*
X173587676Y-84112857D01*
X173587676Y-84112857D02*
X173682914Y-84065238D01*
X173682914Y-84065238D02*
X173873390Y-84017619D01*
X173873390Y-84017619D02*
X174016247Y-84017619D01*
X174016247Y-84017619D02*
X174206723Y-84065238D01*
X174206723Y-84065238D02*
X174301961Y-84112857D01*
X174301961Y-84112857D02*
X174397200Y-84208095D01*
X174397200Y-84208095D02*
X174444819Y-84350952D01*
X174444819Y-84350952D02*
X174444819Y-84589047D01*
X173921009Y-83589047D02*
X173921009Y-83255714D01*
X174444819Y-83112857D02*
X174444819Y-83589047D01*
X174444819Y-83589047D02*
X173444819Y-83589047D01*
X173444819Y-83589047D02*
X173444819Y-83112857D01*
X174349580Y-82112857D02*
X174397200Y-82160476D01*
X174397200Y-82160476D02*
X174444819Y-82303333D01*
X174444819Y-82303333D02*
X174444819Y-82398571D01*
X174444819Y-82398571D02*
X174397200Y-82541428D01*
X174397200Y-82541428D02*
X174301961Y-82636666D01*
X174301961Y-82636666D02*
X174206723Y-82684285D01*
X174206723Y-82684285D02*
X174016247Y-82731904D01*
X174016247Y-82731904D02*
X173873390Y-82731904D01*
X173873390Y-82731904D02*
X173682914Y-82684285D01*
X173682914Y-82684285D02*
X173587676Y-82636666D01*
X173587676Y-82636666D02*
X173492438Y-82541428D01*
X173492438Y-82541428D02*
X173444819Y-82398571D01*
X173444819Y-82398571D02*
X173444819Y-82303333D01*
X173444819Y-82303333D02*
X173492438Y-82160476D01*
X173492438Y-82160476D02*
X173540057Y-82112857D01*
X173444819Y-81493809D02*
X173444819Y-81303333D01*
X173444819Y-81303333D02*
X173492438Y-81208095D01*
X173492438Y-81208095D02*
X173587676Y-81112857D01*
X173587676Y-81112857D02*
X173778152Y-81065238D01*
X173778152Y-81065238D02*
X174111485Y-81065238D01*
X174111485Y-81065238D02*
X174301961Y-81112857D01*
X174301961Y-81112857D02*
X174397200Y-81208095D01*
X174397200Y-81208095D02*
X174444819Y-81303333D01*
X174444819Y-81303333D02*
X174444819Y-81493809D01*
X174444819Y-81493809D02*
X174397200Y-81589047D01*
X174397200Y-81589047D02*
X174301961Y-81684285D01*
X174301961Y-81684285D02*
X174111485Y-81731904D01*
X174111485Y-81731904D02*
X173778152Y-81731904D01*
X173778152Y-81731904D02*
X173587676Y-81684285D01*
X173587676Y-81684285D02*
X173492438Y-81589047D01*
X173492438Y-81589047D02*
X173444819Y-81493809D01*
X173444819Y-80636666D02*
X174254342Y-80636666D01*
X174254342Y-80636666D02*
X174349580Y-80589047D01*
X174349580Y-80589047D02*
X174397200Y-80541428D01*
X174397200Y-80541428D02*
X174444819Y-80446190D01*
X174444819Y-80446190D02*
X174444819Y-80255714D01*
X174444819Y-80255714D02*
X174397200Y-80160476D01*
X174397200Y-80160476D02*
X174349580Y-80112857D01*
X174349580Y-80112857D02*
X174254342Y-80065238D01*
X174254342Y-80065238D02*
X173444819Y-80065238D01*
X174444819Y-79589047D02*
X173444819Y-79589047D01*
X173444819Y-79589047D02*
X173444819Y-79208095D01*
X173444819Y-79208095D02*
X173492438Y-79112857D01*
X173492438Y-79112857D02*
X173540057Y-79065238D01*
X173540057Y-79065238D02*
X173635295Y-79017619D01*
X173635295Y-79017619D02*
X173778152Y-79017619D01*
X173778152Y-79017619D02*
X173873390Y-79065238D01*
X173873390Y-79065238D02*
X173921009Y-79112857D01*
X173921009Y-79112857D02*
X173968628Y-79208095D01*
X173968628Y-79208095D02*
X173968628Y-79589047D01*
X174540057Y-78827143D02*
X174540057Y-78065238D01*
X174159104Y-77874761D02*
X174159104Y-77398571D01*
X174444819Y-77969999D02*
X173444819Y-77636666D01*
X173444819Y-77636666D02*
X174444819Y-77303333D01*
X174444819Y-76969999D02*
X173444819Y-76969999D01*
X173444819Y-76969999D02*
X174159104Y-76636666D01*
X174159104Y-76636666D02*
X173444819Y-76303333D01*
X173444819Y-76303333D02*
X174444819Y-76303333D01*
X174444819Y-75827142D02*
X173444819Y-75827142D01*
X173444819Y-75827142D02*
X173444819Y-75446190D01*
X173444819Y-75446190D02*
X173492438Y-75350952D01*
X173492438Y-75350952D02*
X173540057Y-75303333D01*
X173540057Y-75303333D02*
X173635295Y-75255714D01*
X173635295Y-75255714D02*
X173778152Y-75255714D01*
X173778152Y-75255714D02*
X173873390Y-75303333D01*
X173873390Y-75303333D02*
X173921009Y-75350952D01*
X173921009Y-75350952D02*
X173968628Y-75446190D01*
X173968628Y-75446190D02*
X173968628Y-75827142D01*
X174444819Y-74303333D02*
X174444819Y-74874761D01*
X174444819Y-74589047D02*
X173444819Y-74589047D01*
X173444819Y-74589047D02*
X173587676Y-74684285D01*
X173587676Y-74684285D02*
X173682914Y-74779523D01*
X173682914Y-74779523D02*
X173730533Y-74874761D01*
D15*
%TO.C,POT_STRUMVOL1*%
X190610000Y-58625000D02*
X190610000Y-52055000D01*
X180340000Y-58625000D02*
X190610000Y-58625000D01*
X180340000Y-58625000D02*
X180340000Y-52055000D01*
X180340000Y-52055000D02*
X190610000Y-52055000D01*
X177800000Y-58625000D02*
X175150000Y-58625000D01*
X175150000Y-58625000D02*
X175150000Y-55340000D01*
%TO.C,SWAb1*%
X118870000Y-74990000D02*
X131090000Y-74990000D01*
X118870000Y-77500000D02*
X118870000Y-74990000D01*
X118870000Y-82400000D02*
X118870000Y-79800000D01*
X118870000Y-87210000D02*
X118870000Y-84700000D01*
X131090000Y-77500000D02*
X131090000Y-74990000D01*
X131090000Y-82400000D02*
X131090000Y-79800000D01*
X131090000Y-87210000D02*
X118870000Y-87210000D01*
X131090000Y-87210000D02*
X131090000Y-84700000D01*
X128530000Y-81100000D02*
G75*
G02*
X121430000Y-81100000I-3550000J0D01*
G01*
X121430000Y-81100000D02*
G75*
G02*
X128530000Y-81100000I3550000J0D01*
G01*
%TO.C,TrillBar1*%
X194516274Y-84625387D02*
X194516274Y-76895387D01*
X197276274Y-76895387D02*
X194516274Y-76895387D01*
X197276274Y-84625387D02*
X194516274Y-84625387D01*
X197276274Y-84625387D02*
X197276274Y-76895387D01*
X197276274Y-85895387D02*
X197276274Y-87275387D01*
X197276274Y-87275387D02*
X195896274Y-87275387D01*
%TO.C,A1*%
X31690000Y-33560000D02*
X32890000Y-33560000D01*
X31690000Y-41560000D02*
X31690000Y-33560000D01*
X32590000Y-44460000D02*
X32590000Y-46760000D01*
X32590000Y-46760000D02*
X34990000Y-46760000D01*
X32890000Y-28660000D02*
X83890000Y-28660000D01*
X32890000Y-31180000D02*
X83890000Y-31180000D01*
X32890000Y-41560000D02*
X31690000Y-41560000D01*
X32890000Y-43980000D02*
X83890000Y-43980000D01*
X32890000Y-46460000D02*
X32890000Y-28660000D01*
X83890000Y-28660000D02*
X83890000Y-46460000D01*
X83890000Y-46460000D02*
X32890000Y-46460000D01*
%TO.C,SWF1*%
X88390000Y-92850000D02*
X100610000Y-92850000D01*
X88390000Y-95360000D02*
X88390000Y-92850000D01*
X88390000Y-100260000D02*
X88390000Y-97660000D01*
X88390000Y-105070000D02*
X88390000Y-102560000D01*
X100610000Y-95360000D02*
X100610000Y-92850000D01*
X100610000Y-100260000D02*
X100610000Y-97660000D01*
X100610000Y-105070000D02*
X88390000Y-105070000D01*
X100610000Y-105070000D02*
X100610000Y-102560000D01*
X98050000Y-98960000D02*
G75*
G02*
X90950000Y-98960000I-3550000J0D01*
G01*
X90950000Y-98960000D02*
G75*
G02*
X98050000Y-98960000I3550000J0D01*
G01*
%TO.C,SWD1*%
X47750000Y-92850000D02*
X59970000Y-92850000D01*
X47750000Y-95360000D02*
X47750000Y-92850000D01*
X47750000Y-100260000D02*
X47750000Y-97660000D01*
X47750000Y-105070000D02*
X47750000Y-102560000D01*
X59970000Y-95360000D02*
X59970000Y-92850000D01*
X59970000Y-100260000D02*
X59970000Y-97660000D01*
X59970000Y-105070000D02*
X47750000Y-105070000D01*
X59970000Y-105070000D02*
X59970000Y-102560000D01*
X57410000Y-98960000D02*
G75*
G02*
X50310000Y-98960000I-3550000J0D01*
G01*
X50310000Y-98960000D02*
G75*
G02*
X57410000Y-98960000I3550000J0D01*
G01*
%TO.C,SWQ_MIN1*%
X47130000Y-115230000D02*
X59350000Y-115230000D01*
X47130000Y-117740000D02*
X47130000Y-115230000D01*
X47130000Y-122640000D02*
X47130000Y-120040000D01*
X47130000Y-127450000D02*
X47130000Y-124940000D01*
X59350000Y-117740000D02*
X59350000Y-115230000D01*
X59350000Y-122640000D02*
X59350000Y-120040000D01*
X59350000Y-127450000D02*
X47130000Y-127450000D01*
X59350000Y-127450000D02*
X59350000Y-124940000D01*
X56790000Y-121340000D02*
G75*
G02*
X49690000Y-121340000I-3550000J0D01*
G01*
X49690000Y-121340000D02*
G75*
G02*
X56790000Y-121340000I3550000J0D01*
G01*
%TO.C,SWDb1*%
X37590000Y-74990000D02*
X49810000Y-74990000D01*
X37590000Y-77500000D02*
X37590000Y-74990000D01*
X37590000Y-82400000D02*
X37590000Y-79800000D01*
X37590000Y-87210000D02*
X37590000Y-84700000D01*
X49810000Y-77500000D02*
X49810000Y-74990000D01*
X49810000Y-82400000D02*
X49810000Y-79800000D01*
X49810000Y-87210000D02*
X37590000Y-87210000D01*
X49810000Y-87210000D02*
X49810000Y-84700000D01*
X47250000Y-81100000D02*
G75*
G02*
X40150000Y-81100000I-3550000J0D01*
G01*
X40150000Y-81100000D02*
G75*
G02*
X47250000Y-81100000I3550000J0D01*
G01*
%TO.C,SWBb1*%
X139190000Y-75070000D02*
X151410000Y-75070000D01*
X139190000Y-77580000D02*
X139190000Y-75070000D01*
X139190000Y-82480000D02*
X139190000Y-79880000D01*
X139190000Y-87290000D02*
X139190000Y-84780000D01*
X151410000Y-77580000D02*
X151410000Y-75070000D01*
X151410000Y-82480000D02*
X151410000Y-79880000D01*
X151410000Y-87290000D02*
X139190000Y-87290000D01*
X151410000Y-87290000D02*
X151410000Y-84780000D01*
X148850000Y-81180000D02*
G75*
G02*
X141750000Y-81180000I-3550000J0D01*
G01*
X141750000Y-81180000D02*
G75*
G02*
X148850000Y-81180000I3550000J0D01*
G01*
%TO.C,SWB1*%
X149150000Y-92850000D02*
X161370000Y-92850000D01*
X149150000Y-95360000D02*
X149150000Y-92850000D01*
X149150000Y-100260000D02*
X149150000Y-97660000D01*
X149150000Y-105070000D02*
X149150000Y-102560000D01*
X161370000Y-95360000D02*
X161370000Y-92850000D01*
X161370000Y-100260000D02*
X161370000Y-97660000D01*
X161370000Y-105070000D02*
X149150000Y-105070000D01*
X161370000Y-105070000D02*
X161370000Y-102560000D01*
X158810000Y-98960000D02*
G75*
G02*
X151710000Y-98960000I-3550000J0D01*
G01*
X151710000Y-98960000D02*
G75*
G02*
X158810000Y-98960000I3550000J0D01*
G01*
%TO.C,SWQ_DIM1*%
X87770000Y-115710000D02*
X99990000Y-115710000D01*
X87770000Y-118220000D02*
X87770000Y-115710000D01*
X87770000Y-123120000D02*
X87770000Y-120520000D01*
X87770000Y-127930000D02*
X87770000Y-125420000D01*
X99990000Y-118220000D02*
X99990000Y-115710000D01*
X99990000Y-123120000D02*
X99990000Y-120520000D01*
X99990000Y-127930000D02*
X87770000Y-127930000D01*
X99990000Y-127930000D02*
X99990000Y-125420000D01*
X97430000Y-121820000D02*
G75*
G02*
X90330000Y-121820000I-3550000J0D01*
G01*
X90330000Y-121820000D02*
G75*
G02*
X97430000Y-121820000I3550000J0D01*
G01*
%TO.C,POT_CHORDVOL1*%
X149750000Y-58625000D02*
X149750000Y-55340000D01*
X152400000Y-58625000D02*
X149750000Y-58625000D01*
X154940000Y-52055000D02*
X165210000Y-52055000D01*
X154940000Y-58625000D02*
X154940000Y-52055000D01*
X154940000Y-58625000D02*
X165210000Y-58625000D01*
X165210000Y-58625000D02*
X165210000Y-52055000D01*
%TO.C,SWC1*%
X26810000Y-92850000D02*
X39030000Y-92850000D01*
X26810000Y-95360000D02*
X26810000Y-92850000D01*
X26810000Y-100260000D02*
X26810000Y-97660000D01*
X26810000Y-105070000D02*
X26810000Y-102560000D01*
X39030000Y-95360000D02*
X39030000Y-92850000D01*
X39030000Y-100260000D02*
X39030000Y-97660000D01*
X39030000Y-105070000D02*
X26810000Y-105070000D01*
X39030000Y-105070000D02*
X39030000Y-102560000D01*
X36470000Y-98960000D02*
G75*
G02*
X29370000Y-98960000I-3550000J0D01*
G01*
X29370000Y-98960000D02*
G75*
G02*
X36470000Y-98960000I3550000J0D01*
G01*
%TO.C,SWG1*%
X108710000Y-92850000D02*
X120930000Y-92850000D01*
X108710000Y-95360000D02*
X108710000Y-92850000D01*
X108710000Y-100260000D02*
X108710000Y-97660000D01*
X108710000Y-105070000D02*
X108710000Y-102560000D01*
X120930000Y-95360000D02*
X120930000Y-92850000D01*
X120930000Y-100260000D02*
X120930000Y-97660000D01*
X120930000Y-105070000D02*
X108710000Y-105070000D01*
X120930000Y-105070000D02*
X120930000Y-102560000D01*
X118370000Y-98960000D02*
G75*
G02*
X111270000Y-98960000I-3550000J0D01*
G01*
X111270000Y-98960000D02*
G75*
G02*
X118370000Y-98960000I3550000J0D01*
G01*
%TO.C,SWE_TRI1*%
X26810000Y-141110000D02*
X39030000Y-141110000D01*
X26810000Y-143620000D02*
X26810000Y-141110000D01*
X26810000Y-148520000D02*
X26810000Y-145920000D01*
X26810000Y-153330000D02*
X26810000Y-150820000D01*
X39030000Y-143620000D02*
X39030000Y-141110000D01*
X39030000Y-148520000D02*
X39030000Y-145920000D01*
X39030000Y-153330000D02*
X26810000Y-153330000D01*
X39030000Y-153330000D02*
X39030000Y-150820000D01*
X36470000Y-147220000D02*
G75*
G02*
X29370000Y-147220000I-3550000J0D01*
G01*
X29370000Y-147220000D02*
G75*
G02*
X36470000Y-147220000I3550000J0D01*
G01*
%TO.C,PULLUP_SDA1*%
X187383758Y-79944745D02*
X191223758Y-79944745D01*
X187383758Y-81784745D02*
X191223758Y-81784745D01*
D16*
%TO.C,PAM1*%
X166370000Y-108045000D02*
X166370000Y-88995000D01*
X168910000Y-86455000D02*
X179070000Y-86455000D01*
X179070000Y-110585000D02*
X168910000Y-110585000D01*
X181610000Y-88995000D02*
X181610000Y-108045000D01*
X166370000Y-88995000D02*
G75*
G02*
X168910000Y-86455000I2540001J-1D01*
G01*
X168910000Y-110585000D02*
G75*
G02*
X166370000Y-108045000I-1J2539999D01*
G01*
X179070000Y-86455000D02*
G75*
G02*
X181610000Y-88995000I-1J-2540001D01*
G01*
X181610000Y-108045000D02*
G75*
G02*
X179070000Y-110585002I-2540001J-1D01*
G01*
D15*
%TO.C,SWQ_AUG1*%
X67450000Y-115710000D02*
X79670000Y-115710000D01*
X67450000Y-118220000D02*
X67450000Y-115710000D01*
X67450000Y-123120000D02*
X67450000Y-120520000D01*
X67450000Y-127930000D02*
X67450000Y-125420000D01*
X79670000Y-118220000D02*
X79670000Y-115710000D01*
X79670000Y-123120000D02*
X79670000Y-120520000D01*
X79670000Y-127930000D02*
X67450000Y-127930000D01*
X79670000Y-127930000D02*
X79670000Y-125420000D01*
X77110000Y-121820000D02*
G75*
G02*
X70010000Y-121820000I-3550000J0D01*
G01*
X70010000Y-121820000D02*
G75*
G02*
X77110000Y-121820000I3550000J0D01*
G01*
%TO.C,SWE1*%
X68070000Y-92850000D02*
X80290000Y-92850000D01*
X68070000Y-95360000D02*
X68070000Y-92850000D01*
X68070000Y-100260000D02*
X68070000Y-97660000D01*
X68070000Y-105070000D02*
X68070000Y-102560000D01*
X80290000Y-95360000D02*
X80290000Y-92850000D01*
X80290000Y-100260000D02*
X80290000Y-97660000D01*
X80290000Y-105070000D02*
X68070000Y-105070000D01*
X80290000Y-105070000D02*
X80290000Y-102560000D01*
X77730000Y-98960000D02*
G75*
G02*
X70630000Y-98960000I-3550000J0D01*
G01*
X70630000Y-98960000D02*
G75*
G02*
X77730000Y-98960000I3550000J0D01*
G01*
%TO.C,SWE_11th1*%
X108090000Y-141110000D02*
X120310000Y-141110000D01*
X108090000Y-143620000D02*
X108090000Y-141110000D01*
X108090000Y-148520000D02*
X108090000Y-145920000D01*
X108090000Y-153330000D02*
X108090000Y-150820000D01*
X120310000Y-143620000D02*
X120310000Y-141110000D01*
X120310000Y-148520000D02*
X120310000Y-145920000D01*
X120310000Y-153330000D02*
X108090000Y-153330000D01*
X120310000Y-153330000D02*
X120310000Y-150820000D01*
X117750000Y-147220000D02*
G75*
G02*
X110650000Y-147220000I-3550000J0D01*
G01*
X110650000Y-147220000D02*
G75*
G02*
X117750000Y-147220000I3550000J0D01*
G01*
%TO.C,SWE_6th1*%
X47230000Y-141110000D02*
X59450000Y-141110000D01*
X47230000Y-143620000D02*
X47230000Y-141110000D01*
X47230000Y-148520000D02*
X47230000Y-145920000D01*
X47230000Y-153330000D02*
X47230000Y-150820000D01*
X59450000Y-143620000D02*
X59450000Y-141110000D01*
X59450000Y-148520000D02*
X59450000Y-145920000D01*
X59450000Y-153330000D02*
X47230000Y-153330000D01*
X59450000Y-153330000D02*
X59450000Y-150820000D01*
X56890000Y-147220000D02*
G75*
G02*
X49790000Y-147220000I-3550000J0D01*
G01*
X49790000Y-147220000D02*
G75*
G02*
X56890000Y-147220000I3550000J0D01*
G01*
D17*
%TO.C,G\u002A\u002A\u002A*%
G36*
X190262500Y-104461320D02*
G01*
X190475000Y-104476725D01*
X190490239Y-104714694D01*
X190505479Y-104952662D01*
X190277739Y-104952662D01*
X190050000Y-104952662D01*
X190050000Y-104699288D01*
X190050000Y-104445915D01*
X190262500Y-104461320D01*
G37*
G36*
X195050000Y-104326429D02*
G01*
X195050000Y-104952662D01*
X194850000Y-104952662D01*
X194650000Y-104952662D01*
X194650000Y-104326429D01*
X194650000Y-103700197D01*
X194850000Y-103700197D01*
X195050000Y-103700197D01*
X195050000Y-104326429D01*
G37*
G36*
X189300000Y-103975739D02*
G01*
X189300000Y-104601972D01*
X189625000Y-104601972D01*
X189950000Y-104601972D01*
X189950000Y-104777317D01*
X189950000Y-104952662D01*
X189400000Y-104952662D01*
X188850000Y-104952662D01*
X188850000Y-104151084D01*
X188850000Y-103349506D01*
X189075000Y-103349506D01*
X189300000Y-103349506D01*
X189300000Y-103975739D01*
G37*
G36*
X191188680Y-95521597D02*
G01*
X191202361Y-96385798D01*
X191029658Y-96385798D01*
X190907736Y-96373208D01*
X190853290Y-96323211D01*
X190840977Y-96273076D01*
X190836952Y-96184483D01*
X190836643Y-96016701D01*
X190839832Y-95790660D01*
X190846301Y-95527290D01*
X190850000Y-95408875D01*
X190875000Y-94657396D01*
X191025000Y-94657396D01*
X191175000Y-94657396D01*
X191188680Y-95521597D01*
G37*
G36*
X191111749Y-98235083D02*
G01*
X191181947Y-98337986D01*
X191202122Y-98464637D01*
X191160296Y-98589884D01*
X191088874Y-98662445D01*
X190992448Y-98723705D01*
X190926250Y-98730524D01*
X190839850Y-98687693D01*
X190837500Y-98686322D01*
X190768230Y-98590929D01*
X190750000Y-98445394D01*
X190764507Y-98306706D01*
X190819937Y-98228904D01*
X190869186Y-98201118D01*
X191003503Y-98181077D01*
X191111749Y-98235083D01*
G37*
G36*
X194963355Y-103303764D02*
G01*
X195028885Y-103328920D01*
X195048728Y-103393003D01*
X195050000Y-103449704D01*
X195043477Y-103542123D01*
X195005818Y-103585895D01*
X194909883Y-103599150D01*
X194825000Y-103599999D01*
X194686644Y-103595643D01*
X194621114Y-103570487D01*
X194601271Y-103506404D01*
X194600000Y-103449704D01*
X194606522Y-103357284D01*
X194644181Y-103313512D01*
X194740116Y-103300257D01*
X194825000Y-103299408D01*
X194963355Y-103303764D01*
G37*
G36*
X189085536Y-98179579D02*
G01*
X189176923Y-98274870D01*
X189239538Y-98386578D01*
X189250000Y-98439842D01*
X189218337Y-98538233D01*
X189143900Y-98645850D01*
X189057514Y-98723901D01*
X189011125Y-98740433D01*
X188944417Y-98714395D01*
X188867356Y-98666818D01*
X188754206Y-98542759D01*
X188737992Y-98404862D01*
X188819933Y-98265130D01*
X188825966Y-98258973D01*
X188921888Y-98177107D01*
X188993982Y-98139514D01*
X188997727Y-98139250D01*
X189085536Y-98179579D01*
G37*
G36*
X194250000Y-110538658D02*
G01*
X194250000Y-110764102D01*
X193775000Y-110764102D01*
X193300000Y-110764102D01*
X193300000Y-110964496D01*
X193300000Y-111164891D01*
X193750000Y-111164891D01*
X194200000Y-111164891D01*
X194200000Y-111390335D01*
X194200000Y-111615778D01*
X193750000Y-111615778D01*
X193300000Y-111615778D01*
X193300000Y-112091715D01*
X193300000Y-112567652D01*
X193000000Y-112567652D01*
X192700000Y-112567652D01*
X192700000Y-111440433D01*
X192700000Y-110313214D01*
X193475000Y-110313214D01*
X194250000Y-110313214D01*
X194250000Y-110538658D01*
G37*
G36*
X193082189Y-97630985D02*
G01*
X193138703Y-97716004D01*
X193150000Y-97815637D01*
X193132745Y-97949085D01*
X193069447Y-98020319D01*
X193037500Y-98035154D01*
X192794557Y-98119037D01*
X192521471Y-98196156D01*
X192265097Y-98254047D01*
X192137500Y-98274525D01*
X191900000Y-98303502D01*
X191900000Y-98150326D01*
X191890316Y-98013117D01*
X191869650Y-97917904D01*
X191869558Y-97862725D01*
X191939881Y-97840738D01*
X192003737Y-97838658D01*
X192131619Y-97821828D01*
X192314947Y-97777490D01*
X192516133Y-97714872D01*
X192535049Y-97708223D01*
X192790184Y-97628810D01*
X192969290Y-97602493D01*
X193082189Y-97630985D01*
G37*
G36*
X191250000Y-106731163D02*
G01*
X191250000Y-106956607D01*
X190750000Y-106956607D01*
X190250000Y-106956607D01*
X190250000Y-107131952D01*
X190250000Y-107307297D01*
X190700000Y-107307297D01*
X191150000Y-107307297D01*
X191150000Y-107532741D01*
X191150000Y-107758185D01*
X190700000Y-107758185D01*
X190250000Y-107758185D01*
X190250000Y-108033727D01*
X190250000Y-108309270D01*
X190750000Y-108309270D01*
X191250000Y-108309270D01*
X191250000Y-108534713D01*
X191250000Y-108760157D01*
X190450000Y-108760157D01*
X189650000Y-108760157D01*
X189650000Y-107632938D01*
X189650000Y-106505719D01*
X190450000Y-106505719D01*
X191250000Y-106505719D01*
X191250000Y-106731163D01*
G37*
G36*
X188066382Y-98495326D02*
G01*
X188111657Y-98579881D01*
X188163809Y-98704418D01*
X188210144Y-98834079D01*
X188237968Y-98934008D01*
X188238800Y-98968749D01*
X188180538Y-98992356D01*
X188050384Y-99030645D01*
X187873980Y-99076205D01*
X187831952Y-99086362D01*
X187633202Y-99130742D01*
X187504895Y-99148787D01*
X187421290Y-99141558D01*
X187356640Y-99110118D01*
X187350976Y-99106209D01*
X187273172Y-99005380D01*
X187252597Y-98879495D01*
X187294113Y-98772816D01*
X187312500Y-98755991D01*
X187393716Y-98718852D01*
X187536121Y-98673134D01*
X187650000Y-98643204D01*
X187813503Y-98597961D01*
X187941127Y-98551867D01*
X187988708Y-98526445D01*
X188051021Y-98492302D01*
X188066382Y-98495326D01*
G37*
G36*
X191890000Y-94892859D02*
G01*
X191916669Y-94963970D01*
X191935302Y-95119064D01*
X191946282Y-95363412D01*
X191949996Y-95702288D01*
X191950000Y-95714127D01*
X191948642Y-96011431D01*
X191943592Y-96223258D01*
X191933380Y-96364302D01*
X191916539Y-96449257D01*
X191891600Y-96492819D01*
X191870910Y-96505685D01*
X191725633Y-96533316D01*
X191628264Y-96479585D01*
X191601759Y-96439190D01*
X191580211Y-96347311D01*
X191564617Y-96179696D01*
X191554977Y-95960625D01*
X191551291Y-95714383D01*
X191553560Y-95465252D01*
X191561783Y-95237514D01*
X191575960Y-95055452D01*
X191596091Y-94943349D01*
X191601759Y-94929645D01*
X191693078Y-94846890D01*
X191811419Y-94843906D01*
X191890000Y-94892859D01*
G37*
G36*
X187164108Y-97619500D02*
G01*
X187327043Y-97668528D01*
X187520261Y-97734888D01*
X187709708Y-97791559D01*
X187889739Y-97829250D01*
X187988110Y-97838658D01*
X188102725Y-97848018D01*
X188137904Y-97883312D01*
X188130349Y-97917904D01*
X188107733Y-98025920D01*
X188100000Y-98143347D01*
X188089093Y-98243719D01*
X188035689Y-98281632D01*
X187937500Y-98285066D01*
X187791330Y-98267555D01*
X187608001Y-98228376D01*
X187525000Y-98205528D01*
X187346954Y-98155670D01*
X187182593Y-98115436D01*
X187125000Y-98103708D01*
X186961349Y-98044059D01*
X186849019Y-97945576D01*
X186797911Y-97829398D01*
X186817925Y-97716665D01*
X186905602Y-97635259D01*
X186975319Y-97606420D01*
X187054177Y-97599982D01*
X187164108Y-97619500D01*
G37*
G36*
X192009584Y-98523458D02*
G01*
X192032631Y-98537170D01*
X192132072Y-98579230D01*
X192287855Y-98628863D01*
X192400000Y-98658764D01*
X192556996Y-98701506D01*
X192641337Y-98744400D01*
X192678304Y-98807846D01*
X192691435Y-98893920D01*
X192679465Y-99046722D01*
X192619379Y-99126486D01*
X192537375Y-99176345D01*
X192502943Y-99186341D01*
X192444112Y-99171588D01*
X192316021Y-99137542D01*
X192145843Y-99091432D01*
X192137652Y-99089195D01*
X191962670Y-99039258D01*
X191825515Y-98996194D01*
X191755318Y-98969162D01*
X191754744Y-98968815D01*
X191747434Y-98911551D01*
X191780356Y-98797962D01*
X191810638Y-98727796D01*
X191879398Y-98584752D01*
X191922426Y-98514222D01*
X191959296Y-98499393D01*
X192009584Y-98523458D01*
G37*
G36*
X192480349Y-96071330D02*
G01*
X192554263Y-96184645D01*
X192591911Y-96382028D01*
X192598409Y-96542500D01*
X192575467Y-96861744D01*
X192495673Y-97110907D01*
X192347763Y-97309088D01*
X192120469Y-97475388D01*
X192014491Y-97532413D01*
X191865409Y-97603757D01*
X191773046Y-97626193D01*
X191705014Y-97596289D01*
X191628924Y-97510611D01*
X191612500Y-97489797D01*
X191519952Y-97345773D01*
X191513266Y-97244875D01*
X191596468Y-97172643D01*
X191712500Y-97130777D01*
X191919940Y-97055882D01*
X192051097Y-96959327D01*
X192121906Y-96818589D01*
X192148300Y-96611144D01*
X192150000Y-96512332D01*
X192159841Y-96282368D01*
X192193894Y-96136136D01*
X192258946Y-96058705D01*
X192361788Y-96035141D01*
X192366987Y-96035108D01*
X192480349Y-96071330D01*
G37*
G36*
X192389493Y-104166831D02*
G01*
X192397786Y-104377482D01*
X192409408Y-104506642D01*
X192429844Y-104572993D01*
X192464579Y-104595220D01*
X192514493Y-104592670D01*
X192568765Y-104577003D01*
X192603776Y-104535204D01*
X192625789Y-104446867D01*
X192641067Y-104291585D01*
X192650000Y-104151084D01*
X192675000Y-103725246D01*
X192875000Y-103725246D01*
X193075000Y-103725246D01*
X193089005Y-104334799D01*
X193103011Y-104944353D01*
X192601109Y-104946139D01*
X192372406Y-104945779D01*
X192222186Y-104939542D01*
X192128937Y-104922629D01*
X192071148Y-104890241D01*
X192027306Y-104837578D01*
X192012103Y-104814734D01*
X191967672Y-104720617D01*
X191940549Y-104588771D01*
X191927499Y-104396488D01*
X191925000Y-104203394D01*
X191925000Y-103725246D01*
X192150000Y-103725246D01*
X192375000Y-103725246D01*
X192389493Y-104166831D01*
G37*
G36*
X188183474Y-96093512D02*
G01*
X188241650Y-96221614D01*
X188275966Y-96438556D01*
X188283636Y-96544261D01*
X188325038Y-96866253D01*
X188406524Y-97111111D01*
X188409495Y-97116991D01*
X188514448Y-97322149D01*
X188397821Y-97480206D01*
X188310706Y-97581342D01*
X188240047Y-97635090D01*
X188228097Y-97637774D01*
X188156339Y-97617628D01*
X188027201Y-97566201D01*
X187917225Y-97517026D01*
X187658879Y-97367114D01*
X187472406Y-97196283D01*
X187368409Y-97015968D01*
X187350000Y-96905358D01*
X187384646Y-96765464D01*
X187474706Y-96696820D01*
X187599363Y-96705827D01*
X187727768Y-96789193D01*
X187850000Y-96904250D01*
X187850000Y-96518704D01*
X187852192Y-96322510D01*
X187863381Y-96202310D01*
X187890482Y-96133922D01*
X187940415Y-96093162D01*
X187976846Y-96075248D01*
X188096764Y-96047104D01*
X188183474Y-96093512D01*
G37*
G36*
X190137830Y-102558000D02*
G01*
X190306510Y-102572791D01*
X190405221Y-102602744D01*
X190463947Y-102659952D01*
X190485526Y-102698224D01*
X190514732Y-102810335D01*
X190535117Y-102994983D01*
X190546551Y-103224887D01*
X190548908Y-103472766D01*
X190542058Y-103711339D01*
X190525875Y-103913326D01*
X190500231Y-104051444D01*
X190491974Y-104073579D01*
X190401422Y-104174963D01*
X190278799Y-104200210D01*
X190160799Y-104141861D01*
X190160000Y-104141064D01*
X190128542Y-104054928D01*
X190108461Y-103873596D01*
X190100198Y-103601469D01*
X190100000Y-103543365D01*
X190098875Y-103305601D01*
X190093155Y-103149877D01*
X190079317Y-103058040D01*
X190053839Y-103011939D01*
X190013202Y-102993422D01*
X189992606Y-102989776D01*
X189866807Y-102928860D01*
X189809815Y-102805056D01*
X189819204Y-102678476D01*
X189844719Y-102602194D01*
X189889966Y-102563611D01*
X189982050Y-102552476D01*
X190137830Y-102558000D01*
G37*
G36*
X191266002Y-99083742D02*
G01*
X191271116Y-99087894D01*
X191349360Y-99196275D01*
X191337762Y-99307399D01*
X191246129Y-99415655D01*
X191084272Y-99515433D01*
X190861998Y-99601121D01*
X190589117Y-99667108D01*
X190275437Y-99707784D01*
X190176316Y-99714140D01*
X189937005Y-99719742D01*
X189701951Y-99714847D01*
X189513120Y-99700587D01*
X189475000Y-99695196D01*
X189184476Y-99629328D01*
X188947911Y-99540277D01*
X188774177Y-99435264D01*
X188672151Y-99321514D01*
X188650705Y-99206250D01*
X188718714Y-99096694D01*
X188728883Y-99087894D01*
X188793960Y-99053710D01*
X188882575Y-99059036D01*
X189026457Y-99106321D01*
X189041383Y-99112020D01*
X189506268Y-99247926D01*
X189962651Y-99298654D01*
X190362500Y-99267503D01*
X190583865Y-99220477D01*
X190803259Y-99162756D01*
X190958616Y-99112020D01*
X191108320Y-99061254D01*
X191200206Y-99052645D01*
X191266002Y-99083742D01*
G37*
G36*
X194438738Y-104113510D02*
G01*
X194425000Y-104927613D01*
X193945223Y-104940109D01*
X193713555Y-104943342D01*
X193560386Y-104936649D01*
X193464464Y-104917165D01*
X193404539Y-104882028D01*
X193387655Y-104864961D01*
X193275459Y-104671241D01*
X193222983Y-104429975D01*
X193227135Y-104356839D01*
X193700000Y-104356839D01*
X193703475Y-104503095D01*
X193724556Y-104575288D01*
X193779225Y-104599536D01*
X193850000Y-104601972D01*
X193935752Y-104597345D01*
X193980386Y-104567023D01*
X193997326Y-104486343D01*
X193999999Y-104330643D01*
X194000000Y-104326429D01*
X193991447Y-104154314D01*
X193957082Y-104067085D01*
X193883844Y-104050249D01*
X193779089Y-104081296D01*
X193726366Y-104137121D01*
X193702633Y-104263719D01*
X193700000Y-104356839D01*
X193227135Y-104356839D01*
X193237245Y-104178770D01*
X193249848Y-104126579D01*
X193347992Y-103903068D01*
X193497410Y-103763885D01*
X193704787Y-103703668D01*
X193781742Y-103700197D01*
X194000000Y-103700197D01*
X194000000Y-103499802D01*
X194000000Y-103299408D01*
X194226238Y-103299408D01*
X194452477Y-103299408D01*
X194438738Y-104113510D01*
G37*
G36*
X188420846Y-106516642D02*
G01*
X188766692Y-106530769D01*
X189108800Y-107557790D01*
X189211191Y-107865347D01*
X189303970Y-108144360D01*
X189382065Y-108379546D01*
X189440399Y-108555620D01*
X189473901Y-108657297D01*
X189478823Y-108672485D01*
X189482736Y-108720003D01*
X189443170Y-108746537D01*
X189340444Y-108757954D01*
X189184867Y-108760157D01*
X188862996Y-108760157D01*
X188800000Y-108534713D01*
X188737003Y-108309270D01*
X188399437Y-108309270D01*
X188061871Y-108309270D01*
X188005215Y-108534713D01*
X187948560Y-108760157D01*
X187626088Y-108760157D01*
X187303617Y-108760157D01*
X187594614Y-107908481D01*
X188205390Y-107908481D01*
X188402695Y-107908481D01*
X188526804Y-107905666D01*
X188594813Y-107898645D01*
X188599263Y-107895956D01*
X188581585Y-107812854D01*
X188542052Y-107687540D01*
X188491693Y-107549094D01*
X188441537Y-107426596D01*
X188402612Y-107349127D01*
X188387580Y-107337793D01*
X188359127Y-107407961D01*
X188315059Y-107540298D01*
X188282958Y-107645463D01*
X188205390Y-107908481D01*
X187594614Y-107908481D01*
X187689308Y-107631336D01*
X188075000Y-106502516D01*
X188420846Y-106516642D01*
G37*
G36*
X192118845Y-100137027D02*
G01*
X192134144Y-100155719D01*
X192215971Y-100334334D01*
X192275805Y-100558905D01*
X192299247Y-100774476D01*
X192263913Y-101065431D01*
X192149833Y-101352245D01*
X192038555Y-101535050D01*
X191836448Y-101769381D01*
X191583941Y-101943710D01*
X191270954Y-102061999D01*
X190887405Y-102128210D01*
X190482556Y-102146545D01*
X190162448Y-102157797D01*
X189924628Y-102194608D01*
X189753322Y-102262893D01*
X189632759Y-102368564D01*
X189557943Y-102493180D01*
X189449920Y-102670956D01*
X189335851Y-102749169D01*
X189216247Y-102727624D01*
X189132749Y-102656705D01*
X189069416Y-102569219D01*
X189058182Y-102482241D01*
X189100834Y-102364091D01*
X189155073Y-102261385D01*
X189292183Y-102048973D01*
X189444450Y-101894820D01*
X189629815Y-101790772D01*
X189866219Y-101728680D01*
X190171605Y-101700392D01*
X190398918Y-101696252D01*
X190812710Y-101677524D01*
X191143118Y-101618745D01*
X191400020Y-101516020D01*
X191593294Y-101365453D01*
X191728215Y-101172155D01*
X191821129Y-100897760D01*
X191814862Y-100620086D01*
X191780615Y-100493922D01*
X191737166Y-100353297D01*
X191731653Y-100269382D01*
X191764567Y-100205980D01*
X191784848Y-100182389D01*
X191893729Y-100112630D01*
X192019363Y-100096417D01*
X192118845Y-100137027D01*
G37*
G36*
X188947917Y-99815065D02*
G01*
X188949532Y-99816989D01*
X188981725Y-99885910D01*
X188969188Y-99984644D01*
X188927879Y-100100493D01*
X188881158Y-100266191D01*
X188891895Y-100411353D01*
X188968531Y-100553777D01*
X189119503Y-100711263D01*
X189281190Y-100845722D01*
X189448763Y-100984867D01*
X189547402Y-101088563D01*
X189592339Y-101175466D01*
X189600000Y-101236190D01*
X189571511Y-101398451D01*
X189491489Y-101478869D01*
X189368104Y-101475984D01*
X189209522Y-101388335D01*
X189128486Y-101320512D01*
X189017520Y-101221493D01*
X188940368Y-101157915D01*
X188919952Y-101145167D01*
X188922180Y-101185901D01*
X188962223Y-101293610D01*
X189031411Y-101446560D01*
X189076667Y-101538012D01*
X189124655Y-101701878D01*
X189103210Y-101834871D01*
X189030963Y-101923070D01*
X188926544Y-101952551D01*
X188808582Y-101909391D01*
X188714102Y-101808974D01*
X188622449Y-101666200D01*
X188557710Y-101540111D01*
X188515245Y-101408552D01*
X188490416Y-101249365D01*
X188478583Y-101040394D01*
X188475107Y-100759481D01*
X188475000Y-100667050D01*
X188476364Y-100380216D01*
X188481826Y-100175928D01*
X188493434Y-100036555D01*
X188513239Y-99944466D01*
X188543291Y-99882029D01*
X188570249Y-99847930D01*
X188697429Y-99761847D01*
X188834990Y-99749939D01*
X188947917Y-99815065D01*
G37*
G36*
X191000000Y-111103645D02*
G01*
X191002550Y-111447558D01*
X191013116Y-111703990D01*
X191036067Y-111885594D01*
X191075774Y-112005018D01*
X191136607Y-112074915D01*
X191222937Y-112107935D01*
X191339134Y-112116729D01*
X191350000Y-112116765D01*
X191468810Y-112109381D01*
X191557399Y-112078798D01*
X191620137Y-112012363D01*
X191661395Y-111897426D01*
X191685542Y-111721336D01*
X191696949Y-111471444D01*
X191699987Y-111135097D01*
X191700000Y-111103645D01*
X191700000Y-110313214D01*
X192000000Y-110313214D01*
X192300000Y-110313214D01*
X192299922Y-111177416D01*
X192296933Y-111543022D01*
X192285568Y-111823931D01*
X192262119Y-112035534D01*
X192222878Y-112193219D01*
X192164136Y-112312378D01*
X192082185Y-112408402D01*
X191983918Y-112488943D01*
X191835237Y-112555117D01*
X191621528Y-112597901D01*
X191375278Y-112616100D01*
X191128975Y-112608516D01*
X190915107Y-112573954D01*
X190800996Y-112532501D01*
X190654138Y-112427253D01*
X190525367Y-112289171D01*
X190513496Y-112272176D01*
X190472765Y-112205733D01*
X190443137Y-112136002D01*
X190422854Y-112046488D01*
X190410158Y-111920698D01*
X190403290Y-111742138D01*
X190400492Y-111494315D01*
X190400000Y-111207581D01*
X190400000Y-110313214D01*
X190700000Y-110313214D01*
X191000000Y-110313214D01*
X191000000Y-111103645D01*
G37*
G36*
X196019483Y-103707058D02*
G01*
X196136229Y-103737263D01*
X196235792Y-103805243D01*
X196290508Y-103856437D01*
X196379277Y-103952857D01*
X196427200Y-104044505D01*
X196446638Y-104167974D01*
X196450000Y-104328520D01*
X196444978Y-104510030D01*
X196421921Y-104628155D01*
X196368837Y-104719524D01*
X196296153Y-104798512D01*
X196199725Y-104884762D01*
X196105985Y-104931137D01*
X195978268Y-104949710D01*
X195827972Y-104952662D01*
X195642913Y-104946671D01*
X195523007Y-104922090D01*
X195433782Y-104869004D01*
X195387093Y-104825869D01*
X195267195Y-104642915D01*
X195211644Y-104419594D01*
X195215797Y-104300861D01*
X195650000Y-104300861D01*
X195666211Y-104476918D01*
X195720637Y-104570294D01*
X195821962Y-104594038D01*
X195843887Y-104592157D01*
X195924802Y-104572168D01*
X195966604Y-104518037D01*
X195985776Y-104401576D01*
X195990110Y-104342117D01*
X195991557Y-104188691D01*
X195964369Y-104102036D01*
X195906082Y-104054149D01*
X195794596Y-104039028D01*
X195704570Y-104106139D01*
X195654609Y-104237557D01*
X195650000Y-104300861D01*
X195215797Y-104300861D01*
X195219798Y-104186469D01*
X195291016Y-103974097D01*
X195408084Y-103826315D01*
X195521923Y-103748730D01*
X195650566Y-103710664D01*
X195835206Y-103700209D01*
X195844344Y-103700197D01*
X196019483Y-103707058D01*
G37*
G36*
X191445417Y-103719440D02*
G01*
X191541844Y-103752613D01*
X191615793Y-103802089D01*
X191675980Y-103854141D01*
X191714810Y-103910661D01*
X191736956Y-103993438D01*
X191747091Y-104124259D01*
X191749888Y-104324912D01*
X191750000Y-104427788D01*
X191750000Y-104947714D01*
X191254560Y-104948303D01*
X190976151Y-104941932D01*
X190794734Y-104922120D01*
X190711366Y-104888984D01*
X190710680Y-104888154D01*
X190629885Y-104715734D01*
X190619304Y-104559253D01*
X191052513Y-104559253D01*
X191083178Y-104629531D01*
X191175000Y-104652070D01*
X191270150Y-104631378D01*
X191299472Y-104549905D01*
X191300000Y-104526824D01*
X191270286Y-104425664D01*
X191195177Y-104406601D01*
X191109999Y-104461696D01*
X191052513Y-104559253D01*
X190619304Y-104559253D01*
X190615881Y-104508634D01*
X190625437Y-104449679D01*
X190706014Y-104301404D01*
X190862251Y-104198789D01*
X191076065Y-104152605D01*
X191126683Y-104151084D01*
X191254003Y-104137382D01*
X191288791Y-104095288D01*
X191286998Y-104088461D01*
X191226095Y-104048271D01*
X191101135Y-104033332D01*
X190945052Y-104044487D01*
X190809080Y-104076233D01*
X190735107Y-104092999D01*
X190705618Y-104061446D01*
X190706046Y-103958796D01*
X190709080Y-103919855D01*
X190725000Y-103725246D01*
X191103293Y-103710780D01*
X191309174Y-103707267D01*
X191445417Y-103719440D01*
G37*
G36*
X191545362Y-99404693D02*
G01*
X191605305Y-99455653D01*
X191637241Y-99562640D01*
X191649099Y-99743695D01*
X191650000Y-99847963D01*
X191648111Y-100047288D01*
X191635785Y-100176986D01*
X191603029Y-100267627D01*
X191539850Y-100349780D01*
X191459341Y-100431262D01*
X191292238Y-100564758D01*
X191095719Y-100679940D01*
X191021841Y-100712105D01*
X190765486Y-100812245D01*
X190574273Y-100897126D01*
X190417884Y-100981333D01*
X190284485Y-101066804D01*
X190113858Y-101157579D01*
X189959521Y-101195195D01*
X189848350Y-101173991D01*
X189833333Y-101161867D01*
X189810334Y-101093012D01*
X189800039Y-100971633D01*
X189800000Y-100963584D01*
X189811727Y-100858761D01*
X189861672Y-100779998D01*
X189971977Y-100698652D01*
X190033428Y-100661632D01*
X190266856Y-100524564D01*
X190134508Y-100480361D01*
X190018268Y-100464734D01*
X189887169Y-100504592D01*
X189802241Y-100548741D01*
X189664153Y-100616623D01*
X189566313Y-100631543D01*
X189476160Y-100603728D01*
X189374989Y-100512669D01*
X189352904Y-100387153D01*
X189412329Y-100257056D01*
X189445271Y-100222630D01*
X189549890Y-100156632D01*
X189704572Y-100089375D01*
X189779700Y-100064122D01*
X189913106Y-100029046D01*
X190026260Y-100018732D01*
X190155099Y-100034876D01*
X190335558Y-100079170D01*
X190384986Y-100092649D01*
X190695394Y-100165137D01*
X190927047Y-100186289D01*
X191089061Y-100152598D01*
X191190554Y-100060557D01*
X191240642Y-99906659D01*
X191250000Y-99759886D01*
X191274655Y-99588116D01*
X191338990Y-99457243D01*
X191428555Y-99393932D01*
X191449482Y-99391715D01*
X191545362Y-99404693D01*
G37*
G36*
X193489821Y-98397239D02*
G01*
X193711816Y-98674884D01*
X193871765Y-99009587D01*
X193972286Y-99409630D01*
X194015999Y-99883291D01*
X194018362Y-100068047D01*
X194003104Y-100435007D01*
X193954405Y-100740035D01*
X193861920Y-101018686D01*
X193715303Y-101306516D01*
X193606430Y-101483821D01*
X193405167Y-101778291D01*
X193215342Y-102007477D01*
X193010897Y-102198985D01*
X192765774Y-102380417D01*
X192750000Y-102391052D01*
X192330216Y-102636708D01*
X191904279Y-102806602D01*
X191431805Y-102916520D01*
X191387500Y-102923715D01*
X191275880Y-102945714D01*
X191220652Y-102985042D01*
X191201970Y-103070915D01*
X191200000Y-103199718D01*
X191190197Y-103362968D01*
X191154609Y-103455994D01*
X191103287Y-103498039D01*
X191008100Y-103541409D01*
X190948041Y-103527384D01*
X190882431Y-103442961D01*
X190869529Y-103423320D01*
X190823665Y-103324112D01*
X190804501Y-103191558D01*
X190808475Y-102996156D01*
X190811828Y-102945594D01*
X190827481Y-102768296D01*
X190844925Y-102634185D01*
X190860519Y-102570928D01*
X190861247Y-102570058D01*
X190919780Y-102548489D01*
X191046832Y-102517381D01*
X191180295Y-102490177D01*
X191732531Y-102354055D01*
X192205016Y-102166013D01*
X192606705Y-101920386D01*
X192946555Y-101611508D01*
X193233522Y-101233714D01*
X193276558Y-101164115D01*
X193427295Y-100849758D01*
X193534231Y-100496825D01*
X193587663Y-100144896D01*
X193586342Y-99900575D01*
X193553836Y-99688591D01*
X193498128Y-99452767D01*
X193427972Y-99220682D01*
X193352125Y-99019914D01*
X193279344Y-98878041D01*
X193249795Y-98840631D01*
X193183608Y-98762616D01*
X193099532Y-98648404D01*
X193019100Y-98529410D01*
X192963842Y-98437046D01*
X192951628Y-98405610D01*
X192993579Y-98359960D01*
X193095347Y-98298657D01*
X193124302Y-98284503D01*
X193295349Y-98204313D01*
X193489821Y-98397239D01*
G37*
G36*
X192649866Y-106462309D02*
G01*
X192930658Y-106500628D01*
X192977858Y-106511667D01*
X193200000Y-106567713D01*
X193200000Y-106837308D01*
X193191187Y-106991123D01*
X193168077Y-107087413D01*
X193148008Y-107106903D01*
X193074447Y-107085627D01*
X192951597Y-107032203D01*
X192900000Y-107006705D01*
X192726309Y-106943631D01*
X192531407Y-106911090D01*
X192347049Y-106910248D01*
X192204990Y-106942271D01*
X192151993Y-106979249D01*
X192098503Y-107077721D01*
X192121704Y-107161367D01*
X192228450Y-107236885D01*
X192425593Y-107310970D01*
X192519592Y-107338462D01*
X192800232Y-107428226D01*
X192998463Y-107523075D01*
X193131642Y-107634939D01*
X193217127Y-107775746D01*
X193238470Y-107832509D01*
X193274388Y-108086241D01*
X193221365Y-108331160D01*
X193089593Y-108545301D01*
X192889265Y-108706699D01*
X192816440Y-108741920D01*
X192663998Y-108779230D01*
X192446813Y-108800130D01*
X192198782Y-108804690D01*
X191953800Y-108792976D01*
X191745762Y-108765058D01*
X191650000Y-108739569D01*
X191550372Y-108697835D01*
X191496382Y-108644835D01*
X191471601Y-108550577D01*
X191460004Y-108392690D01*
X191458283Y-108239464D01*
X191469332Y-108136498D01*
X191485004Y-108109085D01*
X191548645Y-108130288D01*
X191669914Y-108184626D01*
X191770973Y-108234331D01*
X191983811Y-108316815D01*
X192196613Y-108355851D01*
X192389166Y-108353143D01*
X192541254Y-108310398D01*
X192632663Y-108229322D01*
X192650000Y-108160168D01*
X192643465Y-108097604D01*
X192611780Y-108050614D01*
X192536818Y-108008970D01*
X192400454Y-107962450D01*
X192195799Y-107903947D01*
X191925282Y-107818023D01*
X191735024Y-107728643D01*
X191605611Y-107624239D01*
X191522444Y-107502740D01*
X191451449Y-107265201D01*
X191469165Y-107025059D01*
X191567498Y-106804830D01*
X191738352Y-106627031D01*
X191863532Y-106554005D01*
X192079578Y-106490393D01*
X192353932Y-106459362D01*
X192649866Y-106462309D01*
G37*
G36*
X190397311Y-93808822D02*
G01*
X190472164Y-93892014D01*
X190497199Y-93941924D01*
X190516397Y-94019167D01*
X190530478Y-94135997D01*
X190540160Y-94304672D01*
X190546161Y-94537446D01*
X190549201Y-94846576D01*
X190550000Y-95219628D01*
X190550000Y-96435897D01*
X190663205Y-96435897D01*
X190801462Y-96457986D01*
X190986208Y-96514309D01*
X191178200Y-96589949D01*
X191338197Y-96669992D01*
X191408574Y-96719215D01*
X191481556Y-96839014D01*
X191470026Y-96965249D01*
X191390018Y-97055165D01*
X191313861Y-97075898D01*
X191192613Y-97059988D01*
X191005569Y-97004279D01*
X190965018Y-96990373D01*
X190604550Y-96896647D01*
X190212599Y-96847982D01*
X189823660Y-96845750D01*
X189472228Y-96891322D01*
X189341573Y-96925849D01*
X189114574Y-96996521D01*
X188960720Y-97039617D01*
X188858412Y-97059611D01*
X188786047Y-97060975D01*
X188734660Y-97051522D01*
X188673083Y-97020784D01*
X188626384Y-96955974D01*
X188592686Y-96845277D01*
X188570111Y-96676875D01*
X188556782Y-96438952D01*
X188550821Y-96119690D01*
X188550000Y-95889315D01*
X188550905Y-95566398D01*
X188554556Y-95328754D01*
X188562353Y-95161466D01*
X188575697Y-95049621D01*
X188595988Y-94978301D01*
X188624627Y-94932593D01*
X188641437Y-94915654D01*
X188751153Y-94842489D01*
X188843370Y-94857608D01*
X188917250Y-94924358D01*
X188949829Y-94975083D01*
X188972813Y-95054027D01*
X188987747Y-95177193D01*
X188996176Y-95360588D01*
X188999643Y-95620216D01*
X189000000Y-95781878D01*
X189000000Y-96547780D01*
X189112500Y-96513110D01*
X189232182Y-96481053D01*
X189394042Y-96443224D01*
X189445890Y-96432061D01*
X189610875Y-96391947D01*
X189684307Y-96361141D01*
X189663684Y-96341723D01*
X189561904Y-96335700D01*
X189453523Y-96329223D01*
X189373532Y-96301066D01*
X189317661Y-96238134D01*
X189281642Y-96127334D01*
X189261205Y-95955574D01*
X189252081Y-95709761D01*
X189250000Y-95379173D01*
X189250000Y-94580100D01*
X189373519Y-94523710D01*
X189475512Y-94489235D01*
X189549474Y-94500245D01*
X189599652Y-94567563D01*
X189630299Y-94702012D01*
X189645663Y-94914414D01*
X189649995Y-95215594D01*
X189650000Y-95227784D01*
X189650858Y-95489883D01*
X189655367Y-95669369D01*
X189666421Y-95783826D01*
X189686920Y-95850834D01*
X189719759Y-95887976D01*
X189762500Y-95910506D01*
X189859331Y-95996616D01*
X189893146Y-96117370D01*
X189857543Y-96232838D01*
X189820192Y-96270269D01*
X189773276Y-96312735D01*
X189798499Y-96331425D01*
X189909481Y-96335696D01*
X189915443Y-96335700D01*
X190100000Y-96335700D01*
X190100000Y-95141097D01*
X190100543Y-94762048D01*
X190102774Y-94470575D01*
X190107596Y-94254062D01*
X190115913Y-94099891D01*
X190128627Y-93995446D01*
X190146642Y-93928108D01*
X190170860Y-93885262D01*
X190191437Y-93863583D01*
X190304674Y-93789987D01*
X190397311Y-93808822D01*
G37*
G36*
X188992697Y-110278172D02*
G01*
X189226173Y-110321467D01*
X189327790Y-110357608D01*
X189541874Y-110497667D01*
X189739833Y-110701364D01*
X189890806Y-110933235D01*
X189944589Y-111066356D01*
X190006532Y-111426250D01*
X189993686Y-111811275D01*
X189907865Y-112182156D01*
X189890856Y-112228821D01*
X189838418Y-112365927D01*
X189125636Y-112364152D01*
X188843452Y-112362516D01*
X188643690Y-112357634D01*
X188508773Y-112347083D01*
X188421127Y-112328442D01*
X188363176Y-112299286D01*
X188317345Y-112257194D01*
X188312675Y-112252095D01*
X188194044Y-112096156D01*
X188127942Y-111931724D01*
X188101949Y-111721680D01*
X188100000Y-111616584D01*
X188101482Y-111600416D01*
X188502271Y-111600416D01*
X188512587Y-111789027D01*
X188551759Y-111919664D01*
X188640213Y-111993040D01*
X188770525Y-112016100D01*
X188896359Y-111985759D01*
X188946264Y-111945929D01*
X188978168Y-111851522D01*
X188991935Y-111679824D01*
X188989887Y-111532615D01*
X188975000Y-111189940D01*
X188817303Y-111174600D01*
X188678518Y-111186855D01*
X188582784Y-111269205D01*
X188579803Y-111273420D01*
X188525362Y-111412735D01*
X188502271Y-111600416D01*
X188101482Y-111600416D01*
X188126485Y-111327639D01*
X188210856Y-111106651D01*
X188360483Y-110935103D01*
X188376383Y-110922258D01*
X188459380Y-110870504D01*
X188563716Y-110840092D01*
X188716032Y-110826280D01*
X188927382Y-110824201D01*
X189350000Y-110827327D01*
X189350000Y-111472046D01*
X189350909Y-111736497D01*
X189355263Y-111916780D01*
X189365499Y-112028917D01*
X189384054Y-112088932D01*
X189413365Y-112112849D01*
X189448072Y-112116765D01*
X189534329Y-112071734D01*
X189595154Y-111950945D01*
X189629341Y-111775853D01*
X189635682Y-111567912D01*
X189612969Y-111348578D01*
X189559996Y-111139305D01*
X189509753Y-111020750D01*
X189348346Y-110802434D01*
X189131338Y-110667218D01*
X188857885Y-110614608D01*
X188815122Y-110613806D01*
X188537911Y-110643902D01*
X188317112Y-110741094D01*
X188164886Y-110872747D01*
X188013647Y-111102783D01*
X187925289Y-111384336D01*
X187905100Y-111687011D01*
X187958370Y-111980415D01*
X187967521Y-112006915D01*
X188072411Y-112198905D01*
X188228690Y-112372636D01*
X188406774Y-112499983D01*
X188536814Y-112548129D01*
X188682732Y-112561156D01*
X188878558Y-112560730D01*
X189030928Y-112551178D01*
X189350000Y-112521324D01*
X189350000Y-112689424D01*
X189341586Y-112790709D01*
X189304874Y-112856902D01*
X189222657Y-112895240D01*
X189077727Y-112912962D01*
X188852876Y-112917305D01*
X188808410Y-112917242D01*
X188500451Y-112898741D01*
X188269828Y-112843498D01*
X188225000Y-112824875D01*
X187955073Y-112651494D01*
X187749841Y-112417948D01*
X187608916Y-112140143D01*
X187531910Y-111833986D01*
X187518433Y-111515385D01*
X187568097Y-111200245D01*
X187680515Y-110904474D01*
X187855298Y-110643978D01*
X188092057Y-110434664D01*
X188285894Y-110330672D01*
X188481616Y-110281716D01*
X188730864Y-110264569D01*
X188992697Y-110278172D01*
G37*
G36*
X186757384Y-103352952D02*
G01*
X186810325Y-103376587D01*
X186857116Y-103432012D01*
X186906019Y-103532113D01*
X186965296Y-103689776D01*
X187043210Y-103917886D01*
X187130039Y-104176133D01*
X187204223Y-104394211D01*
X187266605Y-104574464D01*
X187310395Y-104697479D01*
X187328559Y-104743604D01*
X187360259Y-104713647D01*
X187432470Y-104619453D01*
X187530507Y-104480339D01*
X187545895Y-104457731D01*
X187750751Y-104155473D01*
X187646710Y-103969870D01*
X187545343Y-103798804D01*
X187434428Y-103624836D01*
X187421334Y-103605356D01*
X187346587Y-103486359D01*
X187303867Y-103401336D01*
X187300000Y-103385357D01*
X187344936Y-103364991D01*
X187460343Y-103356770D01*
X187561184Y-103359413D01*
X187718567Y-103374210D01*
X187813061Y-103409311D01*
X187881774Y-103485777D01*
X187931169Y-103569391D01*
X188039968Y-103764227D01*
X188170611Y-103556867D01*
X188255452Y-103433165D01*
X188332440Y-103372019D01*
X188442020Y-103351479D01*
X188552734Y-103349506D01*
X188804215Y-103349506D01*
X188668132Y-103587475D01*
X188571686Y-103751192D01*
X188478970Y-103900759D01*
X188441024Y-103958423D01*
X188378082Y-104057282D01*
X188350088Y-104114904D01*
X188349999Y-104116124D01*
X188374166Y-104167635D01*
X188438237Y-104282001D01*
X188529565Y-104436829D01*
X188553318Y-104476173D01*
X188679824Y-104686011D01*
X188755283Y-104823888D01*
X188779445Y-104904155D01*
X188752058Y-104941160D01*
X188672873Y-104949251D01*
X188545152Y-104942979D01*
X188372577Y-104923654D01*
X188272781Y-104884266D01*
X188225042Y-104827416D01*
X188158226Y-104702741D01*
X188106868Y-104609442D01*
X188041081Y-104491665D01*
X187920540Y-104669407D01*
X187845759Y-104791130D01*
X187803504Y-104882124D01*
X187799999Y-104899906D01*
X187751939Y-104927089D01*
X187614889Y-104945057D01*
X187399546Y-104952527D01*
X187360961Y-104952662D01*
X186921923Y-104952662D01*
X186865305Y-104802366D01*
X186816834Y-104705590D01*
X186745266Y-104662442D01*
X186613854Y-104652104D01*
X186600000Y-104652070D01*
X186462366Y-104660723D01*
X186387448Y-104700559D01*
X186338496Y-104792397D01*
X186334694Y-104802366D01*
X186287145Y-104898123D01*
X186217354Y-104941508D01*
X186089244Y-104952556D01*
X186064038Y-104952662D01*
X185933660Y-104946205D01*
X185857823Y-104929955D01*
X185850000Y-104921665D01*
X185864316Y-104862928D01*
X185901470Y-104736803D01*
X185952774Y-104570985D01*
X186009536Y-104393172D01*
X186048798Y-104274270D01*
X186517586Y-104274270D01*
X186574323Y-104300754D01*
X186596630Y-104301380D01*
X186679244Y-104276034D01*
X186699234Y-104238757D01*
X186678705Y-104156161D01*
X186635010Y-104079504D01*
X186592331Y-104047879D01*
X186583930Y-104052338D01*
X186553844Y-104113911D01*
X186527842Y-104188658D01*
X186517586Y-104274270D01*
X186048798Y-104274270D01*
X186063066Y-104231062D01*
X186099632Y-104126035D01*
X186137650Y-104013465D01*
X186185713Y-103861175D01*
X186196582Y-103825443D01*
X186263542Y-103608788D01*
X186316506Y-103470475D01*
X186370378Y-103392924D01*
X186440058Y-103358554D01*
X186540448Y-103349784D01*
X186600000Y-103349506D01*
X186690030Y-103348220D01*
X186757384Y-103352952D01*
G37*
D15*
%TO.C,SWE_7th1*%
X67550000Y-141110000D02*
X79770000Y-141110000D01*
X67550000Y-143620000D02*
X67550000Y-141110000D01*
X67550000Y-148520000D02*
X67550000Y-145920000D01*
X67550000Y-153330000D02*
X67550000Y-150820000D01*
X79770000Y-143620000D02*
X79770000Y-141110000D01*
X79770000Y-148520000D02*
X79770000Y-145920000D01*
X79770000Y-153330000D02*
X67550000Y-153330000D01*
X79770000Y-153330000D02*
X79770000Y-150820000D01*
X77210000Y-147220000D02*
G75*
G02*
X70110000Y-147220000I-3550000J0D01*
G01*
X70110000Y-147220000D02*
G75*
G02*
X77210000Y-147220000I3550000J0D01*
G01*
%TO.C,SWGb1*%
X98550000Y-75070000D02*
X110770000Y-75070000D01*
X98550000Y-77580000D02*
X98550000Y-75070000D01*
X98550000Y-82480000D02*
X98550000Y-79880000D01*
X98550000Y-87290000D02*
X98550000Y-84780000D01*
X110770000Y-77580000D02*
X110770000Y-75070000D01*
X110770000Y-82480000D02*
X110770000Y-79880000D01*
X110770000Y-87290000D02*
X98550000Y-87290000D01*
X110770000Y-87290000D02*
X110770000Y-84780000D01*
X108210000Y-81180000D02*
G75*
G02*
X101110000Y-81180000I-3550000J0D01*
G01*
X101110000Y-81180000D02*
G75*
G02*
X108210000Y-81180000I3550000J0D01*
G01*
%TO.C,SWPS_R1*%
X202270000Y-140710000D02*
X214490000Y-140710000D01*
X202270000Y-143220000D02*
X202270000Y-140710000D01*
X202270000Y-148120000D02*
X202270000Y-145520000D01*
X202270000Y-152930000D02*
X202270000Y-150420000D01*
X214490000Y-143220000D02*
X214490000Y-140710000D01*
X214490000Y-148120000D02*
X214490000Y-145520000D01*
X214490000Y-152930000D02*
X202270000Y-152930000D01*
X214490000Y-152930000D02*
X214490000Y-150420000D01*
X211930000Y-146820000D02*
G75*
G02*
X204830000Y-146820000I-3550000J0D01*
G01*
X204830000Y-146820000D02*
G75*
G02*
X211930000Y-146820000I3550000J0D01*
G01*
%TO.C,SWA1*%
X129030000Y-92850000D02*
X141250000Y-92850000D01*
X129030000Y-95360000D02*
X129030000Y-92850000D01*
X129030000Y-100260000D02*
X129030000Y-97660000D01*
X129030000Y-105070000D02*
X129030000Y-102560000D01*
X141250000Y-95360000D02*
X141250000Y-92850000D01*
X141250000Y-100260000D02*
X141250000Y-97660000D01*
X141250000Y-105070000D02*
X129030000Y-105070000D01*
X141250000Y-105070000D02*
X141250000Y-102560000D01*
X138690000Y-98960000D02*
G75*
G02*
X131590000Y-98960000I-3550000J0D01*
G01*
X131590000Y-98960000D02*
G75*
G02*
X138690000Y-98960000I3550000J0D01*
G01*
%TO.C,SWQ_MAJ1*%
X26810000Y-115230000D02*
X39030000Y-115230000D01*
X26810000Y-117740000D02*
X26810000Y-115230000D01*
X26810000Y-122640000D02*
X26810000Y-120040000D01*
X26810000Y-127450000D02*
X26810000Y-124940000D01*
X39030000Y-117740000D02*
X39030000Y-115230000D01*
X39030000Y-122640000D02*
X39030000Y-120040000D01*
X39030000Y-127450000D02*
X26810000Y-127450000D01*
X39030000Y-127450000D02*
X39030000Y-124940000D01*
X36470000Y-121340000D02*
G75*
G02*
X29370000Y-121340000I-3550000J0D01*
G01*
X29370000Y-121340000D02*
G75*
G02*
X36470000Y-121340000I3550000J0D01*
G01*
%TO.C,C_BULK1*%
X86160000Y-30880000D02*
X86160000Y-31830000D01*
X86160000Y-36620000D02*
X86160000Y-35670000D01*
X85240000Y-35670000D02*
X87080000Y-35670000D01*
X87080000Y-31830000D01*
X85240000Y-31830000D01*
X85240000Y-35670000D01*
%TO.C,PULLUP_SCL1*%
X191166332Y-77268714D02*
X187326332Y-77268714D01*
X191166332Y-79108714D02*
X187326332Y-79108714D01*
%TO.C,SWEb1*%
X57910000Y-75070000D02*
X70130000Y-75070000D01*
X57910000Y-77580000D02*
X57910000Y-75070000D01*
X57910000Y-82480000D02*
X57910000Y-79880000D01*
X57910000Y-87290000D02*
X57910000Y-84780000D01*
X70130000Y-77580000D02*
X70130000Y-75070000D01*
X70130000Y-82480000D02*
X70130000Y-79880000D01*
X70130000Y-87290000D02*
X57910000Y-87290000D01*
X70130000Y-87290000D02*
X70130000Y-84780000D01*
X67570000Y-81180000D02*
G75*
G02*
X60470000Y-81180000I-3550000J0D01*
G01*
X60470000Y-81180000D02*
G75*
G02*
X67570000Y-81180000I3550000J0D01*
G01*
%TO.C,POT_DRUMVOL1*%
X124350000Y-58625000D02*
X124350000Y-55340000D01*
X127000000Y-58625000D02*
X124350000Y-58625000D01*
X129540000Y-52055000D02*
X139810000Y-52055000D01*
X129540000Y-58625000D02*
X129540000Y-52055000D01*
X129540000Y-58625000D02*
X139810000Y-58625000D01*
X139810000Y-58625000D02*
X139810000Y-52055000D01*
%TO.C,SW_GRVTGL1*%
X183220000Y-119120000D02*
X195440000Y-119120000D01*
X183220000Y-121630000D02*
X183220000Y-119120000D01*
X183220000Y-126530000D02*
X183220000Y-123930000D01*
X183220000Y-131340000D02*
X183220000Y-128830000D01*
X195440000Y-121630000D02*
X195440000Y-119120000D01*
X195440000Y-126530000D02*
X195440000Y-123930000D01*
X195440000Y-131340000D02*
X183220000Y-131340000D01*
X195440000Y-131340000D02*
X195440000Y-128830000D01*
X192880000Y-125230000D02*
G75*
G02*
X185780000Y-125230000I-3550000J0D01*
G01*
X185780000Y-125230000D02*
G75*
G02*
X192880000Y-125230000I3550000J0D01*
G01*
%TO.C,SWE_9th1*%
X87870000Y-141110000D02*
X100090000Y-141110000D01*
X87870000Y-143620000D02*
X87870000Y-141110000D01*
X87870000Y-148520000D02*
X87870000Y-145920000D01*
X87870000Y-153330000D02*
X87870000Y-150820000D01*
X100090000Y-143620000D02*
X100090000Y-141110000D01*
X100090000Y-148520000D02*
X100090000Y-145920000D01*
X100090000Y-153330000D02*
X87870000Y-153330000D01*
X100090000Y-153330000D02*
X100090000Y-150820000D01*
X97530000Y-147220000D02*
G75*
G02*
X90430000Y-147220000I-3550000J0D01*
G01*
X90430000Y-147220000D02*
G75*
G02*
X97530000Y-147220000I3550000J0D01*
G01*
%TO.C,SWPS_L1*%
X183220000Y-140630000D02*
X195440000Y-140630000D01*
X183220000Y-143140000D02*
X183220000Y-140630000D01*
X183220000Y-148040000D02*
X183220000Y-145440000D01*
X183220000Y-152850000D02*
X183220000Y-150340000D01*
X195440000Y-143140000D02*
X195440000Y-140630000D01*
X195440000Y-148040000D02*
X195440000Y-145440000D01*
X195440000Y-152850000D02*
X183220000Y-152850000D01*
X195440000Y-152850000D02*
X195440000Y-150340000D01*
X192880000Y-146740000D02*
G75*
G02*
X185780000Y-146740000I-3550000J0D01*
G01*
X185780000Y-146740000D02*
G75*
G02*
X192880000Y-146740000I3550000J0D01*
G01*
D17*
%TO.C,G\u002A\u002A\u002A*%
G36*
X108562482Y-118650425D02*
G01*
X108562482Y-118920638D01*
X108292269Y-118920638D01*
X108022056Y-118920638D01*
X108022056Y-118650425D01*
X108022056Y-118380212D01*
X108292269Y-118380212D01*
X108562482Y-118380212D01*
X108562482Y-118650425D01*
G37*
G36*
X107301489Y-117727198D02*
G01*
X107301489Y-118560354D01*
X107504148Y-118560354D01*
X107706808Y-118560354D01*
X107706808Y-118740496D01*
X107706808Y-118920638D01*
X107008758Y-118920638D01*
X106310709Y-118920638D01*
X106310709Y-118740496D01*
X106310709Y-118560354D01*
X106535886Y-118560354D01*
X106761063Y-118560354D01*
X106761063Y-118019929D01*
X106761063Y-117479503D01*
X106533167Y-117479503D01*
X106305271Y-117479503D01*
X106319249Y-117310620D01*
X106335699Y-117199100D01*
X106379231Y-117148516D01*
X106478784Y-117129749D01*
X106500923Y-117127831D01*
X106670179Y-117078610D01*
X106755100Y-117003983D01*
X106826200Y-116935366D01*
X106919467Y-116902566D01*
X107068115Y-116894044D01*
X107071534Y-116894042D01*
X107301489Y-116894042D01*
X107301489Y-117727198D01*
G37*
G36*
X105111961Y-117767567D02*
G01*
X105165071Y-117943272D01*
X105205759Y-118088091D01*
X105227725Y-118179158D01*
X105229858Y-118195404D01*
X105256351Y-118242887D01*
X105267432Y-118245106D01*
X105295221Y-118204777D01*
X105339862Y-118096135D01*
X105394263Y-117937694D01*
X105431350Y-117817269D01*
X105557695Y-117389432D01*
X105821613Y-117389432D01*
X105986192Y-117397087D01*
X106068800Y-117421041D01*
X106081817Y-117445727D01*
X106065705Y-117505208D01*
X106023523Y-117633686D01*
X105960576Y-117815729D01*
X105882169Y-118035904D01*
X105822529Y-118200071D01*
X105566956Y-118898120D01*
X105274513Y-118911181D01*
X104982069Y-118924242D01*
X104722305Y-118190614D01*
X104637400Y-117948826D01*
X104564228Y-117736630D01*
X104507680Y-117568522D01*
X104472646Y-117459001D01*
X104463398Y-117423209D01*
X104504758Y-117405234D01*
X104611201Y-117392982D01*
X104729160Y-117389432D01*
X104994065Y-117389432D01*
X105111961Y-117767567D01*
G37*
G36*
X117175209Y-108873690D02*
G01*
X117276885Y-108930845D01*
X117378068Y-109024238D01*
X117473190Y-109144057D01*
X117565232Y-109298022D01*
X117657176Y-109493860D01*
X117752004Y-109739291D01*
X117852697Y-110042041D01*
X117962236Y-110409832D01*
X118083603Y-110850388D01*
X118219779Y-111371431D01*
X118221257Y-111377198D01*
X118389649Y-112066595D01*
X118522398Y-112683852D01*
X118621228Y-113238785D01*
X118687858Y-113741209D01*
X118724010Y-114200940D01*
X118726617Y-114259468D01*
X118750272Y-114844929D01*
X118612177Y-115033318D01*
X118396425Y-115251798D01*
X118107257Y-115419660D01*
X117819066Y-115518119D01*
X117635175Y-115550573D01*
X117391600Y-115572153D01*
X117114304Y-115582768D01*
X116829245Y-115582327D01*
X116562387Y-115570740D01*
X116339688Y-115547916D01*
X116218510Y-115523717D01*
X115882867Y-115399138D01*
X115625024Y-115233747D01*
X115446671Y-115028691D01*
X115419444Y-114980639D01*
X115372230Y-114836037D01*
X115336858Y-114615722D01*
X115313272Y-114333260D01*
X115301410Y-114002218D01*
X115301217Y-113636166D01*
X115312632Y-113248669D01*
X115335598Y-112853296D01*
X115370055Y-112463613D01*
X115415946Y-112093188D01*
X115432359Y-111985177D01*
X115488012Y-111677189D01*
X115561650Y-111329490D01*
X115647337Y-110965696D01*
X115739134Y-110609419D01*
X115831103Y-110284276D01*
X115917307Y-110013880D01*
X115952414Y-109916936D01*
X116076843Y-109629795D01*
X116218461Y-109367229D01*
X116366182Y-109146551D01*
X116508916Y-108985072D01*
X116589139Y-108922827D01*
X116776899Y-108849561D01*
X116983468Y-108833312D01*
X117175209Y-108873690D01*
G37*
G36*
X109871387Y-116867696D02*
G01*
X109972766Y-116900526D01*
X110040457Y-116937989D01*
X110185911Y-117066133D01*
X110288257Y-117246499D01*
X110350891Y-117488822D01*
X110377207Y-117802837D01*
X110378531Y-117907340D01*
X110360729Y-118256507D01*
X110304362Y-118528318D01*
X110204993Y-118728773D01*
X110058180Y-118863873D01*
X109859486Y-118939619D01*
X109604471Y-118962010D01*
X109598297Y-118961950D01*
X109435742Y-118956540D01*
X109303872Y-118945820D01*
X109238014Y-118933868D01*
X109119012Y-118859843D01*
X108992200Y-118734721D01*
X108888153Y-118588884D01*
X108884799Y-118582872D01*
X108850317Y-118497228D01*
X108827719Y-118377715D01*
X108815083Y-118206866D01*
X108810481Y-117967214D01*
X108810356Y-117907340D01*
X109351682Y-117907340D01*
X109358392Y-118174545D01*
X109380995Y-118362591D01*
X109423205Y-118481560D01*
X109488738Y-118541537D01*
X109581305Y-118552606D01*
X109589024Y-118551795D01*
X109711189Y-118495853D01*
X109765473Y-118425248D01*
X109793456Y-118322392D01*
X109813177Y-118154271D01*
X109821941Y-117945517D01*
X109822147Y-117907340D01*
X109813352Y-117644012D01*
X109784363Y-117458470D01*
X109731273Y-117339914D01*
X109650175Y-117277543D01*
X109589024Y-117262886D01*
X109494390Y-117270857D01*
X109427056Y-117327018D01*
X109383308Y-117441455D01*
X109359431Y-117624249D01*
X109351713Y-117885485D01*
X109351682Y-117907340D01*
X108810356Y-117907340D01*
X108814670Y-117634360D01*
X108831415Y-117431640D01*
X108866295Y-117279618D01*
X108925015Y-117158734D01*
X109013280Y-117049429D01*
X109079550Y-116984291D01*
X109156138Y-116924492D01*
X109245374Y-116888204D01*
X109373939Y-116868203D01*
X109545442Y-116858153D01*
X109738615Y-116855131D01*
X109871387Y-116867696D01*
G37*
G36*
X146048270Y-109022791D02*
G01*
X146197648Y-109046342D01*
X146358878Y-109090839D01*
X146442187Y-109118073D01*
X146932230Y-109329577D01*
X147384102Y-109620647D01*
X147793694Y-109987465D01*
X148156894Y-110426215D01*
X148469592Y-110933080D01*
X148535444Y-111061950D01*
X148702994Y-111440681D01*
X148816913Y-111798726D01*
X148884338Y-112167660D01*
X148912407Y-112579060D01*
X148914255Y-112737835D01*
X148890214Y-113262692D01*
X148815432Y-113721768D01*
X148685918Y-114126268D01*
X148497684Y-114487399D01*
X148246739Y-114816365D01*
X148130641Y-114938733D01*
X147829100Y-115202785D01*
X147507931Y-115407325D01*
X147154370Y-115556731D01*
X146755654Y-115655381D01*
X146299018Y-115707652D01*
X145855898Y-115718888D01*
X145591841Y-115713098D01*
X145332140Y-115700227D01*
X145103470Y-115682058D01*
X144932506Y-115660371D01*
X144906099Y-115655469D01*
X144396476Y-115516243D01*
X143955118Y-115318321D01*
X143581764Y-115061456D01*
X143276148Y-114745402D01*
X143038007Y-114369913D01*
X142867076Y-113934744D01*
X142807116Y-113696525D01*
X142762223Y-113373148D01*
X142747190Y-112996479D01*
X142760583Y-112597685D01*
X142779971Y-112410555D01*
X145132765Y-112410555D01*
X145188663Y-112665316D01*
X145195017Y-112681048D01*
X145304700Y-112833010D01*
X145478799Y-112942924D01*
X145699656Y-113005846D01*
X145949612Y-113016829D01*
X146211010Y-112970930D01*
X146220323Y-112968181D01*
X146416452Y-112865450D01*
X146576695Y-112697628D01*
X146688495Y-112486623D01*
X146739296Y-112254341D01*
X146729810Y-112079336D01*
X146633886Y-111765529D01*
X146475558Y-111487925D01*
X146312099Y-111307948D01*
X146181332Y-111202689D01*
X146074491Y-111148797D01*
X145955512Y-111130454D01*
X145905336Y-111129503D01*
X145782095Y-111136933D01*
X145688863Y-111170176D01*
X145593005Y-111245659D01*
X145511181Y-111327920D01*
X145337212Y-111561312D01*
X145212508Y-111835151D01*
X145142536Y-112126033D01*
X145132765Y-112410555D01*
X142779971Y-112410555D01*
X142800965Y-112207932D01*
X142866899Y-111858388D01*
X142896940Y-111747307D01*
X143086627Y-111227968D01*
X143333555Y-110736471D01*
X143628972Y-110283841D01*
X143964123Y-109881107D01*
X144330256Y-109539294D01*
X144718619Y-109269431D01*
X144962714Y-109144847D01*
X145119471Y-109087843D01*
X145296721Y-109050792D01*
X145522656Y-109028658D01*
X145649727Y-109022140D01*
X145876908Y-109016089D01*
X146048270Y-109022791D01*
G37*
G36*
X133903658Y-109036726D02*
G01*
X134071890Y-109043595D01*
X134198831Y-109060093D01*
X134308866Y-109090351D01*
X134426381Y-109138499D01*
X134510996Y-109177870D01*
X134865246Y-109388629D01*
X135150744Y-109653654D01*
X135368576Y-109974932D01*
X135519829Y-110354448D01*
X135605591Y-110794187D01*
X135627805Y-111217777D01*
X135623048Y-111463226D01*
X135607893Y-111642492D01*
X135579224Y-111779170D01*
X135539786Y-111884182D01*
X135457409Y-112022303D01*
X135349268Y-112108938D01*
X135197311Y-112151581D01*
X134983485Y-112157728D01*
X134892789Y-112152789D01*
X134736796Y-112139688D01*
X134628488Y-112116856D01*
X134538699Y-112070105D01*
X134438261Y-111985245D01*
X134328540Y-111878303D01*
X134195167Y-111750447D01*
X134098673Y-111674717D01*
X134014236Y-111637621D01*
X133917036Y-111625666D01*
X133862357Y-111624893D01*
X133652167Y-111659963D01*
X133499578Y-111758163D01*
X133410334Y-111908977D01*
X133390180Y-112101892D01*
X133444858Y-112326392D01*
X133459763Y-112361901D01*
X133565848Y-112529179D01*
X133709987Y-112628614D01*
X133898443Y-112661198D01*
X134137480Y-112627922D01*
X134433363Y-112529778D01*
X134457872Y-112519890D01*
X134784694Y-112411597D01*
X135095613Y-112356024D01*
X135374352Y-112354271D01*
X135604632Y-112407441D01*
X135668524Y-112437961D01*
X135880708Y-112607061D01*
X136046947Y-112844006D01*
X136153581Y-113121967D01*
X136192775Y-113292915D01*
X136208976Y-113437242D01*
X136201898Y-113587313D01*
X136171254Y-113775494D01*
X136146741Y-113895241D01*
X136032039Y-114294912D01*
X135862672Y-114642159D01*
X135624637Y-114962671D01*
X135482404Y-115114039D01*
X135103012Y-115434250D01*
X134684859Y-115677553D01*
X134245725Y-115836288D01*
X134066845Y-115867070D01*
X133821967Y-115887523D01*
X133534565Y-115897683D01*
X133228113Y-115897588D01*
X132926086Y-115887275D01*
X132651958Y-115866780D01*
X132429203Y-115836141D01*
X132415062Y-115833403D01*
X132020838Y-115721654D01*
X131672579Y-115555688D01*
X131381660Y-115342961D01*
X131159458Y-115090927D01*
X131081132Y-114959321D01*
X130984803Y-114741874D01*
X130915694Y-114512117D01*
X130870584Y-114251124D01*
X130846256Y-113939967D01*
X130839490Y-113559721D01*
X130839553Y-113538900D01*
X130859246Y-112967841D01*
X130916574Y-112451396D01*
X131015964Y-111960458D01*
X131148755Y-111505093D01*
X131381060Y-110904755D01*
X131655641Y-110378269D01*
X131971004Y-109927679D01*
X132325655Y-109555030D01*
X132718100Y-109262367D01*
X132838339Y-109192978D01*
X132964625Y-109126330D01*
X133066813Y-109081743D01*
X133168283Y-109054785D01*
X133292418Y-109041024D01*
X133462602Y-109036025D01*
X133669751Y-109035354D01*
X133903658Y-109036726D01*
G37*
G36*
X157093160Y-108861837D02*
G01*
X157285865Y-108957192D01*
X157445641Y-109098887D01*
X157533727Y-109184662D01*
X157596673Y-109233624D01*
X157608446Y-109238014D01*
X157658221Y-109214432D01*
X157760472Y-109152382D01*
X157893791Y-109064906D01*
X157904010Y-109057979D01*
X158063400Y-108957316D01*
X158188656Y-108902314D01*
X158314339Y-108880376D01*
X158398285Y-108877838D01*
X158667748Y-108918026D01*
X158951894Y-109039979D01*
X159253801Y-109245407D01*
X159569066Y-109528564D01*
X160000215Y-110018726D01*
X160353477Y-110553928D01*
X160628618Y-111133572D01*
X160825405Y-111757064D01*
X160943604Y-112423806D01*
X160982982Y-113133202D01*
X160982976Y-113140656D01*
X160966454Y-113626610D01*
X160916167Y-114037944D01*
X160829056Y-114384714D01*
X160702061Y-114676976D01*
X160532122Y-114924786D01*
X160396779Y-115067169D01*
X160110597Y-115285301D01*
X159765407Y-115456821D01*
X159353836Y-115584587D01*
X158868512Y-115671456D01*
X158823238Y-115677092D01*
X158598452Y-115696952D01*
X158320128Y-115710434D01*
X158007536Y-115717713D01*
X157679948Y-115718967D01*
X157356633Y-115714371D01*
X157056862Y-115704103D01*
X156799905Y-115688338D01*
X156605034Y-115667253D01*
X156543343Y-115656210D01*
X156186906Y-115546357D01*
X155890439Y-115387530D01*
X155661531Y-115185266D01*
X155507771Y-114945101D01*
X155482941Y-114882568D01*
X155447955Y-114720228D01*
X155427430Y-114481245D01*
X155420796Y-114177786D01*
X155427485Y-113822018D01*
X155446931Y-113426106D01*
X155478564Y-113002217D01*
X155521817Y-112562516D01*
X155536539Y-112442322D01*
X157741205Y-112442322D01*
X157745419Y-112616480D01*
X157762954Y-112728865D01*
X157801152Y-112807579D01*
X157851747Y-112865416D01*
X158003273Y-112958102D01*
X158185561Y-112982179D01*
X158371831Y-112938333D01*
X158513024Y-112848416D01*
X158602037Y-112753670D01*
X158650226Y-112649547D01*
X158674136Y-112498123D01*
X158676208Y-112474381D01*
X158675050Y-112245754D01*
X158639719Y-112009587D01*
X158576954Y-111782962D01*
X158493495Y-111582963D01*
X158396083Y-111426674D01*
X158291455Y-111331176D01*
X158216707Y-111309645D01*
X158102880Y-111352202D01*
X157994601Y-111469963D01*
X157898108Y-111648065D01*
X157819642Y-111871643D01*
X157765443Y-112125835D01*
X157741750Y-112395775D01*
X157741205Y-112442322D01*
X155536539Y-112442322D01*
X155576121Y-112119171D01*
X155628728Y-111760000D01*
X155724558Y-111195282D01*
X155821662Y-110708909D01*
X155923165Y-110289171D01*
X156032195Y-109924360D01*
X156151876Y-109602769D01*
X156278648Y-109325909D01*
X156406976Y-109100127D01*
X156531590Y-108950760D01*
X156666728Y-108865957D01*
X156826629Y-108833869D01*
X156871323Y-108832695D01*
X157093160Y-108861837D01*
G37*
G36*
X123074867Y-109025353D02*
G01*
X123388857Y-109213840D01*
X123624772Y-109434741D01*
X123787576Y-109696801D01*
X123882237Y-110008762D01*
X123913720Y-110379371D01*
X123911743Y-110499007D01*
X123898113Y-110733508D01*
X123872742Y-110909634D01*
X123829498Y-111058907D01*
X123780157Y-111175396D01*
X123613824Y-111457211D01*
X123383056Y-111724055D01*
X123081770Y-111980993D01*
X122703880Y-112233088D01*
X122243302Y-112485407D01*
X122151932Y-112530854D01*
X122005716Y-112609795D01*
X121897991Y-112681644D01*
X121848983Y-112732623D01*
X121847943Y-112737928D01*
X121889394Y-112779148D01*
X122007357Y-112794292D01*
X122192246Y-112783739D01*
X122434473Y-112747867D01*
X122638345Y-112706719D01*
X122846359Y-112665779D01*
X123047400Y-112634763D01*
X123206880Y-112618758D01*
X123244042Y-112617637D01*
X123523609Y-112659638D01*
X123770567Y-112783596D01*
X123982218Y-112986509D01*
X124155864Y-113265376D01*
X124288805Y-113617193D01*
X124343655Y-113840991D01*
X124400279Y-114185373D01*
X124411762Y-114466869D01*
X124375523Y-114701972D01*
X124288982Y-114907177D01*
X124149558Y-115098980D01*
X124146233Y-115102770D01*
X123935359Y-115291339D01*
X123654155Y-115465746D01*
X123322285Y-115615552D01*
X122968760Y-115727943D01*
X122826416Y-115761130D01*
X122682250Y-115786564D01*
X122520244Y-115805532D01*
X122324381Y-115819319D01*
X122078645Y-115829212D01*
X121767019Y-115836496D01*
X121577730Y-115839618D01*
X121156107Y-115843128D01*
X120815589Y-115839523D01*
X120547471Y-115828512D01*
X120343046Y-115809802D01*
X120249184Y-115795109D01*
X119852010Y-115689708D01*
X119530495Y-115537453D01*
X119282411Y-115336733D01*
X119105533Y-115085934D01*
X119034043Y-114914942D01*
X118989608Y-114705939D01*
X118968829Y-114439388D01*
X118970553Y-114144330D01*
X118993627Y-113849804D01*
X119036898Y-113584850D01*
X119094604Y-113389575D01*
X119251119Y-113063712D01*
X119448135Y-112765753D01*
X119694278Y-112487748D01*
X119998179Y-112221746D01*
X120368466Y-111959798D01*
X120813768Y-111693953D01*
X121104858Y-111537426D01*
X121348364Y-111409782D01*
X121522847Y-111315338D01*
X121639642Y-111246607D01*
X121710085Y-111196103D01*
X121745512Y-111156340D01*
X121757258Y-111119832D01*
X121757872Y-111106170D01*
X121736287Y-111084998D01*
X121665592Y-111067953D01*
X121536873Y-111054259D01*
X121341217Y-111043142D01*
X121069710Y-111033827D01*
X120868421Y-111028818D01*
X120501970Y-111017863D01*
X120212464Y-111001615D01*
X119986815Y-110977376D01*
X119811936Y-110942449D01*
X119674736Y-110894136D01*
X119562130Y-110829739D01*
X119461027Y-110746559D01*
X119450443Y-110736527D01*
X119377838Y-110654457D01*
X119340340Y-110565543D01*
X119326998Y-110436103D01*
X119325957Y-110353681D01*
X119355513Y-110086728D01*
X119450823Y-109856969D01*
X119621847Y-109643702D01*
X119704879Y-109566086D01*
X120036298Y-109326471D01*
X120445027Y-109123861D01*
X120835856Y-108985445D01*
X120997264Y-108938662D01*
X121138733Y-108905299D01*
X121281543Y-108883012D01*
X121446976Y-108869459D01*
X121656312Y-108862295D01*
X121930832Y-108859177D01*
X121985189Y-108858883D01*
X122730415Y-108855212D01*
X123074867Y-109025353D01*
G37*
G36*
X127752206Y-108709612D02*
G01*
X127912033Y-108745217D01*
X128151167Y-108874903D01*
X128405481Y-109083588D01*
X128669297Y-109362647D01*
X128936932Y-109703458D01*
X129202706Y-110097398D01*
X129460938Y-110535843D01*
X129705948Y-111010170D01*
X129932055Y-111511755D01*
X130133578Y-112031975D01*
X130195434Y-112211408D01*
X130334269Y-112653813D01*
X130433740Y-113037418D01*
X130497445Y-113382584D01*
X130528986Y-113709676D01*
X130531963Y-114039055D01*
X130529671Y-114101844D01*
X130497857Y-114456085D01*
X130432627Y-114739838D01*
X130328541Y-114968230D01*
X130180158Y-115156391D01*
X130134970Y-115199401D01*
X129967575Y-115326443D01*
X129784640Y-115410134D01*
X129563857Y-115457116D01*
X129282914Y-115474031D01*
X129211241Y-115474377D01*
X128994056Y-115469393D01*
X128833505Y-115451735D01*
X128696395Y-115415355D01*
X128549533Y-115354205D01*
X128548150Y-115353563D01*
X128334966Y-115232862D01*
X128200301Y-115096001D01*
X128132658Y-114923628D01*
X128120542Y-114696389D01*
X128124003Y-114639531D01*
X128133577Y-114457922D01*
X128124008Y-114342313D01*
X128088061Y-114269423D01*
X128018501Y-114215972D01*
X127986985Y-114198657D01*
X127866030Y-114164670D01*
X127693660Y-114149933D01*
X127506371Y-114154087D01*
X127340657Y-114176773D01*
X127252198Y-114205879D01*
X127192519Y-114244234D01*
X127158404Y-114298331D01*
X127142525Y-114391829D01*
X127137555Y-114548383D01*
X127137312Y-114576758D01*
X127134203Y-114796521D01*
X127124801Y-114948516D01*
X127103244Y-115055043D01*
X127063668Y-115138404D01*
X127000212Y-115220900D01*
X126954460Y-115272378D01*
X126757936Y-115436728D01*
X126563484Y-115520203D01*
X126356539Y-115560313D01*
X126095807Y-115580526D01*
X125815239Y-115580994D01*
X125548782Y-115561870D01*
X125330388Y-115523308D01*
X125299463Y-115514517D01*
X125072595Y-115404807D01*
X124863020Y-115229721D01*
X124732160Y-115083872D01*
X124635512Y-114934313D01*
X124569148Y-114765204D01*
X124529145Y-114560705D01*
X124511576Y-114304976D01*
X124512516Y-113982178D01*
X124517083Y-113833833D01*
X124531427Y-113530649D01*
X124553030Y-113282321D01*
X124586904Y-113053663D01*
X124638063Y-112809490D01*
X124697035Y-112570638D01*
X124834802Y-112109859D01*
X127437173Y-112109859D01*
X127461769Y-112241091D01*
X127525729Y-112313945D01*
X127637719Y-112342897D01*
X127706482Y-112345461D01*
X127843776Y-112328042D01*
X127919432Y-112269807D01*
X127926145Y-112258350D01*
X127960636Y-112130929D01*
X127969106Y-111948064D01*
X127952868Y-111740134D01*
X127913234Y-111537519D01*
X127891982Y-111467269D01*
X127818572Y-111309509D01*
X127739416Y-111236054D01*
X127659729Y-111241809D01*
X127584724Y-111321679D01*
X127519617Y-111470568D01*
X127469622Y-111683379D01*
X127443274Y-111905769D01*
X127437173Y-112109859D01*
X124834802Y-112109859D01*
X124892088Y-111918257D01*
X125134110Y-111286547D01*
X125414192Y-110695539D01*
X125723429Y-110165260D01*
X125848683Y-109981099D01*
X126131205Y-109616187D01*
X126423168Y-109298150D01*
X126713451Y-109037371D01*
X126990934Y-108844233D01*
X127154668Y-108761752D01*
X127326960Y-108717373D01*
X127540437Y-108699681D01*
X127752206Y-108709612D01*
G37*
G36*
X106827418Y-108897927D02*
G01*
X107097771Y-109050566D01*
X107382152Y-109291082D01*
X107436595Y-109345391D01*
X107635304Y-109572648D01*
X107818290Y-109826844D01*
X107968377Y-110081351D01*
X108068389Y-110309543D01*
X108077953Y-110339666D01*
X108102923Y-110469699D01*
X108121666Y-110655696D01*
X108131071Y-110863603D01*
X108131604Y-110926844D01*
X108126716Y-111145393D01*
X108109662Y-111302195D01*
X108075751Y-111425262D01*
X108032148Y-111520508D01*
X107964048Y-111638535D01*
X107905697Y-111720101D01*
X107887593Y-111737084D01*
X107844952Y-111794740D01*
X107869547Y-111878361D01*
X107964930Y-111993129D01*
X108134652Y-112144225D01*
X108206178Y-112201834D01*
X108548684Y-112501681D01*
X108805701Y-112795245D01*
X108980670Y-113090534D01*
X109077030Y-113395556D01*
X109098223Y-113718319D01*
X109047691Y-114066830D01*
X109033012Y-114126158D01*
X108889927Y-114502813D01*
X108669222Y-114835393D01*
X108372664Y-115122375D01*
X108002021Y-115362235D01*
X107559059Y-115553448D01*
X107278971Y-115639003D01*
X107069247Y-115680039D01*
X106791077Y-115713086D01*
X106465777Y-115737606D01*
X106114662Y-115753060D01*
X105759049Y-115758907D01*
X105420254Y-115754609D01*
X105119593Y-115739627D01*
X104878382Y-115713421D01*
X104811593Y-115701424D01*
X104390894Y-115580786D01*
X104042357Y-115407326D01*
X103764088Y-115179490D01*
X103554191Y-114895722D01*
X103410771Y-114554466D01*
X103409718Y-114550933D01*
X103374496Y-114370750D01*
X103351359Y-114121453D01*
X103340348Y-113823187D01*
X103341500Y-113496100D01*
X103354855Y-113160339D01*
X103360164Y-113093077D01*
X105952754Y-113093077D01*
X105959355Y-113276023D01*
X105994346Y-113400862D01*
X106044070Y-113482164D01*
X106130256Y-113513425D01*
X106197005Y-113516383D01*
X106358616Y-113483913D01*
X106445815Y-113426312D01*
X106518073Y-113300245D01*
X106529279Y-113150177D01*
X106488359Y-113001037D01*
X106404234Y-112877754D01*
X106285828Y-112805256D01*
X106220125Y-112795815D01*
X106089891Y-112834876D01*
X105998517Y-112939996D01*
X105952754Y-113093077D01*
X103360164Y-113093077D01*
X103380452Y-112836050D01*
X103405978Y-112624521D01*
X103500630Y-112053412D01*
X103617700Y-111504545D01*
X103754008Y-110985922D01*
X103778250Y-110909493D01*
X105965117Y-110909493D01*
X106010981Y-111045430D01*
X106105381Y-111119601D01*
X106168973Y-111129503D01*
X106282238Y-111108891D01*
X106352409Y-111065969D01*
X106420092Y-110933677D01*
X106436829Y-110782365D01*
X106408594Y-110636437D01*
X106341363Y-110520300D01*
X106241109Y-110458360D01*
X106202596Y-110453971D01*
X106092464Y-110479497D01*
X106020164Y-110565594D01*
X105973985Y-110724653D01*
X105965117Y-110909493D01*
X103778250Y-110909493D01*
X103906376Y-110505543D01*
X104071624Y-110071409D01*
X104246574Y-109691520D01*
X104428047Y-109373877D01*
X104612864Y-109126480D01*
X104797846Y-108957330D01*
X104882824Y-108907664D01*
X105038826Y-108859959D01*
X105239725Y-108834778D01*
X105314765Y-108832695D01*
X105479939Y-108838692D01*
X105590918Y-108863973D01*
X105683190Y-108919470D01*
X105732891Y-108961511D01*
X105877062Y-109090328D01*
X106080185Y-108961511D01*
X106320658Y-108853975D01*
X106569057Y-108832588D01*
X106827418Y-108897927D01*
G37*
G36*
X138535498Y-109013488D02*
G01*
X138752336Y-109114807D01*
X138919466Y-109261903D01*
X138973981Y-109344090D01*
X139010916Y-109419195D01*
X139037056Y-109494799D01*
X139053934Y-109587165D01*
X139063084Y-109712553D01*
X139066039Y-109887224D01*
X139064333Y-110127439D01*
X139062181Y-110279271D01*
X139058490Y-110568389D01*
X139059927Y-110780475D01*
X139070059Y-110928556D01*
X139092450Y-111025659D01*
X139130668Y-111084810D01*
X139188279Y-111119035D01*
X139268851Y-111141361D01*
X139300060Y-111148119D01*
X139414812Y-111160989D01*
X139497948Y-111135189D01*
X139556470Y-111059172D01*
X139597376Y-110921394D01*
X139627666Y-110710307D01*
X139639744Y-110587832D01*
X139692855Y-110177654D01*
X139772319Y-109847178D01*
X139881423Y-109589036D01*
X140023456Y-109395861D01*
X140201709Y-109260285D01*
X140241657Y-109239598D01*
X140509795Y-109152867D01*
X140769718Y-109154343D01*
X141018966Y-109242345D01*
X141255078Y-109415195D01*
X141475591Y-109671211D01*
X141678046Y-110008713D01*
X141816787Y-110314879D01*
X141985088Y-110806796D01*
X142123257Y-111366741D01*
X142228617Y-111976957D01*
X142298493Y-112619687D01*
X142330206Y-113277175D01*
X142328898Y-113711926D01*
X142312933Y-114116519D01*
X142284738Y-114445049D01*
X142241232Y-114711054D01*
X142179337Y-114928077D01*
X142095974Y-115109657D01*
X141988063Y-115269336D01*
X141969506Y-115292313D01*
X141831422Y-115438739D01*
X141685510Y-115541418D01*
X141512468Y-115607179D01*
X141292992Y-115642854D01*
X141007779Y-115655273D01*
X140942978Y-115655567D01*
X140707768Y-115653383D01*
X140540443Y-115644726D01*
X140418881Y-115626437D01*
X140320956Y-115595355D01*
X140236279Y-115554653D01*
X140044535Y-115418332D01*
X139893657Y-115231193D01*
X139778025Y-114982727D01*
X139692019Y-114662423D01*
X139658779Y-114474712D01*
X139600692Y-114275017D01*
X139502564Y-114133219D01*
X139374879Y-114062405D01*
X139323947Y-114056808D01*
X139215302Y-114075475D01*
X139152721Y-114113103D01*
X139130672Y-114180572D01*
X139108729Y-114314933D01*
X139090225Y-114493065D01*
X139082955Y-114597234D01*
X139066121Y-114808729D01*
X139042419Y-115007786D01*
X139015961Y-115162220D01*
X139005258Y-115205212D01*
X138920687Y-115375604D01*
X138777522Y-115551855D01*
X138601671Y-115708641D01*
X138419041Y-115820634D01*
X138347904Y-115847818D01*
X138177932Y-115879297D01*
X137949818Y-115895684D01*
X137694145Y-115897382D01*
X137441499Y-115884794D01*
X137222464Y-115858326D01*
X137104374Y-115831404D01*
X136854708Y-115708908D01*
X136642016Y-115511949D01*
X136478262Y-115252596D01*
X136438832Y-115160177D01*
X136401674Y-115054402D01*
X136373735Y-114947438D01*
X136353233Y-114823026D01*
X136338385Y-114664907D01*
X136327406Y-114456822D01*
X136318515Y-114182513D01*
X136314579Y-114027304D01*
X136309327Y-113527542D01*
X136321191Y-113086238D01*
X136352688Y-112672971D01*
X136406336Y-112257317D01*
X136484653Y-111808856D01*
X136508038Y-111689768D01*
X136630351Y-111160754D01*
X136776402Y-110670823D01*
X136942279Y-110227950D01*
X137124071Y-109840110D01*
X137317867Y-109515281D01*
X137519755Y-109261437D01*
X137725823Y-109086554D01*
X137806857Y-109041294D01*
X138040746Y-108971021D01*
X138290964Y-108963656D01*
X138535498Y-109013488D01*
G37*
G36*
X111272705Y-108768754D02*
G01*
X111472848Y-108840151D01*
X111619239Y-108946320D01*
X111645697Y-108979021D01*
X111688305Y-109030244D01*
X111737857Y-109046120D01*
X111822925Y-109028366D01*
X111922374Y-108995667D01*
X112140782Y-108945561D01*
X112394549Y-108924334D01*
X112650869Y-108931614D01*
X112876937Y-108967032D01*
X112998475Y-109007838D01*
X113293727Y-109181688D01*
X113569312Y-109415233D01*
X113819438Y-109695965D01*
X114038314Y-110011382D01*
X114220146Y-110348978D01*
X114359143Y-110696248D01*
X114449512Y-111040688D01*
X114485462Y-111369794D01*
X114461200Y-111671059D01*
X114370935Y-111931980D01*
X114361191Y-111949846D01*
X114219457Y-112126994D01*
X114017306Y-112284960D01*
X113784380Y-112406086D01*
X113550321Y-112472712D01*
X113471347Y-112479960D01*
X113403604Y-112490849D01*
X113417394Y-112514813D01*
X113505656Y-112548678D01*
X113661329Y-112589272D01*
X113764077Y-112611478D01*
X114094047Y-112687416D01*
X114352747Y-112768756D01*
X114558933Y-112863737D01*
X114731362Y-112980598D01*
X114851376Y-113089119D01*
X114998936Y-113254750D01*
X115097869Y-113418191D01*
X115155097Y-113601805D01*
X115177545Y-113827959D01*
X115172136Y-114119019D01*
X115171859Y-114124361D01*
X115119991Y-114518209D01*
X115008590Y-114844536D01*
X114836896Y-115104069D01*
X114604153Y-115297538D01*
X114309603Y-115425672D01*
X113952486Y-115489200D01*
X113744645Y-115496954D01*
X113484941Y-115480705D01*
X113259214Y-115428457D01*
X113059318Y-115332528D01*
X112877108Y-115185235D01*
X112704439Y-114978896D01*
X112533166Y-114705828D01*
X112355143Y-114358348D01*
X112217791Y-114056808D01*
X112196232Y-114024052D01*
X112184993Y-114053873D01*
X112183503Y-114154590D01*
X112191190Y-114334523D01*
X112194578Y-114394574D01*
X112202435Y-114681763D01*
X112190392Y-114911961D01*
X112168125Y-115038882D01*
X112059855Y-115276288D01*
X111884141Y-115477185D01*
X111662177Y-115619853D01*
X111566676Y-115655310D01*
X111381190Y-115691453D01*
X111137674Y-115712835D01*
X110865710Y-115719503D01*
X110594879Y-115711503D01*
X110354764Y-115688880D01*
X110179666Y-115653157D01*
X109963196Y-115550448D01*
X109749023Y-115387498D01*
X109566455Y-115189992D01*
X109463356Y-115025412D01*
X109364056Y-114750841D01*
X109293295Y-114405176D01*
X109251696Y-114002959D01*
X109239881Y-113558730D01*
X109258470Y-113087030D01*
X109308086Y-112602401D01*
X109348453Y-112337781D01*
X109455143Y-111788662D01*
X109527769Y-111486186D01*
X112008198Y-111486186D01*
X112019195Y-111632942D01*
X112052445Y-111736252D01*
X112075248Y-111760812D01*
X112218386Y-111802142D01*
X112391851Y-111761271D01*
X112405928Y-111755034D01*
X112521394Y-111657611D01*
X112593766Y-111508908D01*
X112617591Y-111339470D01*
X112587418Y-111179845D01*
X112525602Y-111084468D01*
X112397131Y-111010308D01*
X112250351Y-111002827D01*
X112120775Y-111062093D01*
X112098489Y-111083668D01*
X112048870Y-111181706D01*
X112018432Y-111325826D01*
X112008198Y-111486186D01*
X109527769Y-111486186D01*
X109583148Y-111255539D01*
X109728688Y-110748389D01*
X109887986Y-110277187D01*
X110057262Y-109851912D01*
X110232739Y-109482538D01*
X110410638Y-109179044D01*
X110587179Y-108951406D01*
X110656608Y-108883791D01*
X110776645Y-108793523D01*
X110893796Y-108752153D01*
X111045452Y-108742624D01*
X111272705Y-108768754D01*
G37*
G36*
X151219159Y-108768754D02*
G01*
X151419302Y-108840151D01*
X151565693Y-108946320D01*
X151592151Y-108979021D01*
X151634758Y-109030244D01*
X151684311Y-109046120D01*
X151769379Y-109028366D01*
X151868827Y-108995667D01*
X152087236Y-108945561D01*
X152341003Y-108924334D01*
X152597323Y-108931614D01*
X152823391Y-108967032D01*
X152944928Y-109007838D01*
X153240181Y-109181688D01*
X153515766Y-109415233D01*
X153765892Y-109695965D01*
X153984768Y-110011382D01*
X154166600Y-110348978D01*
X154305596Y-110696248D01*
X154395966Y-111040688D01*
X154431916Y-111369794D01*
X154407654Y-111671059D01*
X154317389Y-111931980D01*
X154307644Y-111949846D01*
X154165911Y-112126994D01*
X153963760Y-112284960D01*
X153730834Y-112406086D01*
X153496775Y-112472712D01*
X153417801Y-112479960D01*
X153350058Y-112490849D01*
X153363848Y-112514813D01*
X153452110Y-112548678D01*
X153607783Y-112589272D01*
X153710531Y-112611478D01*
X154040501Y-112687416D01*
X154299201Y-112768756D01*
X154505387Y-112863737D01*
X154677816Y-112980598D01*
X154797830Y-113089119D01*
X154945390Y-113254750D01*
X155044323Y-113418191D01*
X155101551Y-113601805D01*
X155123999Y-113827959D01*
X155118590Y-114119019D01*
X155118313Y-114124361D01*
X155066445Y-114518209D01*
X154955044Y-114844536D01*
X154783350Y-115104069D01*
X154550607Y-115297538D01*
X154256056Y-115425672D01*
X153898940Y-115489200D01*
X153691098Y-115496954D01*
X153431395Y-115480705D01*
X153205668Y-115428457D01*
X153005772Y-115332528D01*
X152823562Y-115185235D01*
X152650893Y-114978896D01*
X152479619Y-114705828D01*
X152301597Y-114358348D01*
X152164245Y-114056808D01*
X152142685Y-114024052D01*
X152131447Y-114053873D01*
X152129957Y-114154590D01*
X152137643Y-114334523D01*
X152141032Y-114394574D01*
X152148889Y-114681763D01*
X152136846Y-114911961D01*
X152114579Y-115038882D01*
X152006308Y-115276288D01*
X151830595Y-115477185D01*
X151608631Y-115619853D01*
X151513130Y-115655310D01*
X151327644Y-115691453D01*
X151084128Y-115712835D01*
X150812164Y-115719503D01*
X150541333Y-115711503D01*
X150301218Y-115688880D01*
X150126120Y-115653157D01*
X149909650Y-115550448D01*
X149695477Y-115387498D01*
X149512909Y-115189992D01*
X149409810Y-115025412D01*
X149310510Y-114750841D01*
X149239749Y-114405176D01*
X149198150Y-114002959D01*
X149186334Y-113558730D01*
X149204924Y-113087030D01*
X149254540Y-112602401D01*
X149294907Y-112337781D01*
X149401597Y-111788662D01*
X149474222Y-111486186D01*
X151954652Y-111486186D01*
X151965648Y-111632942D01*
X151998898Y-111736252D01*
X152021702Y-111760812D01*
X152164840Y-111802142D01*
X152338305Y-111761271D01*
X152352382Y-111755034D01*
X152467848Y-111657611D01*
X152540220Y-111508908D01*
X152564045Y-111339470D01*
X152533872Y-111179845D01*
X152472056Y-111084468D01*
X152343585Y-111010308D01*
X152196805Y-111002827D01*
X152067228Y-111062093D01*
X152044943Y-111083668D01*
X151995324Y-111181706D01*
X151964885Y-111325826D01*
X151954652Y-111486186D01*
X149474222Y-111486186D01*
X149529601Y-111255539D01*
X149675142Y-110748389D01*
X149834440Y-110277187D01*
X150003716Y-109851912D01*
X150179193Y-109482538D01*
X150357091Y-109179044D01*
X150533633Y-108951406D01*
X150603062Y-108883791D01*
X150723099Y-108793523D01*
X150840250Y-108752153D01*
X150991906Y-108742624D01*
X151219159Y-108768754D01*
G37*
D15*
%TO.C,DECOUP_TRILL1*%
X184997636Y-83711601D02*
X185947636Y-83711601D01*
X190737636Y-83711601D02*
X189787636Y-83711601D01*
X189787636Y-84631601D02*
X185947636Y-84631601D01*
X185947636Y-82791601D01*
X189787636Y-82791601D01*
X189787636Y-84631601D01*
%TO.C,DECOUP_AMP1*%
X171450000Y-76600000D02*
X171450000Y-77550000D01*
X171450000Y-82340000D02*
X171450000Y-81390000D01*
X170530000Y-81390000D02*
X172370000Y-81390000D01*
X172370000Y-77550000D01*
X170530000Y-77550000D01*
X170530000Y-81390000D01*
%TO.C,POT_BPM1*%
X98950000Y-58625000D02*
X98950000Y-55340000D01*
X101600000Y-58625000D02*
X98950000Y-58625000D01*
X104140000Y-52055000D02*
X114410000Y-52055000D01*
X104140000Y-58625000D02*
X104140000Y-52055000D01*
X104140000Y-58625000D02*
X114410000Y-58625000D01*
X114410000Y-58625000D02*
X114410000Y-52055000D01*
%TD*%
M02*
