M48
; DRILL file {KiCad 9.0.2} date 2025-07-13T09:31:32-0400
; FORMAT={-:-/ absolute / metric / decimal}
; #@! TF.CreationDate,2025-07-13T09:31:32-04:00
; #@! TF.GenerationSoftware,Kicad,Pcbnew,9.0.2
; #@! TF.FileFunction,Plated,1,2,PTH
FMAT,2
METRIC
; #@! TA.AperFunction,Plated,PTH,ViaDrill
T1C0.300
; #@! TA.AperFunction,Plated,PTH,ComponentDrill
T2C0.700
; #@! TA.AperFunction,Plated,PTH,ComponentDrill
T3C1.000
; #@! TA.AperFunction,Plated,PTH,ComponentDrill
T4C1.100
; #@! TA.AperFunction,Plated,PTH,ComponentDrill
T5C1.300
; #@! TA.AperFunction,Plated,PTH,ComponentDrill
T6C1.750
%
G90
G05
T1
X47.41Y-65.9
X47.41Y-68.44
X47.41Y-70.98
X47.41Y-73.52
X55.88Y-74.39
X65.84Y-56.61
X66.04Y-55.34
X88.73Y-88.36
X88.73Y-94.42
X91.23Y-88.36
X91.23Y-94.42
X91.792Y-64.23
X91.874Y-62.91
X93.73Y-88.36
X93.73Y-94.42
X93.98Y-37.56
X95.67Y-70.98
X96.23Y-88.36
X96.23Y-94.42
X100.33Y-43.91
X106.68Y-43.91
X106.68Y-46.45
X115.99Y-68.44
X120.65Y-43.91
X123.19Y-46.45
X136.31Y-65.9
X146.05Y-43.91
X148.59Y-46.45
X179.07Y-65.5
X179.07Y-70.58
X186.69Y-65.5
X186.69Y-69.31
T2
X86.16Y-29.94
X86.16Y-37.56
X171.45Y-75.66
X171.45Y-83.28
X184.058Y-83.712
X186.706Y-78.189
X186.764Y-80.865
X191.678Y-83.712
X191.786Y-78.189
X191.844Y-80.865
T3
X168.91Y-89.503
X171.45Y-89.503
X172.163Y-106.902
X173.99Y-89.503
X175.663Y-106.902
X176.53Y-89.503
X179.07Y-89.503
X195.896Y-78.275
X195.896Y-80.815
X195.896Y-83.355
X195.896Y-85.895
T4
X34.29Y-29.94
X34.29Y-45.18
X36.83Y-29.94
X36.83Y-45.18
X39.37Y-29.94
X39.37Y-45.18
X41.91Y-29.94
X41.91Y-45.18
X44.45Y-29.94
X44.45Y-45.18
X46.99Y-29.94
X46.99Y-45.18
X49.53Y-29.94
X49.53Y-45.18
X52.07Y-29.94
X52.07Y-45.18
X54.61Y-29.94
X54.61Y-45.18
X57.15Y-29.94
X57.15Y-45.18
X59.69Y-29.94
X59.69Y-45.18
X62.23Y-29.94
X62.23Y-45.18
X64.77Y-29.94
X64.77Y-45.18
X67.31Y-29.94
X67.31Y-45.18
X69.85Y-29.94
X69.85Y-45.18
X72.39Y-29.94
X72.39Y-45.18
X74.93Y-29.94
X74.93Y-45.18
X77.47Y-29.94
X77.47Y-45.18
X80.01Y-29.94
X80.01Y-45.18
X82.55Y-29.94
X82.55Y-45.18
T5
X26.67Y-96.46
X26.67Y-101.46
X26.67Y-118.84
X26.67Y-123.84
X26.67Y-144.72
X26.67Y-149.72
X37.45Y-78.6
X37.45Y-83.6
X39.17Y-96.46
X39.17Y-101.46
X39.17Y-118.84
X39.17Y-123.84
X39.17Y-144.72
X39.17Y-149.72
X46.99Y-118.84
X46.99Y-123.84
X47.09Y-144.72
X47.09Y-149.72
X47.61Y-96.46
X47.61Y-101.46
X49.95Y-78.6
X49.95Y-83.6
X57.77Y-78.68
X57.77Y-83.68
X59.49Y-118.84
X59.49Y-123.84
X59.59Y-144.72
X59.59Y-149.72
X60.11Y-96.46
X60.11Y-101.46
X67.31Y-119.32
X67.31Y-124.32
X67.41Y-144.72
X67.41Y-149.72
X67.93Y-96.46
X67.93Y-101.46
X70.27Y-78.68
X70.27Y-83.68
X79.81Y-119.32
X79.81Y-124.32
X79.91Y-144.72
X79.91Y-149.72
X80.43Y-96.46
X80.43Y-101.46
X87.63Y-119.32
X87.63Y-124.32
X87.73Y-144.72
X87.73Y-149.72
X88.25Y-96.46
X88.25Y-101.46
X98.41Y-78.68
X98.41Y-83.68
X100.13Y-119.32
X100.13Y-124.32
X100.23Y-144.72
X100.23Y-149.72
X100.75Y-96.46
X100.75Y-101.46
X107.95Y-144.72
X107.95Y-149.72
X108.57Y-96.46
X108.57Y-101.46
X110.91Y-78.68
X110.91Y-83.68
X118.73Y-78.6
X118.73Y-83.6
X120.45Y-144.72
X120.45Y-149.72
X121.07Y-96.46
X121.07Y-101.46
X128.89Y-96.46
X128.89Y-101.46
X131.23Y-78.6
X131.23Y-83.6
X139.05Y-78.68
X139.05Y-83.68
X141.39Y-96.46
X141.39Y-101.46
X149.01Y-96.46
X149.01Y-101.46
X151.55Y-78.68
X151.55Y-83.68
X161.51Y-96.46
X161.51Y-101.46
X183.08Y-122.73
X183.08Y-127.73
X183.08Y-144.24
X183.08Y-149.24
X195.58Y-122.73
X195.58Y-127.73
X195.58Y-144.24
X195.58Y-149.24
X202.13Y-144.32
X202.13Y-149.32
X214.63Y-144.32
X214.63Y-149.32
T6
X101.6Y-55.34
X106.68Y-55.34
X111.76Y-55.34
X127.0Y-55.34
X132.08Y-55.34
X137.16Y-55.34
X152.4Y-55.34
X157.48Y-55.34
X162.56Y-55.34
X177.8Y-55.34
X182.88Y-55.34
X187.96Y-55.34
M30
