%TF.GenerationSoftware,KiCad,Pcbnew,9.0.2*%
%TF.CreationDate,2025-07-13T09:31:29-04:00*%
%TF.ProjectId,Brizachord,4272697a-6163-4686-9f72-642e6b696361,0*%
%TF.SameCoordinates,Original*%
%TF.FileFunction,Legend,Bot*%
%TF.FilePolarity,Positive*%
%FSLAX46Y46*%
G04 Gerber Fmt 4.6, Leading zero omitted, Abs format (unit mm)*
G04 Created by KiCad (PCBNEW 9.0.2) date 2025-07-13 09:31:29*
%MOMM*%
%LPD*%
G01*
G04 APERTURE LIST*
%ADD10C,0.300000*%
G04 APERTURE END LIST*
D10*
X211948346Y-157405912D02*
X212448346Y-156691626D01*
X212805489Y-157405912D02*
X212805489Y-155905912D01*
X212805489Y-155905912D02*
X212234060Y-155905912D01*
X212234060Y-155905912D02*
X212091203Y-155977341D01*
X212091203Y-155977341D02*
X212019774Y-156048769D01*
X212019774Y-156048769D02*
X211948346Y-156191626D01*
X211948346Y-156191626D02*
X211948346Y-156405912D01*
X211948346Y-156405912D02*
X212019774Y-156548769D01*
X212019774Y-156548769D02*
X212091203Y-156620198D01*
X212091203Y-156620198D02*
X212234060Y-156691626D01*
X212234060Y-156691626D02*
X212805489Y-156691626D01*
X210734060Y-157334484D02*
X210876917Y-157405912D01*
X210876917Y-157405912D02*
X211162632Y-157405912D01*
X211162632Y-157405912D02*
X211305489Y-157334484D01*
X211305489Y-157334484D02*
X211376917Y-157191626D01*
X211376917Y-157191626D02*
X211376917Y-156620198D01*
X211376917Y-156620198D02*
X211305489Y-156477341D01*
X211305489Y-156477341D02*
X211162632Y-156405912D01*
X211162632Y-156405912D02*
X210876917Y-156405912D01*
X210876917Y-156405912D02*
X210734060Y-156477341D01*
X210734060Y-156477341D02*
X210662632Y-156620198D01*
X210662632Y-156620198D02*
X210662632Y-156763055D01*
X210662632Y-156763055D02*
X211376917Y-156905912D01*
X210162632Y-156405912D02*
X209805489Y-157405912D01*
X209805489Y-157405912D02*
X209448346Y-156405912D01*
X207448346Y-155905912D02*
X207305489Y-155905912D01*
X207305489Y-155905912D02*
X207162632Y-155977341D01*
X207162632Y-155977341D02*
X207091204Y-156048769D01*
X207091204Y-156048769D02*
X207019775Y-156191626D01*
X207019775Y-156191626D02*
X206948346Y-156477341D01*
X206948346Y-156477341D02*
X206948346Y-156834484D01*
X206948346Y-156834484D02*
X207019775Y-157120198D01*
X207019775Y-157120198D02*
X207091204Y-157263055D01*
X207091204Y-157263055D02*
X207162632Y-157334484D01*
X207162632Y-157334484D02*
X207305489Y-157405912D01*
X207305489Y-157405912D02*
X207448346Y-157405912D01*
X207448346Y-157405912D02*
X207591204Y-157334484D01*
X207591204Y-157334484D02*
X207662632Y-157263055D01*
X207662632Y-157263055D02*
X207734061Y-157120198D01*
X207734061Y-157120198D02*
X207805489Y-156834484D01*
X207805489Y-156834484D02*
X207805489Y-156477341D01*
X207805489Y-156477341D02*
X207734061Y-156191626D01*
X207734061Y-156191626D02*
X207662632Y-156048769D01*
X207662632Y-156048769D02*
X207591204Y-155977341D01*
X207591204Y-155977341D02*
X207448346Y-155905912D01*
X212305489Y-159035114D02*
X212091203Y-159106542D01*
X212091203Y-159106542D02*
X212019774Y-159177971D01*
X212019774Y-159177971D02*
X211948346Y-159320828D01*
X211948346Y-159320828D02*
X211948346Y-159535114D01*
X211948346Y-159535114D02*
X212019774Y-159677971D01*
X212019774Y-159677971D02*
X212091203Y-159749400D01*
X212091203Y-159749400D02*
X212234060Y-159820828D01*
X212234060Y-159820828D02*
X212805489Y-159820828D01*
X212805489Y-159820828D02*
X212805489Y-158320828D01*
X212805489Y-158320828D02*
X212305489Y-158320828D01*
X212305489Y-158320828D02*
X212162632Y-158392257D01*
X212162632Y-158392257D02*
X212091203Y-158463685D01*
X212091203Y-158463685D02*
X212019774Y-158606542D01*
X212019774Y-158606542D02*
X212019774Y-158749400D01*
X212019774Y-158749400D02*
X212091203Y-158892257D01*
X212091203Y-158892257D02*
X212162632Y-158963685D01*
X212162632Y-158963685D02*
X212305489Y-159035114D01*
X212305489Y-159035114D02*
X212805489Y-159035114D01*
X211448346Y-158820828D02*
X211091203Y-159820828D01*
X210734060Y-158820828D02*
X211091203Y-159820828D01*
X211091203Y-159820828D02*
X211234060Y-160177971D01*
X211234060Y-160177971D02*
X211305489Y-160249400D01*
X211305489Y-160249400D02*
X211448346Y-160320828D01*
X208591203Y-158320828D02*
X208591203Y-159392257D01*
X208591203Y-159392257D02*
X208662632Y-159606542D01*
X208662632Y-159606542D02*
X208805489Y-159749400D01*
X208805489Y-159749400D02*
X209019775Y-159820828D01*
X209019775Y-159820828D02*
X209162632Y-159820828D01*
X207234061Y-159820828D02*
X207234061Y-159035114D01*
X207234061Y-159035114D02*
X207305489Y-158892257D01*
X207305489Y-158892257D02*
X207448346Y-158820828D01*
X207448346Y-158820828D02*
X207734061Y-158820828D01*
X207734061Y-158820828D02*
X207876918Y-158892257D01*
X207234061Y-159749400D02*
X207376918Y-159820828D01*
X207376918Y-159820828D02*
X207734061Y-159820828D01*
X207734061Y-159820828D02*
X207876918Y-159749400D01*
X207876918Y-159749400D02*
X207948346Y-159606542D01*
X207948346Y-159606542D02*
X207948346Y-159463685D01*
X207948346Y-159463685D02*
X207876918Y-159320828D01*
X207876918Y-159320828D02*
X207734061Y-159249400D01*
X207734061Y-159249400D02*
X207376918Y-159249400D01*
X207376918Y-159249400D02*
X207234061Y-159177971D01*
X205876918Y-159749400D02*
X206019775Y-159820828D01*
X206019775Y-159820828D02*
X206305489Y-159820828D01*
X206305489Y-159820828D02*
X206448346Y-159749400D01*
X206448346Y-159749400D02*
X206519775Y-159677971D01*
X206519775Y-159677971D02*
X206591203Y-159535114D01*
X206591203Y-159535114D02*
X206591203Y-159106542D01*
X206591203Y-159106542D02*
X206519775Y-158963685D01*
X206519775Y-158963685D02*
X206448346Y-158892257D01*
X206448346Y-158892257D02*
X206305489Y-158820828D01*
X206305489Y-158820828D02*
X206019775Y-158820828D01*
X206019775Y-158820828D02*
X205876918Y-158892257D01*
X205234061Y-159820828D02*
X205234061Y-158320828D01*
X205091204Y-159249400D02*
X204662632Y-159820828D01*
X204662632Y-158820828D02*
X205234061Y-159392257D01*
X202876918Y-159820828D02*
X202876918Y-158320828D01*
X202876918Y-158320828D02*
X202305489Y-158320828D01*
X202305489Y-158320828D02*
X202162632Y-158392257D01*
X202162632Y-158392257D02*
X202091203Y-158463685D01*
X202091203Y-158463685D02*
X202019775Y-158606542D01*
X202019775Y-158606542D02*
X202019775Y-158820828D01*
X202019775Y-158820828D02*
X202091203Y-158963685D01*
X202091203Y-158963685D02*
X202162632Y-159035114D01*
X202162632Y-159035114D02*
X202305489Y-159106542D01*
X202305489Y-159106542D02*
X202876918Y-159106542D01*
X200734061Y-159820828D02*
X200734061Y-159035114D01*
X200734061Y-159035114D02*
X200805489Y-158892257D01*
X200805489Y-158892257D02*
X200948346Y-158820828D01*
X200948346Y-158820828D02*
X201234061Y-158820828D01*
X201234061Y-158820828D02*
X201376918Y-158892257D01*
X200734061Y-159749400D02*
X200876918Y-159820828D01*
X200876918Y-159820828D02*
X201234061Y-159820828D01*
X201234061Y-159820828D02*
X201376918Y-159749400D01*
X201376918Y-159749400D02*
X201448346Y-159606542D01*
X201448346Y-159606542D02*
X201448346Y-159463685D01*
X201448346Y-159463685D02*
X201376918Y-159320828D01*
X201376918Y-159320828D02*
X201234061Y-159249400D01*
X201234061Y-159249400D02*
X200876918Y-159249400D01*
X200876918Y-159249400D02*
X200734061Y-159177971D01*
X200162632Y-158820828D02*
X199805489Y-159820828D01*
X199448346Y-158820828D02*
X199805489Y-159820828D01*
X199805489Y-159820828D02*
X199948346Y-160177971D01*
X199948346Y-160177971D02*
X200019775Y-160249400D01*
X200019775Y-160249400D02*
X200162632Y-160320828D01*
X198876918Y-158820828D02*
X198876918Y-159820828D01*
X198876918Y-158963685D02*
X198805489Y-158892257D01*
X198805489Y-158892257D02*
X198662632Y-158820828D01*
X198662632Y-158820828D02*
X198448346Y-158820828D01*
X198448346Y-158820828D02*
X198305489Y-158892257D01*
X198305489Y-158892257D02*
X198234061Y-159035114D01*
X198234061Y-159035114D02*
X198234061Y-159820828D01*
X196948346Y-159749400D02*
X197091203Y-159820828D01*
X197091203Y-159820828D02*
X197376918Y-159820828D01*
X197376918Y-159820828D02*
X197519775Y-159749400D01*
X197519775Y-159749400D02*
X197591203Y-159606542D01*
X197591203Y-159606542D02*
X197591203Y-159035114D01*
X197591203Y-159035114D02*
X197519775Y-158892257D01*
X197519775Y-158892257D02*
X197376918Y-158820828D01*
X197376918Y-158820828D02*
X197091203Y-158820828D01*
X197091203Y-158820828D02*
X196948346Y-158892257D01*
X196948346Y-158892257D02*
X196876918Y-159035114D01*
X196876918Y-159035114D02*
X196876918Y-159177971D01*
X196876918Y-159177971D02*
X197591203Y-159320828D01*
M02*
