%TF.GenerationSoftware,KiCad,Pcbnew,9.0.2*%
%TF.CreationDate,2025-07-13T09:31:28-04:00*%
%TF.ProjectId,Brizachord,4272697a-6163-4686-9f72-642e6b696361,0*%
%TF.SameCoordinates,Original*%
%TF.FileFunction,Copper,L1,Top*%
%TF.FilePolarity,Positive*%
%FSLAX46Y46*%
G04 Gerber Fmt 4.6, Leading zero omitted, Abs format (unit mm)*
G04 Created by KiCad (PCBNEW 9.0.2) date 2025-07-13 09:31:28*
%MOMM*%
%LPD*%
G01*
G04 APERTURE LIST*
%TA.AperFunction,ComponentPad*%
%ADD10C,2.800000*%
%TD*%
%TA.AperFunction,ComponentPad*%
%ADD11R,2.800000X2.800000*%
%TD*%
%TA.AperFunction,ComponentPad*%
%ADD12O,3.200000X1.900000*%
%TD*%
%TA.AperFunction,ComponentPad*%
%ADD13R,1.700000X1.700000*%
%TD*%
%TA.AperFunction,ComponentPad*%
%ADD14C,1.700000*%
%TD*%
%TA.AperFunction,ComponentPad*%
%ADD15C,1.400000*%
%TD*%
%TA.AperFunction,ComponentPad*%
%ADD16R,1.778000X1.778000*%
%TD*%
%TA.AperFunction,ComponentPad*%
%ADD17C,1.778000*%
%TD*%
%TA.AperFunction,ComponentPad*%
%ADD18C,2.184400*%
%TD*%
%TA.AperFunction,ViaPad*%
%ADD19C,0.760000*%
%TD*%
%TA.AperFunction,Conductor*%
%ADD20C,0.304800*%
%TD*%
%TA.AperFunction,Conductor*%
%ADD21C,0.600000*%
%TD*%
%TA.AperFunction,Conductor*%
%ADD22C,0.305000*%
%TD*%
G04 APERTURE END LIST*
D10*
%TO.P,POT_STRUMVOL1,3,3*%
%TO.N,GND*%
X187960000Y-55340000D03*
%TO.P,POT_STRUMVOL1,2,2*%
%TO.N,/A0*%
X182880000Y-55340000D03*
D11*
%TO.P,POT_STRUMVOL1,1,1*%
%TO.N,/3V3_A*%
X177800000Y-55340000D03*
%TD*%
D12*
%TO.P,SWAb1,1,A*%
%TO.N,GND*%
X131230000Y-83600000D03*
X118730000Y-83600000D03*
%TO.P,SWAb1,2,B*%
%TO.N,N/C*%
X131230000Y-78600000D03*
%TO.N,/D3*%
X118730000Y-78600000D03*
%TD*%
D13*
%TO.P,TrillBar1,1,Gnd*%
%TO.N,GND*%
X195896274Y-85895387D03*
D14*
%TO.P,TrillBar1,2,Vcc*%
%TO.N,/3V3_A*%
X195896274Y-83355387D03*
%TO.P,TrillBar1,3,SDA*%
%TO.N,/I2C_SDA*%
X195896274Y-80815387D03*
%TO.P,TrillBar1,4,SCL*%
%TO.N,/I2C_SCL*%
X195896274Y-78275387D03*
%TD*%
%TO.P,A1,16,AUDIO_IN_1*%
%TO.N,GND*%
X72390000Y-45180000D03*
D13*
%TO.P,A1,1,USB_ID*%
%TO.N,/D0*%
X34290000Y-45180000D03*
D14*
%TO.P,A1,2,SD_DATA_3*%
%TO.N,/D1*%
X36830000Y-45180000D03*
%TO.P,A1,3,SD_DATA_2*%
%TO.N,/D2*%
X39370000Y-45180000D03*
%TO.P,A1,4,SD_DATA_1*%
%TO.N,/D3*%
X41910000Y-45180000D03*
%TO.P,A1,5,SD_DATA_0*%
%TO.N,/D4*%
X44450000Y-45180000D03*
%TO.P,A1,6,SD_CMD*%
%TO.N,/D5*%
X46990000Y-45180000D03*
%TO.P,A1,7,SD_CLK*%
%TO.N,/D6*%
X49530000Y-45180000D03*
%TO.P,A1,8,SPI1_CS*%
%TO.N,/D7*%
X52070000Y-45180000D03*
%TO.P,A1,9,SPI1_SCK*%
%TO.N,/D8*%
X54610000Y-45180000D03*
%TO.P,A1,10,SPI1_POCI*%
%TO.N,/D9*%
X57150000Y-45180000D03*
%TO.P,A1,11,SPI1_PICO*%
%TO.N,/D10*%
X59690000Y-45180000D03*
%TO.P,A1,12,I2C1_SCL*%
%TO.N,/I2C_SCL*%
X62230000Y-45180000D03*
%TO.P,A1,13,I2C1_SDA*%
%TO.N,/I2C_SDA*%
X64770000Y-45180000D03*
%TO.P,A1,14,USART1_TX*%
%TO.N,/D13*%
X67310000Y-45180000D03*
%TO.P,A1,15,USART1_RX*%
%TO.N,/D14*%
X69850000Y-45180000D03*
%TO.P,A1,17,AUDIO_IN_2*%
%TO.N,GND*%
X74930000Y-45180000D03*
%TO.P,A1,18,AUDIO_OUT_1*%
%TO.N,/LINE_OUT*%
X77470000Y-45180000D03*
%TO.P,A1,19,AUDIO_OUT_2*%
%TO.N,N/C*%
X80010000Y-45180000D03*
%TO.P,A1,20,AGND*%
%TO.N,GND*%
X82550000Y-45180000D03*
%TO.P,A1,21,3V3_A*%
%TO.N,/3V3_A*%
X82550000Y-29940000D03*
%TO.P,A1,22,ADC_0*%
%TO.N,/A0*%
X80010000Y-29940000D03*
%TO.P,A1,23,ADC_1*%
%TO.N,/A1*%
X77470000Y-29940000D03*
%TO.P,A1,24,ADC_2*%
%TO.N,/A2*%
X74930000Y-29940000D03*
%TO.P,A1,25,ADC_3*%
%TO.N,/A3*%
X72390000Y-29940000D03*
%TO.P,A1,26,ADC_4*%
%TO.N,/D19*%
X69850000Y-29940000D03*
%TO.P,A1,27,ADC_5*%
%TO.N,/D20*%
X67310000Y-29940000D03*
%TO.P,A1,28,ADC_6*%
%TO.N,/D21*%
X64770000Y-29940000D03*
%TO.P,A1,29,DAC_OUT2*%
%TO.N,/D22*%
X62230000Y-29940000D03*
%TO.P,A1,30,DAC_OUT1*%
%TO.N,/D23*%
X59690000Y-29940000D03*
%TO.P,A1,31,SAI2_MCLK*%
%TO.N,/D24*%
X57150000Y-29940000D03*
%TO.P,A1,32,SAI2_SD_B*%
%TO.N,/D25*%
X54610000Y-29940000D03*
%TO.P,A1,33,SAI2_SD_A*%
%TO.N,/D26*%
X52070000Y-29940000D03*
%TO.P,A1,34,SAI2_FS*%
%TO.N,/D27*%
X49530000Y-29940000D03*
%TO.P,A1,35,SAI2_SCK*%
%TO.N,/D28*%
X46990000Y-29940000D03*
%TO.P,A1,36,USB_D_-*%
%TO.N,/D29*%
X44450000Y-29940000D03*
%TO.P,A1,37,USB_D_+*%
%TO.N,/D30*%
X41910000Y-29940000D03*
%TO.P,A1,38,3V3_D*%
%TO.N,N/C*%
X39370000Y-29940000D03*
%TO.P,A1,39,VIN*%
X36830000Y-29940000D03*
%TO.P,A1,40,DGND*%
%TO.N,GND*%
X34290000Y-29940000D03*
%TD*%
D12*
%TO.P,SWF1,1,A*%
%TO.N,GND*%
X100750000Y-101460000D03*
X88250000Y-101460000D03*
%TO.P,SWF1,2,B*%
%TO.N,N/C*%
X100750000Y-96460000D03*
%TO.N,/D8*%
X88250000Y-96460000D03*
%TD*%
%TO.P,SWD1,1,A*%
%TO.N,GND*%
X60110000Y-101460000D03*
X47610000Y-101460000D03*
%TO.P,SWD1,2,B*%
%TO.N,N/C*%
X60110000Y-96460000D03*
%TO.N,/D6*%
X47610000Y-96460000D03*
%TD*%
%TO.P,SWQ_MIN1,1,A*%
%TO.N,GND*%
X59490000Y-123840000D03*
X46990000Y-123840000D03*
%TO.P,SWQ_MIN1,2,B*%
%TO.N,/D21*%
X59490000Y-118840000D03*
%TO.N,N/C*%
X46990000Y-118840000D03*
%TD*%
%TO.P,SWDb1,1,A*%
%TO.N,GND*%
X49950000Y-83600000D03*
X37450000Y-83600000D03*
%TO.P,SWDb1,2,B*%
%TO.N,N/C*%
X49950000Y-78600000D03*
%TO.N,/D0*%
X37450000Y-78600000D03*
%TD*%
%TO.P,SWBb1,1,A*%
%TO.N,GND*%
X151550000Y-83680000D03*
X139050000Y-83680000D03*
%TO.P,SWBb1,2,B*%
%TO.N,N/C*%
X151550000Y-78680000D03*
%TO.N,/D4*%
X139050000Y-78680000D03*
%TD*%
%TO.P,SWB1,1,A*%
%TO.N,GND*%
X161510000Y-101460000D03*
X149010000Y-101460000D03*
%TO.P,SWB1,2,B*%
%TO.N,N/C*%
X161510000Y-96460000D03*
%TO.N,/D13*%
X149010000Y-96460000D03*
%TD*%
%TO.P,SWQ_DIM1,1,A*%
%TO.N,GND*%
X100130000Y-124320000D03*
X87630000Y-124320000D03*
%TO.P,SWQ_DIM1,2,B*%
%TO.N,/D19*%
X100130000Y-119320000D03*
%TO.N,N/C*%
X87630000Y-119320000D03*
%TD*%
D11*
%TO.P,POT_CHORDVOL1,1,1*%
%TO.N,/3V3_A*%
X152400000Y-55340000D03*
D10*
%TO.P,POT_CHORDVOL1,2,2*%
%TO.N,/A1*%
X157480000Y-55340000D03*
%TO.P,POT_CHORDVOL1,3,3*%
%TO.N,GND*%
X162560000Y-55340000D03*
%TD*%
D12*
%TO.P,SWC1,1,A*%
%TO.N,GND*%
X39170000Y-101460000D03*
X26670000Y-101460000D03*
%TO.P,SWC1,2,B*%
%TO.N,/D5*%
X39170000Y-96460000D03*
%TO.N,N/C*%
X26670000Y-96460000D03*
%TD*%
%TO.P,SWG1,1,A*%
%TO.N,GND*%
X121070000Y-101460000D03*
X108570000Y-101460000D03*
%TO.P,SWG1,2,B*%
%TO.N,N/C*%
X121070000Y-96460000D03*
%TO.N,/D9*%
X108570000Y-96460000D03*
%TD*%
%TO.P,SWE_TRI1,1,A*%
%TO.N,GND*%
X39170000Y-149720000D03*
X26670000Y-149720000D03*
%TO.P,SWE_TRI1,2,B*%
%TO.N,N/C*%
X39170000Y-144720000D03*
%TO.N,/D26*%
X26670000Y-144720000D03*
%TD*%
D15*
%TO.P,PULLUP_SDA1,1*%
%TO.N,/3V3_A*%
X186763758Y-80864745D03*
%TO.P,PULLUP_SDA1,2*%
%TO.N,/I2C_SDA*%
X191843758Y-80864745D03*
%TD*%
D16*
%TO.P,PAM1,1,Gnd*%
%TO.N,GND*%
X168910000Y-89503000D03*
D17*
%TO.P,PAM1,2,VDC*%
%TO.N,/3V3_A*%
X171450000Y-89503000D03*
%TO.P,PAM1,3,SD*%
%TO.N,N/C*%
X173990000Y-89503000D03*
%TO.P,PAM1,4,In+*%
%TO.N,/LINE_OUT*%
X179070000Y-89503000D03*
%TO.P,PAM1,5,In-*%
%TO.N,GND*%
X176530000Y-89503000D03*
D18*
%TO.P,PAM1,6,4ohm_out*%
%TO.N,unconnected-(PAM1-4ohm_out-Pad6)*%
X175663000Y-106902000D03*
%TO.P,PAM1,7,8ohm_out*%
%TO.N,unconnected-(PAM1-8ohm_out-Pad7)*%
X172163000Y-106902000D03*
%TD*%
D12*
%TO.P,SWQ_AUG1,1,A*%
%TO.N,GND*%
X79810000Y-124320000D03*
X67310000Y-124320000D03*
%TO.P,SWQ_AUG1,2,B*%
%TO.N,/D20*%
X79810000Y-119320000D03*
%TO.N,N/C*%
X67310000Y-119320000D03*
%TD*%
%TO.P,SWE1,1,A*%
%TO.N,GND*%
X80430000Y-101460000D03*
X67930000Y-101460000D03*
%TO.P,SWE1,2,B*%
%TO.N,N/C*%
X80430000Y-96460000D03*
%TO.N,/D7*%
X67930000Y-96460000D03*
%TD*%
%TO.P,SWE_11th1,1,A*%
%TO.N,GND*%
X120450000Y-149720000D03*
X107950000Y-149720000D03*
%TO.P,SWE_11th1,2,B*%
%TO.N,N/C*%
X120450000Y-144720000D03*
%TO.N,/D30*%
X107950000Y-144720000D03*
%TD*%
%TO.P,SWE_6th1,1,A*%
%TO.N,GND*%
X59590000Y-149720000D03*
X47090000Y-149720000D03*
%TO.P,SWE_6th1,2,B*%
%TO.N,N/C*%
X59590000Y-144720000D03*
%TO.N,/D27*%
X47090000Y-144720000D03*
%TD*%
%TO.P,SWE_7th1,1,A*%
%TO.N,GND*%
X79910000Y-149720000D03*
X67410000Y-149720000D03*
%TO.P,SWE_7th1,2,B*%
%TO.N,N/C*%
X79910000Y-144720000D03*
%TO.N,/D28*%
X67410000Y-144720000D03*
%TD*%
%TO.P,SWGb1,1,A*%
%TO.N,GND*%
X110910000Y-83680000D03*
X98410000Y-83680000D03*
%TO.P,SWGb1,2,B*%
%TO.N,N/C*%
X110910000Y-78680000D03*
%TO.N,/D2*%
X98410000Y-78680000D03*
%TD*%
%TO.P,SWPS_R1,1,A*%
%TO.N,GND*%
X214630000Y-149320000D03*
X202130000Y-149320000D03*
%TO.P,SWPS_R1,2,B*%
%TO.N,N/C*%
X214630000Y-144320000D03*
%TO.N,/D25*%
X202130000Y-144320000D03*
%TD*%
%TO.P,SWA1,1,A*%
%TO.N,GND*%
X141390000Y-101460000D03*
X128890000Y-101460000D03*
%TO.P,SWA1,2,B*%
%TO.N,N/C*%
X141390000Y-96460000D03*
%TO.N,/D10*%
X128890000Y-96460000D03*
%TD*%
%TO.P,SWQ_MAJ1,1,A*%
%TO.N,GND*%
X39170000Y-123840000D03*
X26670000Y-123840000D03*
%TO.P,SWQ_MAJ1,2,B*%
%TO.N,/D22*%
X39170000Y-118840000D03*
%TO.N,N/C*%
X26670000Y-118840000D03*
%TD*%
D15*
%TO.P,C_BULK1,1*%
%TO.N,GND*%
X86160000Y-37560000D03*
%TO.P,C_BULK1,2*%
%TO.N,/3V3_A*%
X86160000Y-29940000D03*
%TD*%
%TO.P,PULLUP_SCL1,1*%
%TO.N,/I2C_SCL*%
X191786332Y-78188714D03*
%TO.P,PULLUP_SCL1,2*%
%TO.N,/3V3_A*%
X186706332Y-78188714D03*
%TD*%
D12*
%TO.P,SWEb1,1,A*%
%TO.N,GND*%
X70270000Y-83680000D03*
X57770000Y-83680000D03*
%TO.P,SWEb1,2,B*%
%TO.N,N/C*%
X70270000Y-78680000D03*
%TO.N,/D1*%
X57770000Y-78680000D03*
%TD*%
D11*
%TO.P,POT_DRUMVOL1,1,1*%
%TO.N,/3V3_A*%
X127000000Y-55340000D03*
D10*
%TO.P,POT_DRUMVOL1,2,2*%
%TO.N,/A2*%
X132080000Y-55340000D03*
%TO.P,POT_DRUMVOL1,3,3*%
%TO.N,GND*%
X137160000Y-55340000D03*
%TD*%
D12*
%TO.P,SW_GRVTGL1,1,A*%
%TO.N,GND*%
X195580000Y-127730000D03*
X183080000Y-127730000D03*
%TO.P,SW_GRVTGL1,2,B*%
%TO.N,/D23*%
X195580000Y-122730000D03*
%TO.N,N/C*%
X183080000Y-122730000D03*
%TD*%
%TO.P,SWE_9th1,1,A*%
%TO.N,GND*%
X100230000Y-149720000D03*
X87730000Y-149720000D03*
%TO.P,SWE_9th1,2,B*%
%TO.N,N/C*%
X100230000Y-144720000D03*
%TO.N,/D29*%
X87730000Y-144720000D03*
%TD*%
%TO.P,SWPS_L1,1,A*%
%TO.N,GND*%
X195580000Y-149240000D03*
X183080000Y-149240000D03*
%TO.P,SWPS_L1,2,B*%
%TO.N,/D24*%
X195580000Y-144240000D03*
%TO.N,N/C*%
X183080000Y-144240000D03*
%TD*%
D15*
%TO.P,DECOUP_TRILL1,1*%
%TO.N,/3V3_A*%
X191677636Y-83711601D03*
%TO.P,DECOUP_TRILL1,2*%
%TO.N,GND*%
X184057636Y-83711601D03*
%TD*%
%TO.P,DECOUP_AMP1,1*%
%TO.N,/3V3_A*%
X171450000Y-83280000D03*
%TO.P,DECOUP_AMP1,2*%
%TO.N,GND*%
X171450000Y-75660000D03*
%TD*%
D11*
%TO.P,POT_BPM1,1,1*%
%TO.N,/3V3_A*%
X101600000Y-55340000D03*
D10*
%TO.P,POT_BPM1,2,2*%
%TO.N,/A3*%
X106680000Y-55340000D03*
%TO.P,POT_BPM1,3,3*%
%TO.N,GND*%
X111760000Y-55340000D03*
%TD*%
D19*
%TO.N,/D3*%
X115990000Y-68440000D03*
X47410000Y-68440000D03*
%TO.N,/I2C_SDA*%
X66040000Y-55340000D03*
X91874112Y-62910458D03*
%TO.N,/LINE_OUT*%
X179070000Y-70580000D03*
X179070000Y-65500000D03*
%TO.N,/I2C_SCL*%
X65840000Y-56610000D03*
X91791641Y-64230000D03*
%TO.N,/D22*%
X88730000Y-94420000D03*
X88730000Y-88360000D03*
%TO.N,/D4*%
X47410000Y-65900000D03*
X136310000Y-65900000D03*
%TO.N,/D2*%
X95670000Y-70980000D03*
X47410000Y-70980000D03*
%TO.N,/D1*%
X47410000Y-73520000D03*
X55880000Y-74390000D03*
%TO.N,/D19*%
X96230000Y-94420000D03*
X96230000Y-88360000D03*
%TO.N,/A3*%
X106680000Y-46450000D03*
X106680000Y-43910000D03*
%TO.N,/A2*%
X120650000Y-43910000D03*
X123190000Y-46450000D03*
%TO.N,/D20*%
X93730000Y-88360000D03*
X93730000Y-94420000D03*
%TO.N,/A1*%
X146050000Y-43910000D03*
X148590000Y-46450000D03*
%TO.N,/3V3_A*%
X186690000Y-69310000D03*
X93980000Y-37560000D03*
X186690000Y-65500000D03*
X100330000Y-43910000D03*
%TO.N,/D21*%
X91230000Y-94420000D03*
X91230000Y-88360000D03*
%TD*%
D20*
%TO.N,/A0*%
X80010000Y-37560000D02*
X81280000Y-38830000D01*
X166370000Y-38830000D02*
X182880000Y-55340000D01*
X80010000Y-29940000D02*
X80010000Y-37560000D01*
X81280000Y-38830000D02*
X166370000Y-38830000D01*
%TO.N,/D27*%
X38100000Y-139160000D02*
X41530000Y-139160000D01*
X31750000Y-23590000D02*
X26670000Y-28670000D01*
X30480000Y-78200000D02*
X30480000Y-131540000D01*
X49530000Y-29940000D02*
X43180000Y-23590000D01*
X26670000Y-74390000D02*
X30480000Y-78200000D01*
X30480000Y-131540000D02*
X38100000Y-139160000D01*
X41530000Y-139160000D02*
X47090000Y-144720000D01*
X43180000Y-23590000D02*
X31750000Y-23590000D01*
X26670000Y-28670000D02*
X26670000Y-74390000D01*
D21*
%TO.N,/D3*%
X118730000Y-71180000D02*
X118730000Y-78600000D01*
X44870000Y-68440000D02*
X47410000Y-68440000D01*
X115990000Y-68440000D02*
X118730000Y-71180000D01*
X41910000Y-65480000D02*
X44870000Y-68440000D01*
X41910000Y-45260000D02*
X41910000Y-65480000D01*
D20*
%TO.N,/I2C_SDA*%
X140970000Y-66770000D02*
X187960000Y-66770000D01*
X187960000Y-66770000D02*
X198120000Y-76930000D01*
X198120000Y-76930000D02*
X198120000Y-78591661D01*
X64770000Y-52800000D02*
X64770000Y-54070000D01*
X64770000Y-54070000D02*
X66040000Y-55340000D01*
X198120000Y-78591661D02*
X195896274Y-80815387D01*
X137160000Y-62960000D02*
X140970000Y-66770000D01*
X64770000Y-45260000D02*
X64770000Y-52800000D01*
X195846916Y-80864745D02*
X195896274Y-80815387D01*
X91874112Y-62910458D02*
X91923654Y-62960000D01*
X191843758Y-80864745D02*
X195846916Y-80864745D01*
X91923654Y-62960000D02*
X137160000Y-62960000D01*
%TO.N,/D24*%
X203200000Y-131540000D02*
X203200000Y-38830000D01*
X61040000Y-26130000D02*
X57150000Y-30020000D01*
X195580000Y-139160000D02*
X203200000Y-131540000D01*
X195580000Y-144240000D02*
X195580000Y-139160000D01*
X203200000Y-38830000D02*
X190500000Y-26130000D01*
X190500000Y-26130000D02*
X61040000Y-26130000D01*
%TO.N,/D23*%
X59690000Y-30020000D02*
X62230000Y-27480000D01*
X195580000Y-122730000D02*
X195580000Y-122650000D01*
X189230000Y-27400000D02*
X201930000Y-40100000D01*
X62230000Y-27400000D02*
X189230000Y-27400000D01*
X62230000Y-27480000D02*
X62230000Y-27400000D01*
X201930000Y-40100000D02*
X201930000Y-116300000D01*
X195580000Y-122650000D02*
X201930000Y-116300000D01*
D21*
%TO.N,/LINE_OUT*%
X179070000Y-89503000D02*
X179070000Y-70580000D01*
D20*
%TO.N,/I2C_SCL*%
X187760000Y-74162382D02*
X191786332Y-78188714D01*
X136960000Y-64230000D02*
X140770000Y-68040000D01*
X91791641Y-64230000D02*
X136960000Y-64230000D01*
X140770000Y-68040000D02*
X187760000Y-68040000D01*
X62030000Y-45460000D02*
X62030000Y-52800000D01*
X62230000Y-45260000D02*
X62030000Y-45460000D01*
X62030000Y-52800000D02*
X65840000Y-56610000D01*
X191786332Y-78188714D02*
X195809601Y-78188714D01*
X195809601Y-78188714D02*
X195896274Y-78275387D01*
X187760000Y-68040000D02*
X187760000Y-74162382D01*
D22*
%TO.N,/D10*%
X123730000Y-91300000D02*
X128890000Y-96460000D01*
X59690000Y-51610000D02*
X75350000Y-67270000D01*
X59690000Y-45260000D02*
X59690000Y-51610000D01*
X76620000Y-91300000D02*
X123730000Y-91300000D01*
X75350000Y-67270000D02*
X75350000Y-90030000D01*
X75350000Y-90030000D02*
X76620000Y-91300000D01*
D20*
%TO.N,/D22*%
X91230000Y-110160000D02*
X90170000Y-111220000D01*
X91230000Y-96920000D02*
X91230000Y-110160000D01*
X81230000Y-61920000D02*
X81230000Y-74420000D01*
X88730000Y-94420000D02*
X91230000Y-96920000D01*
X62230000Y-30020000D02*
X62230000Y-37560000D01*
X39370000Y-118840000D02*
X46990000Y-111220000D01*
X62230000Y-37560000D02*
X68580000Y-43910000D01*
X68580000Y-49203400D02*
X68580000Y-49270000D01*
X68580000Y-49270000D02*
X81230000Y-61920000D01*
X88730000Y-81920000D02*
X88730000Y-88360000D01*
X90170000Y-111220000D02*
X46990000Y-111220000D01*
X81230000Y-74420000D02*
X88730000Y-81920000D01*
X68580000Y-43910000D02*
X68580000Y-49203400D01*
D21*
%TO.N,/D4*%
X44450000Y-62940000D02*
X47410000Y-65900000D01*
X136310000Y-65900000D02*
X139050000Y-68640000D01*
X44450000Y-45260000D02*
X44450000Y-62940000D01*
X139050000Y-68640000D02*
X139050000Y-78680000D01*
D20*
%TO.N,/D29*%
X33020000Y-131540000D02*
X33020000Y-78200000D01*
X31750000Y-26130000D02*
X40640000Y-26130000D01*
X87730000Y-144340000D02*
X80010000Y-136620000D01*
X40640000Y-26130000D02*
X44450000Y-29940000D01*
X38100000Y-136620000D02*
X33020000Y-131540000D01*
X33020000Y-78200000D02*
X29210000Y-74390000D01*
X29210000Y-74390000D02*
X29210000Y-28670000D01*
X80010000Y-136620000D02*
X38100000Y-136620000D01*
X29210000Y-28670000D02*
X31750000Y-26130000D01*
X87730000Y-144720000D02*
X87730000Y-144340000D01*
D21*
%TO.N,/D2*%
X39370000Y-68020000D02*
X42330000Y-70980000D01*
X39370000Y-45260000D02*
X39370000Y-68020000D01*
X42330000Y-70980000D02*
X47410000Y-70980000D01*
X95670000Y-70980000D02*
X98410000Y-73720000D01*
X98410000Y-73720000D02*
X98410000Y-78680000D01*
%TO.N,/D7*%
X67930000Y-78800000D02*
X67930000Y-96460000D01*
X52070000Y-62940000D02*
X67930000Y-78800000D01*
X52070000Y-45260000D02*
X52070000Y-62940000D01*
D22*
%TO.N,/D13*%
X76620000Y-66855859D02*
X76620000Y-88760000D01*
X149010000Y-96380000D02*
X149010000Y-96460000D01*
X67310000Y-45260000D02*
X67310000Y-57545859D01*
X67310000Y-57545859D02*
X76620000Y-66855859D01*
X76620000Y-88760000D02*
X77890000Y-90030000D01*
X142660000Y-90030000D02*
X149010000Y-96380000D01*
X77890000Y-90030000D02*
X142660000Y-90030000D01*
D21*
%TO.N,/D6*%
X52490000Y-65900000D02*
X52490000Y-73520000D01*
X55030000Y-88760000D02*
X47610000Y-96180000D01*
X52490000Y-73520000D02*
X55030000Y-76060000D01*
X47610000Y-96180000D02*
X47610000Y-96460000D01*
X55030000Y-76060000D02*
X55030000Y-88760000D01*
X49530000Y-62940000D02*
X52490000Y-65900000D01*
X49530000Y-45260000D02*
X49530000Y-62940000D01*
D20*
%TO.N,/D28*%
X27940000Y-28670000D02*
X27940000Y-74390000D01*
X31750000Y-78200000D02*
X31750000Y-131540000D01*
X31750000Y-24860000D02*
X27940000Y-28670000D01*
X67410000Y-144340000D02*
X60960000Y-137890000D01*
X46990000Y-29940000D02*
X41910000Y-24860000D01*
X67410000Y-144720000D02*
X67410000Y-144340000D01*
X41910000Y-24860000D02*
X31750000Y-24860000D01*
X31750000Y-131540000D02*
X38100000Y-137890000D01*
X38100000Y-137890000D02*
X60960000Y-137890000D01*
X27940000Y-74390000D02*
X31750000Y-78200000D01*
D21*
%TO.N,/D1*%
X39790000Y-73520000D02*
X47410000Y-73520000D01*
X36830000Y-70560000D02*
X39790000Y-73520000D01*
X55880000Y-74390000D02*
X57150000Y-75660000D01*
X57150000Y-75660000D02*
X57150000Y-78060000D01*
X57150000Y-78060000D02*
X57770000Y-78680000D01*
X36830000Y-45260000D02*
X36830000Y-70560000D01*
D20*
%TO.N,/D19*%
X76230000Y-49420000D02*
X76200000Y-49390000D01*
X96230000Y-88360000D02*
X96230000Y-81920000D01*
X96230000Y-94420000D02*
X98730000Y-96920000D01*
X76200000Y-49390000D02*
X76200000Y-44390000D01*
X100330000Y-113520000D02*
X100330000Y-119320000D01*
X69850000Y-39475065D02*
X69850000Y-30020000D01*
X74284935Y-43910000D02*
X69850000Y-39475065D01*
X76200000Y-44390000D02*
X75720000Y-43910000D01*
X75720000Y-43910000D02*
X74284935Y-43910000D01*
X98730000Y-96920000D02*
X98730000Y-111920000D01*
X96230000Y-81920000D02*
X88730000Y-74420000D01*
X98730000Y-111920000D02*
X100330000Y-113520000D01*
X88730000Y-61920000D02*
X76230000Y-49420000D01*
X88730000Y-74420000D02*
X88730000Y-61920000D01*
%TO.N,/A3*%
X72390000Y-29940000D02*
X73730000Y-31280000D01*
X75165310Y-42640000D02*
X105410000Y-42640000D01*
X105410000Y-42640000D02*
X106680000Y-43910000D01*
X75165310Y-42640000D02*
X73660000Y-41134690D01*
X73660000Y-31280000D02*
X73660000Y-40100000D01*
X106680000Y-55340000D02*
X106680000Y-46450000D01*
X73660000Y-41134690D02*
X73660000Y-40100000D01*
%TO.N,/A2*%
X76200000Y-41370000D02*
X118110000Y-41370000D01*
X74930000Y-40100000D02*
X76200000Y-41370000D01*
X118110000Y-41370000D02*
X120650000Y-43910000D01*
X74930000Y-29940000D02*
X74930000Y-40100000D01*
X132080000Y-55340000D02*
X123190000Y-46450000D01*
%TO.N,/D20*%
X73660000Y-49350000D02*
X73726600Y-49416600D01*
X67310000Y-30020000D02*
X67310000Y-38338135D01*
X80430000Y-119320000D02*
X80800000Y-119320000D01*
X93730000Y-81920000D02*
X93730000Y-88360000D01*
X93730000Y-94420000D02*
X96230000Y-96920000D01*
X96230000Y-96920000D02*
X96230000Y-96960000D01*
X96230000Y-96960000D02*
X97790000Y-98520000D01*
X97790000Y-111220000D02*
X95250000Y-113760000D01*
X97790000Y-98520000D02*
X97790000Y-111220000D01*
X86230000Y-74420000D02*
X93730000Y-81920000D01*
X73726600Y-49416600D02*
X86230000Y-61920000D01*
X95250000Y-113760000D02*
X86360000Y-113760000D01*
X80800000Y-119320000D02*
X86360000Y-113760000D01*
X73660000Y-44688135D02*
X73660000Y-49350000D01*
X67310000Y-38338135D02*
X73660000Y-44688135D01*
X86230000Y-61920000D02*
X86230000Y-74420000D01*
D22*
%TO.N,/D8*%
X54610000Y-49070000D02*
X72810000Y-67270000D01*
X85630000Y-93840000D02*
X88250000Y-96460000D01*
X72810000Y-67270000D02*
X72810000Y-92570000D01*
X72810000Y-92570000D02*
X74080000Y-93840000D01*
X74080000Y-93840000D02*
X85630000Y-93840000D01*
X54610000Y-45260000D02*
X54610000Y-49070000D01*
D20*
%TO.N,/D25*%
X191770000Y-24860000D02*
X204470000Y-37560000D01*
X59770000Y-24860000D02*
X191770000Y-24860000D01*
X204470000Y-141980000D02*
X202130000Y-144320000D01*
X204470000Y-37560000D02*
X204470000Y-141980000D01*
X54610000Y-30020000D02*
X59770000Y-24860000D01*
%TO.N,/A1*%
X157480000Y-55340000D02*
X148590000Y-46450000D01*
X77470000Y-38830000D02*
X78740000Y-40100000D01*
X78740000Y-40100000D02*
X142240000Y-40100000D01*
X142240000Y-40100000D02*
X146050000Y-43910000D01*
X77470000Y-29940000D02*
X77470000Y-38830000D01*
D21*
%TO.N,/D5*%
X52490000Y-86220000D02*
X44870000Y-93840000D01*
X46990000Y-45260000D02*
X46990000Y-62940000D01*
X46990000Y-62940000D02*
X49950000Y-65900000D01*
X49950000Y-73520000D02*
X52490000Y-76060000D01*
X49950000Y-65900000D02*
X49950000Y-73520000D01*
X42410000Y-93840000D02*
X39790000Y-96460000D01*
X52490000Y-76060000D02*
X52490000Y-86220000D01*
X44870000Y-93840000D02*
X42410000Y-93840000D01*
%TO.N,/3V3_A*%
X191677636Y-83711601D02*
X191677636Y-86982364D01*
X82550000Y-30020000D02*
X86080000Y-30020000D01*
X100330000Y-43910000D02*
X101600000Y-45180000D01*
X185220000Y-93440000D02*
X173990000Y-93440000D01*
X186650000Y-78200000D02*
X186650000Y-80740000D01*
X186650000Y-80740000D02*
X189621601Y-83711601D01*
X101400000Y-45180000D02*
X101600000Y-45180000D01*
X171450000Y-90900000D02*
X171450000Y-89503000D01*
X177800000Y-55340000D02*
X186690000Y-64230000D01*
X186690000Y-64230000D02*
X186690000Y-65500000D01*
X101600000Y-45180000D02*
X116640000Y-45180000D01*
X191677636Y-83711601D02*
X195540060Y-83711601D01*
X86080000Y-30020000D02*
X86160000Y-29940000D01*
X167440000Y-45180000D02*
X177600000Y-55340000D01*
X142040000Y-45180000D02*
X167440000Y-45180000D01*
X86160000Y-29940000D02*
X86360000Y-29940000D01*
X116640000Y-45180000D02*
X142040000Y-45180000D01*
X126800000Y-55340000D02*
X116640000Y-45180000D01*
X186650000Y-69350000D02*
X186650000Y-78200000D01*
X186690000Y-69310000D02*
X186650000Y-69350000D01*
X195540060Y-83711601D02*
X195896274Y-83355387D01*
X189621601Y-83711601D02*
X191677636Y-83711601D01*
X101400000Y-45180000D02*
X101400000Y-55340000D01*
X171450000Y-83280000D02*
X171450000Y-89503000D01*
X152200000Y-55340000D02*
X142040000Y-45180000D01*
X86360000Y-29940000D02*
X93980000Y-37560000D01*
X173990000Y-93440000D02*
X171450000Y-90900000D01*
X191677636Y-86982364D02*
X185220000Y-93440000D01*
D20*
%TO.N,/D30*%
X107950000Y-144240000D02*
X99060000Y-135350000D01*
X34290000Y-78200000D02*
X30480000Y-74390000D01*
X30480000Y-28670000D02*
X31750000Y-27400000D01*
X107950000Y-144720000D02*
X107950000Y-144240000D01*
X31750000Y-27400000D02*
X39370000Y-27400000D01*
X39370000Y-27400000D02*
X41910000Y-29940000D01*
X38100000Y-135350000D02*
X34290000Y-131540000D01*
X99060000Y-135350000D02*
X38100000Y-135350000D01*
X30480000Y-74390000D02*
X30480000Y-28670000D01*
X34290000Y-131540000D02*
X34290000Y-78200000D01*
D22*
%TO.N,/D9*%
X74080000Y-91300000D02*
X74080000Y-67270000D01*
X108450000Y-96460000D02*
X104560000Y-92570000D01*
X75350000Y-92570000D02*
X74080000Y-91300000D01*
X104560000Y-92570000D02*
X75350000Y-92570000D01*
X57150000Y-50340000D02*
X57150000Y-45895000D01*
X74080000Y-67270000D02*
X57150000Y-50340000D01*
X108570000Y-96460000D02*
X108450000Y-96460000D01*
D20*
%TO.N,/D21*%
X59690000Y-118840000D02*
X66040000Y-112490000D01*
X93730000Y-111470000D02*
X92710000Y-112490000D01*
X83730000Y-61920000D02*
X83730000Y-74420000D01*
X71186600Y-49376600D02*
X83730000Y-61920000D01*
X64770000Y-30020000D02*
X64770000Y-38258135D01*
X66040000Y-112490000D02*
X67310000Y-112490000D01*
X91230000Y-94420000D02*
X93730000Y-96920000D01*
X71120000Y-49310000D02*
X71186600Y-49376600D01*
X92710000Y-112490000D02*
X67310000Y-112490000D01*
X91230000Y-81920000D02*
X91230000Y-88360000D01*
X83730000Y-74420000D02*
X91230000Y-81920000D01*
X71120000Y-44608135D02*
X71120000Y-49310000D01*
X64770000Y-38258135D02*
X71120000Y-44608135D01*
X93730000Y-96920000D02*
X93730000Y-111470000D01*
%TO.N,/D26*%
X29210000Y-141700000D02*
X29210000Y-78200000D01*
X29210000Y-78200000D02*
X25400000Y-74390000D01*
X25400000Y-28670000D02*
X31750000Y-22320000D01*
X31750000Y-22320000D02*
X44450000Y-22320000D01*
X25400000Y-74390000D02*
X25400000Y-28670000D01*
X26670000Y-144240000D02*
X29210000Y-141700000D01*
X26670000Y-144720000D02*
X26670000Y-144240000D01*
X44450000Y-22320000D02*
X52070000Y-29940000D01*
D21*
%TO.N,/D0*%
X37250000Y-78600000D02*
X37450000Y-78600000D01*
X34290000Y-45260000D02*
X34290000Y-75640000D01*
X34290000Y-75640000D02*
X37250000Y-78600000D01*
%TO.N,/LINE_OUT*%
X175260000Y-61690000D02*
X179070000Y-65500000D01*
X93900000Y-61690000D02*
X175260000Y-61690000D01*
X77470000Y-45260000D02*
X93900000Y-61690000D01*
%TD*%
M02*
